STARTFONT 2.1
FONT -FontForge-Lobster-Book-R-Normal--9-90-72-72-P-52-ISO10646-1
SIZE 9 72 72
FONTBOUNDINGBOX 18 15 -4 -4
COMMENT "Generated by fontforge, http://fontforge.sourceforge.net"
COMMENT "Copyright 2010 The Lobster Project Authors (https://github.com/impallari/The-Lobster-Font), with Reserved Font Name "Lobster"."
STARTPROPERTIES 40
FOUNDRY "FontForge"
FAMILY_NAME "Lobster"
WEIGHT_NAME "Book"
SLANT "R"
SETWIDTH_NAME "Normal"
ADD_STYLE_NAME ""
PIXEL_SIZE 9
POINT_SIZE 90
RESOLUTION_X 72
RESOLUTION_Y 72
SPACING "P"
AVERAGE_WIDTH 52
CHARSET_REGISTRY "ISO10646"
CHARSET_ENCODING "1"
FONTNAME_REGISTRY ""
CHARSET_COLLECTIONS "ISO8859-2 ISO8859-5 ISO8859-9 ISO8859-4 ISO10646-1"
FONT_NAME "Lobster-Regular"
FACE_NAME "Lobster Regular"
COPYRIGHT "Copyright 2010 The Lobster Project Authors (https://github.com/impallari/The-Lobster-Font), with Reserved Font Name "Lobster"."
FONT_VERSION "2.100"
FONT_ASCENT 7
FONT_DESCENT 2
UNDERLINE_POSITION -1
UNDERLINE_THICKNESS 1
X_HEIGHT 5
CAP_HEIGHT 6
DEFAULT_CHAR 1
RAW_ASCENT 800
RAW_DESCENT 200
NORM_SPACE 2
RELATIVE_WEIGHT 40
RELATIVE_SETWIDTH 50
SUPERSCRIPT_X 0
SUPERSCRIPT_Y 3
SUPERSCRIPT_SIZE 5
SUBSCRIPT_X 0
SUBSCRIPT_Y 0
SUBSCRIPT_SIZE 5
AVG_LOWERCASE_WIDTH 42
AVG_UPPERCASE_WIDTH 54
ENDPROPERTIES
CHARS 1148
STARTCHAR NULL.dup1
ENCODING 0
SWIDTH 600 0
DWIDTH 5 0
BBX 1 1 0 0
BITMAP
00
ENDCHAR
STARTCHAR nonmarkingreturn
ENCODING 13
SWIDTH 600 0
DWIDTH 5 0
BBX 1 1 0 0
BITMAP
00
ENDCHAR
STARTCHAR space
ENCODING 32
SWIDTH 217 0
DWIDTH 2 0
BBX 1 1 0 0
BITMAP
00
ENDCHAR
STARTCHAR exclam
ENCODING 33
SWIDTH 257 0
DWIDTH 2 0
BBX 3 8 0 0
BITMAP
20
60
40
40
40
40
40
C0
ENDCHAR
STARTCHAR quotedbl
ENCODING 34
SWIDTH 353 0
DWIDTH 3 0
BBX 3 2 1 5
BITMAP
A0
C0
ENDCHAR
STARTCHAR numbersign
ENCODING 35
SWIDTH 659 0
DWIDTH 6 0
BBX 4 7 1 0
BITMAP
50
50
F0
60
F0
A0
A0
ENDCHAR
STARTCHAR dollar
ENCODING 36
SWIDTH 548 0
DWIDTH 5 0
BBX 5 9 0 -1
BITMAP
10
38
58
20
30
F0
B0
70
40
ENDCHAR
STARTCHAR percent
ENCODING 37
SWIDTH 796 0
DWIDTH 7 0
BBX 7 7 0 0
BITMAP
64
68
A8
56
1A
2A
2C
ENDCHAR
STARTCHAR ampersand
ENCODING 38
SWIDTH 682 0
DWIDTH 6 0
BBX 6 7 0 0
BITMAP
30
58
60
4C
D8
C8
70
ENDCHAR
STARTCHAR quotesingle
ENCODING 39
SWIDTH 196 0
DWIDTH 2 0
BBX 1 2 1 5
BITMAP
80
80
ENDCHAR
STARTCHAR parenleft
ENCODING 40
SWIDTH 437 0
DWIDTH 4 0
BBX 4 9 1 -2
BITMAP
10
20
40
40
80
80
80
40
40
ENDCHAR
STARTCHAR parenright
ENCODING 41
SWIDTH 413 0
DWIDTH 4 0
BBX 4 9 -1 -2
BITMAP
20
20
10
10
10
10
20
20
C0
ENDCHAR
STARTCHAR asterisk
ENCODING 42
SWIDTH 515 0
DWIDTH 5 0
BBX 3 4 1 3
BITMAP
E0
40
E0
40
ENDCHAR
STARTCHAR plus
ENCODING 43
SWIDTH 442 0
DWIDTH 4 0
BBX 4 3 0 2
BITMAP
20
F0
40
ENDCHAR
STARTCHAR comma
ENCODING 44
SWIDTH 216 0
DWIDTH 2 0
BBX 2 3 0 -1
BITMAP
C0
40
80
ENDCHAR
STARTCHAR hyphen
ENCODING 45
SWIDTH 290 0
DWIDTH 3 0
BBX 2 1 0 2
BITMAP
C0
ENDCHAR
STARTCHAR period
ENCODING 46
SWIDTH 263 0
DWIDTH 2 0
BBX 2 2 0 0
BITMAP
80
C0
ENDCHAR
STARTCHAR slash
ENCODING 47
SWIDTH 311 0
DWIDTH 3 0
BBX 3 9 0 -2
BITMAP
20
20
40
40
40
40
80
80
80
ENDCHAR
STARTCHAR zero
ENCODING 48
SWIDTH 546 0
DWIDTH 5 0
BBX 5 7 0 0
BITMAP
30
48
48
C8
D8
D0
60
ENDCHAR
STARTCHAR one
ENCODING 49
SWIDTH 317 0
DWIDTH 3 0
BBX 3 8 0 0
BITMAP
20
60
60
40
40
40
C0
C0
ENDCHAR
STARTCHAR two
ENCODING 50
SWIDTH 492 0
DWIDTH 4 0
BBX 4 7 0 0
BITMAP
70
50
50
20
40
D0
F0
ENDCHAR
STARTCHAR three
ENCODING 51
SWIDTH 514 0
DWIDTH 5 0
BBX 4 7 0 0
BITMAP
70
50
10
30
D0
90
E0
ENDCHAR
STARTCHAR four
ENCODING 52
SWIDTH 476 0
DWIDTH 4 0
BBX 4 7 0 0
BITMAP
20
20
50
50
F0
20
20
ENDCHAR
STARTCHAR five
ENCODING 53
SWIDTH 517 0
DWIDTH 5 0
BBX 5 7 0 0
BITMAP
78
40
70
10
D0
90
E0
ENDCHAR
STARTCHAR six
ENCODING 54
SWIDTH 500 0
DWIDTH 5 0
BBX 5 7 0 0
BITMAP
38
50
F0
D0
90
D0
60
ENDCHAR
STARTCHAR seven
ENCODING 55
SWIDTH 464 0
DWIDTH 4 0
BBX 4 7 1 0
BITMAP
F0
A0
40
40
80
80
80
ENDCHAR
STARTCHAR eight
ENCODING 56
SWIDTH 499 0
DWIDTH 4 0
BBX 5 7 0 0
BITMAP
70
48
70
70
90
90
70
ENDCHAR
STARTCHAR nine
ENCODING 57
SWIDTH 489 0
DWIDTH 4 0
BBX 4 7 0 0
BITMAP
70
D0
90
70
10
B0
E0
ENDCHAR
STARTCHAR colon
ENCODING 58
SWIDTH 267 0
DWIDTH 2 0
BBX 2 4 0 1
BITMAP
40
40
40
C0
ENDCHAR
STARTCHAR semicolon
ENCODING 59
SWIDTH 276 0
DWIDTH 2 0
BBX 2 6 0 -2
BITMAP
40
40
00
C0
40
80
ENDCHAR
STARTCHAR less
ENCODING 60
SWIDTH 358 0
DWIDTH 3 0
BBX 3 3 0 1
BITMAP
20
C0
60
ENDCHAR
STARTCHAR equal
ENCODING 61
SWIDTH 515 0
DWIDTH 5 0
BBX 4 3 0 1
BITMAP
70
00
F0
ENDCHAR
STARTCHAR greater
ENCODING 62
SWIDTH 362 0
DWIDTH 3 0
BBX 3 3 0 1
BITMAP
C0
20
C0
ENDCHAR
STARTCHAR question
ENCODING 63
SWIDTH 441 0
DWIDTH 4 0
BBX 4 7 0 0
BITMAP
70
D0
20
40
40
40
C0
ENDCHAR
STARTCHAR at
ENCODING 64
SWIDTH 688 0
DWIDTH 6 0
BBX 6 7 0 -1
BITMAP
38
74
B4
D4
B8
90
70
ENDCHAR
STARTCHAR A
ENCODING 65
SWIDTH 668 0
DWIDTH 6 0
BBX 6 8 0 -1
BITMAP
0C
14
7C
AC
48
48
48
40
ENDCHAR
STARTCHAR B
ENCODING 66
SWIDTH 641 0
DWIDTH 6 0
BBX 5 7 0 0
BITMAP
78
A8
B8
28
68
48
58
ENDCHAR
STARTCHAR C
ENCODING 67
SWIDTH 497 0
DWIDTH 4 0
BBX 5 7 0 0
BITMAP
38
48
40
C0
C0
C8
70
ENDCHAR
STARTCHAR D
ENCODING 68
SWIDTH 663 0
DWIDTH 6 0
BBX 6 7 0 0
BITMAP
78
A4
A4
2C
6C
48
70
ENDCHAR
STARTCHAR E
ENCODING 69
SWIDTH 459 0
DWIDTH 4 0
BBX 4 7 0 0
BITMAP
30
50
60
40
C0
D0
E0
ENDCHAR
STARTCHAR F
ENCODING 70
SWIDTH 459 0
DWIDTH 4 0
BBX 5 7 0 0
BITMAP
78
A0
B0
20
60
40
40
ENDCHAR
STARTCHAR G
ENCODING 71
SWIDTH 578 0
DWIDTH 5 0
BBX 5 9 0 -2
BITMAP
38
48
C0
C8
D8
70
70
90
60
ENDCHAR
STARTCHAR H
ENCODING 72
SWIDTH 665 0
DWIDTH 6 0
BBX 6 7 0 0
BITMAP
74
A4
BC
2C
68
48
48
ENDCHAR
STARTCHAR I
ENCODING 73
SWIDTH 375 0
DWIDTH 3 0
BBX 4 7 0 0
BITMAP
70
A0
A0
20
60
40
40
ENDCHAR
STARTCHAR J
ENCODING 74
SWIDTH 536 0
DWIDTH 5 0
BBX 5 9 0 -2
BITMAP
18
28
38
10
10
10
50
B0
60
ENDCHAR
STARTCHAR K
ENCODING 75
SWIDTH 601 0
DWIDTH 5 0
BBX 6 7 0 0
BITMAP
7C
B0
B8
28
68
58
58
ENDCHAR
STARTCHAR L
ENCODING 76
SWIDTH 379 0
DWIDTH 3 0
BBX 6 9 0 -2
BITMAP
70
A0
A0
20
60
40
40
30
0C
ENDCHAR
STARTCHAR M
ENCODING 77
SWIDTH 787 0
DWIDTH 7 0
BBX 6 7 1 0
BITMAP
64
AC
EC
6C
BC
A8
A8
ENDCHAR
STARTCHAR N
ENCODING 78
SWIDTH 668 0
DWIDTH 6 0
BBX 6 7 0 0
BITMAP
74
B4
B4
34
54
58
48
ENDCHAR
STARTCHAR O
ENCODING 79
SWIDTH 665 0
DWIDTH 6 0
BBX 6 7 0 0
BITMAP
78
B4
A4
64
4C
48
70
ENDCHAR
STARTCHAR P
ENCODING 80
SWIDTH 573 0
DWIDTH 5 0
BBX 5 7 0 0
BITMAP
78
A8
A8
38
60
40
40
ENDCHAR
STARTCHAR Q
ENCODING 81
SWIDTH 665 0
DWIDTH 6 0
BBX 6 8 0 -1
BITMAP
78
B4
A4
64
4C
68
70
0C
ENDCHAR
STARTCHAR R
ENCODING 82
SWIDTH 601 0
DWIDTH 5 0
BBX 5 7 0 0
BITMAP
78
A8
B8
28
68
58
58
ENDCHAR
STARTCHAR S
ENCODING 83
SWIDTH 570 0
DWIDTH 5 0
BBX 5 7 0 0
BITMAP
38
68
20
30
58
98
70
ENDCHAR
STARTCHAR T
ENCODING 84
SWIDTH 481 0
DWIDTH 4 0
BBX 6 7 0 0
BITMAP
7C
90
B0
20
20
20
60
ENDCHAR
STARTCHAR U
ENCODING 85
SWIDTH 716 0
DWIDTH 6 0
BBX 7 7 0 0
BITMAP
76
A6
A4
24
64
6C
38
ENDCHAR
STARTCHAR V
ENCODING 86
SWIDTH 615 0
DWIDTH 6 0
BBX 6 7 0 0
BITMAP
74
B4
B8
38
38
30
30
ENDCHAR
STARTCHAR W
ENCODING 87
SWIDTH 962 0
DWIDTH 9 0
BBX 9 7 0 0
BITMAP
7680
B680
B680
3F00
3F00
3600
3600
ENDCHAR
STARTCHAR X
ENCODING 88
SWIDTH 620 0
DWIDTH 6 0
BBX 6 7 0 0
BITMAP
74
B8
90
10
10
38
58
ENDCHAR
STARTCHAR Y
ENCODING 89
SWIDTH 620 0
DWIDTH 6 0
BBX 6 7 0 0
BITMAP
74
B4
98
18
10
10
30
ENDCHAR
STARTCHAR Z
ENCODING 90
SWIDTH 542 0
DWIDTH 5 0
BBX 5 7 0 0
BITMAP
78
50
30
20
60
48
F0
ENDCHAR
STARTCHAR bracketleft
ENCODING 91
SWIDTH 400 0
DWIDTH 4 0
BBX 4 9 0 -2
BITMAP
30
40
40
40
40
40
80
80
C0
ENDCHAR
STARTCHAR backslash
ENCODING 92
SWIDTH 362 0
DWIDTH 3 0
BBX 3 9 0 -2
BITMAP
80
40
40
40
40
40
20
20
20
ENDCHAR
STARTCHAR bracketright
ENCODING 93
SWIDTH 400 0
DWIDTH 4 0
BBX 4 9 -1 -2
BITMAP
30
10
10
10
20
20
20
20
C0
ENDCHAR
STARTCHAR asciicircum
ENCODING 94
SWIDTH 421 0
DWIDTH 4 0
BBX 3 2 0 6
BITMAP
20
E0
ENDCHAR
STARTCHAR underscore
ENCODING 95
SWIDTH 444 0
DWIDTH 4 0
BBX 4 1 0 0
BITMAP
F0
ENDCHAR
STARTCHAR grave
ENCODING 96
SWIDTH 201 0
DWIDTH 2 0
BBX 1 2 0 6
BITMAP
80
80
ENDCHAR
STARTCHAR a
ENCODING 97
SWIDTH 526 0
DWIDTH 5 0
BBX 5 5 0 0
BITMAP
70
D0
90
B8
D0
ENDCHAR
STARTCHAR b
ENCODING 98
SWIDTH 444 0
DWIDTH 4 0
BBX 4 7 0 0
BITMAP
40
40
60
D0
90
A0
E0
ENDCHAR
STARTCHAR c
ENCODING 99
SWIDTH 384 0
DWIDTH 3 0
BBX 4 5 0 0
BITMAP
60
E0
80
90
E0
ENDCHAR
STARTCHAR d
ENCODING 100
SWIDTH 525 0
DWIDTH 5 0
BBX 5 7 0 0
BITMAP
18
10
70
D0
90
B8
D0
ENDCHAR
STARTCHAR e
ENCODING 101
SWIDTH 384 0
DWIDTH 3 0
BBX 4 5 0 0
BITMAP
60
E0
C0
90
E0
ENDCHAR
STARTCHAR f
ENCODING 102
SWIDTH 267 0
DWIDTH 2 0
BBX 5 9 -2 -2
BITMAP
18
10
18
30
20
20
20
E0
C0
ENDCHAR
STARTCHAR g
ENCODING 103
SWIDTH 507 0
DWIDTH 5 0
BBX 5 7 0 -2
BITMAP
70
D0
90
B8
F0
60
60
ENDCHAR
STARTCHAR h
ENCODING 104
SWIDTH 505 0
DWIDTH 5 0
BBX 5 7 0 0
BITMAP
40
40
70
D0
B0
A8
B0
ENDCHAR
STARTCHAR i
ENCODING 105
SWIDTH 267 0
DWIDTH 2 0
BBX 3 7 0 0
BITMAP
40
40
40
C0
80
A0
C0
ENDCHAR
STARTCHAR j
ENCODING 106
SWIDTH 240 0
DWIDTH 2 0
BBX 5 9 -2 -2
BITMAP
10
10
10
30
20
28
30
E0
C0
ENDCHAR
STARTCHAR k
ENCODING 107
SWIDTH 518 0
DWIDTH 5 0
BBX 5 7 0 0
BITMAP
40
40
50
E0
B0
B8
B0
ENDCHAR
STARTCHAR l
ENCODING 108
SWIDTH 267 0
DWIDTH 2 0
BBX 3 7 0 0
BITMAP
40
40
40
C0
80
A0
C0
ENDCHAR
STARTCHAR m
ENCODING 109
SWIDTH 752 0
DWIDTH 7 0
BBX 7 5 0 0
BITMAP
7C
D4
B4
AE
A6
ENDCHAR
STARTCHAR n
ENCODING 110
SWIDTH 505 0
DWIDTH 5 0
BBX 5 5 0 0
BITMAP
70
D0
B0
A8
B0
ENDCHAR
STARTCHAR o
ENCODING 111
SWIDTH 439 0
DWIDTH 4 0
BBX 5 5 0 0
BITMAP
60
E8
90
A0
C0
ENDCHAR
STARTCHAR p
ENCODING 112
SWIDTH 468 0
DWIDTH 4 0
BBX 5 8 -1 -2
BITMAP
20
78
68
48
58
70
40
C0
ENDCHAR
STARTCHAR q
ENCODING 113
SWIDTH 486 0
DWIDTH 4 0
BBX 4 7 0 -2
BITMAP
70
D0
90
B0
E0
20
20
ENDCHAR
STARTCHAR r
ENCODING 114
SWIDTH 376 0
DWIDTH 3 0
BBX 4 5 0 0
BITMAP
70
C0
80
80
80
ENDCHAR
STARTCHAR s
ENCODING 115
SWIDTH 382 0
DWIDTH 3 0
BBX 4 5 0 0
BITMAP
60
60
E0
B0
C0
ENDCHAR
STARTCHAR t
ENCODING 116
SWIDTH 267 0
DWIDTH 2 0
BBX 3 7 0 0
BITMAP
20
40
C0
C0
80
A0
C0
ENDCHAR
STARTCHAR u
ENCODING 117
SWIDTH 505 0
DWIDTH 5 0
BBX 5 5 0 0
BITMAP
50
D0
B0
A8
F0
ENDCHAR
STARTCHAR v
ENCODING 118
SWIDTH 414 0
DWIDTH 4 0
BBX 4 5 0 0
BITMAP
70
D0
90
A0
C0
ENDCHAR
STARTCHAR w
ENCODING 119
SWIDTH 661 0
DWIDTH 6 0
BBX 6 5 0 0
BITMAP
54
D4
B4
A8
F8
ENDCHAR
STARTCHAR x
ENCODING 120
SWIDTH 522 0
DWIDTH 5 0
BBX 5 6 0 0
BITMAP
10
68
B0
A0
68
B0
ENDCHAR
STARTCHAR y
ENCODING 121
SWIDTH 486 0
DWIDTH 4 0
BBX 5 7 0 -2
BITMAP
50
D0
B0
A8
F0
60
E0
ENDCHAR
STARTCHAR z
ENCODING 122
SWIDTH 428 0
DWIDTH 4 0
BBX 4 5 0 0
BITMAP
70
A0
60
50
E0
ENDCHAR
STARTCHAR braceleft
ENCODING 123
SWIDTH 352 0
DWIDTH 3 0
BBX 4 9 0 -2
BITMAP
30
20
40
40
80
40
40
80
40
ENDCHAR
STARTCHAR bar
ENCODING 124
SWIDTH 532 0
DWIDTH 5 0
BBX 1 9 2 -2
BITMAP
80
80
80
80
80
80
80
80
80
ENDCHAR
STARTCHAR braceright
ENCODING 125
SWIDTH 352 0
DWIDTH 3 0
BBX 4 9 -1 -2
BITMAP
20
10
20
20
10
20
20
40
C0
ENDCHAR
STARTCHAR asciitilde
ENCODING 126
SWIDTH 431 0
DWIDTH 4 0
BBX 4 1 0 6
BITMAP
F0
ENDCHAR
STARTCHAR uni00A0
ENCODING 160
SWIDTH 217 0
DWIDTH 2 0
BBX 1 1 0 0
BITMAP
00
ENDCHAR
STARTCHAR exclamdown
ENCODING 161
SWIDTH 219 0
DWIDTH 2 0
BBX 3 8 -1 -3
BITMAP
20
20
20
40
40
40
40
80
ENDCHAR
STARTCHAR cent
ENCODING 162
SWIDTH 384 0
DWIDTH 3 0
BBX 4 7 0 0
BITMAP
20
70
B0
C0
C0
60
40
ENDCHAR
STARTCHAR sterling
ENCODING 163
SWIDTH 455 0
DWIDTH 4 0
BBX 5 7 0 0
BITMAP
38
28
60
F0
40
48
F0
ENDCHAR
STARTCHAR currency
ENCODING 164
SWIDTH 500 0
DWIDTH 5 0
BBX 3 3 1 2
BITMAP
E0
A0
E0
ENDCHAR
STARTCHAR yen
ENCODING 165
SWIDTH 558 0
DWIDTH 5 0
BBX 4 7 1 0
BITMAP
D0
D0
60
60
F0
E0
C0
ENDCHAR
STARTCHAR brokenbar
ENCODING 166
SWIDTH 532 0
DWIDTH 5 0
BBX 1 9 2 -2
BITMAP
80
80
80
80
80
80
80
80
80
ENDCHAR
STARTCHAR section
ENCODING 167
SWIDTH 542 0
DWIDTH 5 0
BBX 5 8 0 -1
BITMAP
38
28
60
50
68
F0
A0
60
ENDCHAR
STARTCHAR dieresis
ENCODING 168
SWIDTH 392 0
DWIDTH 4 0
BBX 3 1 0 6
BITMAP
E0
ENDCHAR
STARTCHAR copyright
ENCODING 169
SWIDTH 587 0
DWIDTH 5 0
BBX 5 6 0 0
BITMAP
30
68
D8
C8
78
30
ENDCHAR
STARTCHAR ordfeminine
ENCODING 170
SWIDTH 345 0
DWIDTH 3 0
BBX 3 2 0 5
BITMAP
60
E0
ENDCHAR
STARTCHAR guillemotleft
ENCODING 171
SWIDTH 589 0
DWIDTH 5 0
BBX 5 3 0 1
BITMAP
28
F0
70
ENDCHAR
STARTCHAR logicalnot
ENCODING 172
SWIDTH 444 0
DWIDTH 4 0
BBX 4 2 0 1
BITMAP
F0
20
ENDCHAR
STARTCHAR uni00AD
ENCODING 173
SWIDTH 290 0
DWIDTH 3 0
BBX 2 1 0 2
BITMAP
C0
ENDCHAR
STARTCHAR registered
ENCODING 174
SWIDTH 553 0
DWIDTH 5 0
BBX 5 6 0 0
BITMAP
70
A8
D8
A8
D0
20
ENDCHAR
STARTCHAR macron
ENCODING 175
SWIDTH 446 0
DWIDTH 4 0
BBX 3 1 1 6
BITMAP
E0
ENDCHAR
STARTCHAR degree
ENCODING 176
SWIDTH 314 0
DWIDTH 3 0
BBX 3 4 0 3
BITMAP
40
A0
A0
40
ENDCHAR
STARTCHAR plusminus
ENCODING 177
SWIDTH 479 0
DWIDTH 4 0
BBX 4 5 0 1
BITMAP
20
70
20
40
F0
ENDCHAR
STARTCHAR uni00B2
ENCODING 178
SWIDTH 328 0
DWIDTH 3 0
BBX 3 4 0 3
BITMAP
60
20
40
E0
ENDCHAR
STARTCHAR uni00B3
ENCODING 179
SWIDTH 336 0
DWIDTH 3 0
BBX 3 4 0 3
BITMAP
60
40
A0
40
ENDCHAR
STARTCHAR acute
ENCODING 180
SWIDTH 316 0
DWIDTH 3 0
BBX 2 2 1 6
BITMAP
40
80
ENDCHAR
STARTCHAR uni00B5
ENCODING 181
SWIDTH 505 0
DWIDTH 5 0
BBX 6 7 -1 -2
BITMAP
28
68
58
54
78
40
80
ENDCHAR
STARTCHAR paragraph
ENCODING 182
SWIDTH 542 0
DWIDTH 5 0
BBX 4 8 1 -1
BITMAP
60
D0
D0
E0
60
60
60
E0
ENDCHAR
STARTCHAR periodcentered
ENCODING 183
SWIDTH 434 0
DWIDTH 4 0
BBX 2 2 1 2
BITMAP
C0
C0
ENDCHAR
STARTCHAR cedilla
ENCODING 184
SWIDTH 227 0
DWIDTH 2 0
BBX 2 3 0 -2
BITMAP
80
40
C0
ENDCHAR
STARTCHAR uni00B9
ENCODING 185
SWIDTH 229 0
DWIDTH 2 0
BBX 2 3 0 4
BITMAP
C0
40
80
ENDCHAR
STARTCHAR ordmasculine
ENCODING 186
SWIDTH 329 0
DWIDTH 3 0
BBX 3 3 0 4
BITMAP
60
A0
40
ENDCHAR
STARTCHAR guillemotright
ENCODING 187
SWIDTH 586 0
DWIDTH 5 0
BBX 5 3 0 1
BITMAP
50
28
F0
ENDCHAR
STARTCHAR onequarter
ENCODING 188
SWIDTH 749 0
DWIDTH 7 0
BBX 7 7 0 0
BITMAP
C8
48
90
16
2C
2E
44
ENDCHAR
STARTCHAR onehalf
ENCODING 189
SWIDTH 745 0
DWIDTH 7 0
BBX 7 7 0 0
BITMAP
C8
48
90
1E
22
24
4C
ENDCHAR
STARTCHAR threequarters
ENCODING 190
SWIDTH 836 0
DWIDTH 8 0
BBX 7 7 0 0
BITMAP
64
44
A8
56
16
26
22
ENDCHAR
STARTCHAR questiondown
ENCODING 191
SWIDTH 439 0
DWIDTH 4 0
BBX 3 7 0 -2
BITMAP
20
20
20
20
C0
A0
E0
ENDCHAR
STARTCHAR Agrave
ENCODING 192
SWIDTH 668 0
DWIDTH 6 0
BBX 6 11 0 -1
BITMAP
08
04
00
0C
14
7C
AC
48
48
48
40
ENDCHAR
STARTCHAR Aacute
ENCODING 193
SWIDTH 668 0
DWIDTH 6 0
BBX 7 11 0 -1
BITMAP
02
04
00
0C
14
7C
AC
48
48
48
40
ENDCHAR
STARTCHAR Acircumflex
ENCODING 194
SWIDTH 668 0
DWIDTH 6 0
BBX 7 11 0 -1
BITMAP
02
0E
00
0C
14
7C
AC
48
48
48
40
ENDCHAR
STARTCHAR Atilde
ENCODING 195
SWIDTH 668 0
DWIDTH 6 0
BBX 7 10 0 -1
BITMAP
0E
00
0C
14
7C
AC
48
48
48
40
ENDCHAR
STARTCHAR Adieresis
ENCODING 196
SWIDTH 668 0
DWIDTH 6 0
BBX 7 10 0 -1
BITMAP
0A
00
0C
14
7C
AC
48
48
48
40
ENDCHAR
STARTCHAR Aring
ENCODING 197
SWIDTH 668 0
DWIDTH 6 0
BBX 6 11 0 -1
BITMAP
04
04
00
0C
14
7C
AC
48
48
48
40
ENDCHAR
STARTCHAR AE
ENCODING 198
SWIDTH 764 0
DWIDTH 7 0
BBX 8 8 0 -1
BITMAP
0F
14
7C
AE
48
48
4E
40
ENDCHAR
STARTCHAR Ccedilla
ENCODING 199
SWIDTH 497 0
DWIDTH 4 0
BBX 5 9 0 -2
BITMAP
38
48
40
C0
C0
C8
70
20
60
ENDCHAR
STARTCHAR Egrave
ENCODING 200
SWIDTH 459 0
DWIDTH 4 0
BBX 4 10 0 0
BITMAP
20
10
00
30
50
60
40
C0
D0
E0
ENDCHAR
STARTCHAR Eacute
ENCODING 201
SWIDTH 459 0
DWIDTH 4 0
BBX 5 10 0 0
BITMAP
08
10
00
30
58
60
40
C0
C8
F0
ENDCHAR
STARTCHAR Ecircumflex
ENCODING 202
SWIDTH 459 0
DWIDTH 4 0
BBX 4 10 0 0
BITMAP
10
30
00
30
50
60
40
C0
D0
E0
ENDCHAR
STARTCHAR Edieresis
ENCODING 203
SWIDTH 459 0
DWIDTH 4 0
BBX 5 9 0 0
BITMAP
28
00
30
58
60
40
C0
C8
F0
ENDCHAR
STARTCHAR Igrave
ENCODING 204
SWIDTH 375 0
DWIDTH 3 0
BBX 4 10 0 0
BITMAP
20
20
00
70
A0
A0
20
60
40
40
ENDCHAR
STARTCHAR Iacute
ENCODING 205
SWIDTH 375 0
DWIDTH 3 0
BBX 4 10 0 0
BITMAP
10
10
00
70
A0
A0
20
60
40
40
ENDCHAR
STARTCHAR Icircumflex
ENCODING 206
SWIDTH 375 0
DWIDTH 3 0
BBX 4 10 0 0
BITMAP
10
30
00
70
A0
A0
20
60
40
40
ENDCHAR
STARTCHAR Idieresis
ENCODING 207
SWIDTH 375 0
DWIDTH 3 0
BBX 4 9 0 0
BITMAP
30
00
70
A0
A0
20
60
40
40
ENDCHAR
STARTCHAR Eth
ENCODING 208
SWIDTH 663 0
DWIDTH 6 0
BBX 6 7 0 0
BITMAP
78
A4
A4
7C
6C
48
70
ENDCHAR
STARTCHAR Ntilde
ENCODING 209
SWIDTH 686 0
DWIDTH 6 0
BBX 6 9 0 0
BITMAP
1C
00
74
B4
B4
34
54
58
48
ENDCHAR
STARTCHAR Ograve
ENCODING 210
SWIDTH 665 0
DWIDTH 6 0
BBX 6 10 0 0
BITMAP
10
10
00
78
B4
A4
64
4C
48
70
ENDCHAR
STARTCHAR Oacute
ENCODING 211
SWIDTH 665 0
DWIDTH 6 0
BBX 6 10 0 0
BITMAP
08
08
00
78
B4
A4
64
4C
48
70
ENDCHAR
STARTCHAR Ocircumflex
ENCODING 212
SWIDTH 665 0
DWIDTH 6 0
BBX 6 10 0 0
BITMAP
08
38
00
78
B4
A4
64
4C
48
70
ENDCHAR
STARTCHAR Otilde
ENCODING 213
SWIDTH 665 0
DWIDTH 6 0
BBX 6 9 0 0
BITMAP
3C
00
78
B4
A4
64
4C
48
70
ENDCHAR
STARTCHAR Odieresis
ENCODING 214
SWIDTH 665 0
DWIDTH 6 0
BBX 6 9 0 0
BITMAP
18
00
78
B4
A4
64
4C
48
70
ENDCHAR
STARTCHAR multiply
ENCODING 215
SWIDTH 414 0
DWIDTH 4 0
BBX 3 3 0 2
BITMAP
20
E0
E0
ENDCHAR
STARTCHAR Oslash
ENCODING 216
SWIDTH 658 0
DWIDTH 6 0
BBX 6 8 0 -1
BITMAP
78
BC
B4
7C
58
58
70
20
ENDCHAR
STARTCHAR Ugrave
ENCODING 217
SWIDTH 716 0
DWIDTH 6 0
BBX 7 10 0 0
BITMAP
08
08
00
76
A4
A4
24
64
68
38
ENDCHAR
STARTCHAR Uacute
ENCODING 218
SWIDTH 716 0
DWIDTH 6 0
BBX 7 10 0 0
BITMAP
04
08
00
76
A4
A4
24
64
68
38
ENDCHAR
STARTCHAR Ucircumflex
ENCODING 219
SWIDTH 716 0
DWIDTH 6 0
BBX 7 10 0 0
BITMAP
04
1C
00
76
A4
A4
24
64
68
38
ENDCHAR
STARTCHAR Udieresis
ENCODING 220
SWIDTH 716 0
DWIDTH 6 0
BBX 7 9 0 0
BITMAP
1C
00
76
A4
A4
24
64
68
38
ENDCHAR
STARTCHAR Yacute
ENCODING 221
SWIDTH 620 0
DWIDTH 6 0
BBX 6 10 0 0
BITMAP
04
08
00
74
B4
98
18
10
10
30
ENDCHAR
STARTCHAR Thorn
ENCODING 222
SWIDTH 583 0
DWIDTH 5 0
BBX 5 8 0 0
BITMAP
30
30
68
A8
A8
68
70
40
ENDCHAR
STARTCHAR germandbls
ENCODING 223
SWIDTH 480 0
DWIDTH 4 0
BBX 5 9 -1 -2
BITMAP
38
28
30
70
48
48
70
40
C0
ENDCHAR
STARTCHAR agrave
ENCODING 224
SWIDTH 526 0
DWIDTH 5 0
BBX 5 7 0 0
BITMAP
20
20
70
D0
90
B8
D0
ENDCHAR
STARTCHAR aacute
ENCODING 225
SWIDTH 526 0
DWIDTH 5 0
BBX 5 7 0 0
BITMAP
10
20
70
D0
90
B8
D0
ENDCHAR
STARTCHAR acircumflex
ENCODING 226
SWIDTH 526 0
DWIDTH 5 0
BBX 5 7 0 0
BITMAP
30
50
70
D0
90
B8
D0
ENDCHAR
STARTCHAR atilde
ENCODING 227
SWIDTH 526 0
DWIDTH 5 0
BBX 5 7 0 0
BITMAP
78
00
70
D0
90
B8
D0
ENDCHAR
STARTCHAR adieresis
ENCODING 228
SWIDTH 526 0
DWIDTH 5 0
BBX 5 7 0 0
BITMAP
30
00
70
D0
90
B8
D0
ENDCHAR
STARTCHAR aring
ENCODING 229
SWIDTH 526 0
DWIDTH 5 0
BBX 5 7 0 0
BITMAP
30
20
70
D0
90
B8
D0
ENDCHAR
STARTCHAR ae
ENCODING 230
SWIDTH 650 0
DWIDTH 6 0
BBX 6 5 0 0
BITMAP
7C
14
78
B4
D8
ENDCHAR
STARTCHAR ccedilla
ENCODING 231
SWIDTH 384 0
DWIDTH 3 0
BBX 4 7 0 -2
BITMAP
60
E0
80
90
E0
60
40
ENDCHAR
STARTCHAR egrave
ENCODING 232
SWIDTH 384 0
DWIDTH 3 0
BBX 4 7 0 0
BITMAP
40
20
60
E0
C0
90
E0
ENDCHAR
STARTCHAR eacute
ENCODING 233
SWIDTH 384 0
DWIDTH 3 0
BBX 4 7 0 0
BITMAP
30
20
60
E0
C0
90
E0
ENDCHAR
STARTCHAR ecircumflex
ENCODING 234
SWIDTH 384 0
DWIDTH 3 0
BBX 4 7 0 0
BITMAP
20
50
60
E0
C0
90
E0
ENDCHAR
STARTCHAR edieresis
ENCODING 235
SWIDTH 384 0
DWIDTH 3 0
BBX 4 7 0 0
BITMAP
50
00
60
E0
C0
90
E0
ENDCHAR
STARTCHAR igrave
ENCODING 236
SWIDTH 267 0
DWIDTH 2 0
BBX 3 7 0 0
BITMAP
C0
40
40
C0
80
A0
C0
ENDCHAR
STARTCHAR iacute
ENCODING 237
SWIDTH 267 0
DWIDTH 2 0
BBX 3 7 0 0
BITMAP
60
40
40
C0
80
A0
C0
ENDCHAR
STARTCHAR icircumflex
ENCODING 238
SWIDTH 267 0
DWIDTH 2 0
BBX 3 7 0 0
BITMAP
40
A0
40
C0
80
A0
C0
ENDCHAR
STARTCHAR idieresis
ENCODING 239
SWIDTH 267 0
DWIDTH 2 0
BBX 3 7 0 0
BITMAP
A0
00
40
C0
80
A0
C0
ENDCHAR
STARTCHAR eth
ENCODING 240
SWIDTH 526 0
DWIDTH 5 0
BBX 5 7 0 0
BITMAP
38
10
70
D0
90
B8
D0
ENDCHAR
STARTCHAR ntilde
ENCODING 241
SWIDTH 505 0
DWIDTH 5 0
BBX 5 7 0 0
BITMAP
70
00
70
D0
B0
A8
B0
ENDCHAR
STARTCHAR ograve
ENCODING 242
SWIDTH 433 0
DWIDTH 4 0
BBX 5 7 0 0
BITMAP
20
20
60
F8
A0
A0
C0
ENDCHAR
STARTCHAR oacute
ENCODING 243
SWIDTH 439 0
DWIDTH 4 0
BBX 5 7 0 0
BITMAP
10
20
60
E8
90
A0
C0
ENDCHAR
STARTCHAR ocircumflex
ENCODING 244
SWIDTH 433 0
DWIDTH 4 0
BBX 5 7 0 0
BITMAP
20
50
60
F8
A0
A0
C0
ENDCHAR
STARTCHAR otilde
ENCODING 245
SWIDTH 433 0
DWIDTH 4 0
BBX 5 7 0 0
BITMAP
F0
00
60
F8
A0
A0
C0
ENDCHAR
STARTCHAR odieresis
ENCODING 246
SWIDTH 433 0
DWIDTH 4 0
BBX 5 7 0 0
BITMAP
50
00
60
F8
A0
A0
C0
ENDCHAR
STARTCHAR divide
ENCODING 247
SWIDTH 415 0
DWIDTH 4 0
BBX 4 5 0 1
BITMAP
20
20
F0
40
40
ENDCHAR
STARTCHAR oslash
ENCODING 248
SWIDTH 428 0
DWIDTH 4 0
BBX 5 5 -1 0
BITMAP
38
68
50
70
E0
ENDCHAR
STARTCHAR ugrave
ENCODING 249
SWIDTH 505 0
DWIDTH 5 0
BBX 5 7 0 0
BITMAP
20
20
50
D0
B0
A8
F0
ENDCHAR
STARTCHAR uacute
ENCODING 250
SWIDTH 505 0
DWIDTH 5 0
BBX 5 7 0 0
BITMAP
10
20
50
D0
B0
A8
F0
ENDCHAR
STARTCHAR ucircumflex
ENCODING 251
SWIDTH 505 0
DWIDTH 5 0
BBX 5 7 0 0
BITMAP
20
50
50
D0
B0
A8
F0
ENDCHAR
STARTCHAR udieresis
ENCODING 252
SWIDTH 505 0
DWIDTH 5 0
BBX 5 7 0 0
BITMAP
50
00
50
D0
B0
A8
F0
ENDCHAR
STARTCHAR yacute
ENCODING 253
SWIDTH 505 0
DWIDTH 5 0
BBX 5 9 0 -2
BITMAP
10
20
50
D0
B0
A8
F0
60
E0
ENDCHAR
STARTCHAR thorn
ENCODING 254
SWIDTH 473 0
DWIDTH 4 0
BBX 5 9 -1 -2
BITMAP
20
20
38
68
48
58
70
40
C0
ENDCHAR
STARTCHAR ydieresis
ENCODING 255
SWIDTH 505 0
DWIDTH 5 0
BBX 5 9 0 -2
BITMAP
50
00
50
D0
B0
A8
F0
60
E0
ENDCHAR
STARTCHAR Amacron
ENCODING 256
SWIDTH 668 0
DWIDTH 6 0
BBX 7 10 0 -1
BITMAP
0E
00
0C
14
7C
AC
48
48
48
40
ENDCHAR
STARTCHAR amacron
ENCODING 257
SWIDTH 526 0
DWIDTH 5 0
BBX 5 7 0 0
BITMAP
70
00
70
D0
90
B8
D0
ENDCHAR
STARTCHAR Abreve
ENCODING 258
SWIDTH 668 0
DWIDTH 6 0
BBX 7 11 0 -1
BITMAP
0A
06
00
0C
14
7C
AC
48
48
48
40
ENDCHAR
STARTCHAR abreve
ENCODING 259
SWIDTH 526 0
DWIDTH 5 0
BBX 5 7 0 0
BITMAP
78
00
70
D0
90
B8
D0
ENDCHAR
STARTCHAR Aogonek
ENCODING 260
SWIDTH 668 0
DWIDTH 6 0
BBX 6 9 0 -2
BITMAP
0C
14
7C
AC
48
48
48
50
18
ENDCHAR
STARTCHAR aogonek
ENCODING 261
SWIDTH 526 0
DWIDTH 5 0
BBX 5 7 0 -2
BITMAP
70
D0
90
B8
D0
10
10
ENDCHAR
STARTCHAR Cacute
ENCODING 262
SWIDTH 497 0
DWIDTH 4 0
BBX 5 10 0 0
BITMAP
08
10
00
38
48
40
C0
C0
C8
70
ENDCHAR
STARTCHAR cacute
ENCODING 263
SWIDTH 384 0
DWIDTH 3 0
BBX 4 7 0 0
BITMAP
10
20
60
E0
80
90
E0
ENDCHAR
STARTCHAR Ccircumflex
ENCODING 264
SWIDTH 497 0
DWIDTH 4 0
BBX 5 10 0 0
BITMAP
10
28
00
38
48
40
C0
C0
C8
70
ENDCHAR
STARTCHAR ccircumflex
ENCODING 265
SWIDTH 384 0
DWIDTH 3 0
BBX 4 7 0 0
BITMAP
20
50
60
E0
80
90
E0
ENDCHAR
STARTCHAR Cdotaccent
ENCODING 266
SWIDTH 497 0
DWIDTH 4 0
BBX 5 10 0 0
BITMAP
10
18
00
38
48
40
C0
C0
C8
70
ENDCHAR
STARTCHAR cdotaccent
ENCODING 267
SWIDTH 384 0
DWIDTH 3 0
BBX 4 7 0 0
BITMAP
20
20
60
E0
80
90
E0
ENDCHAR
STARTCHAR Ccaron
ENCODING 268
SWIDTH 497 0
DWIDTH 4 0
BBX 5 10 0 0
BITMAP
28
10
00
38
48
40
C0
C0
C8
70
ENDCHAR
STARTCHAR ccaron
ENCODING 269
SWIDTH 384 0
DWIDTH 3 0
BBX 4 7 0 0
BITMAP
30
20
60
E0
80
90
E0
ENDCHAR
STARTCHAR Dcaron
ENCODING 270
SWIDTH 663 0
DWIDTH 6 0
BBX 6 10 0 0
BITMAP
18
10
00
78
A4
A4
2C
6C
48
70
ENDCHAR
STARTCHAR dcaron
ENCODING 271
SWIDTH 525 0
DWIDTH 5 0
BBX 6 7 0 0
BITMAP
04
1C
70
D0
90
B8
D0
ENDCHAR
STARTCHAR Dcroat
ENCODING 272
SWIDTH 663 0
DWIDTH 6 0
BBX 6 7 0 0
BITMAP
78
A4
A4
7C
6C
48
70
ENDCHAR
STARTCHAR dcroat
ENCODING 273
SWIDTH 525 0
DWIDTH 5 0
BBX 5 7 0 0
BITMAP
08
38
70
D0
90
B8
D0
ENDCHAR
STARTCHAR Emacron
ENCODING 274
SWIDTH 459 0
DWIDTH 4 0
BBX 5 9 0 0
BITMAP
38
00
30
58
60
40
C0
C8
F0
ENDCHAR
STARTCHAR emacron
ENCODING 275
SWIDTH 384 0
DWIDTH 3 0
BBX 4 7 0 0
BITMAP
70
00
60
E0
C0
90
E0
ENDCHAR
STARTCHAR Ebreve
ENCODING 276
SWIDTH 459 0
DWIDTH 4 0
BBX 5 10 0 0
BITMAP
28
30
00
30
58
60
40
C0
C8
F0
ENDCHAR
STARTCHAR ebreve
ENCODING 277
SWIDTH 384 0
DWIDTH 3 0
BBX 4 7 0 0
BITMAP
70
00
60
E0
C0
90
E0
ENDCHAR
STARTCHAR Edotaccent
ENCODING 278
SWIDTH 459 0
DWIDTH 4 0
BBX 4 10 0 0
BITMAP
10
10
00
30
50
60
40
C0
D0
E0
ENDCHAR
STARTCHAR edotaccent
ENCODING 279
SWIDTH 384 0
DWIDTH 3 0
BBX 4 7 0 0
BITMAP
20
20
60
E0
C0
90
E0
ENDCHAR
STARTCHAR Eogonek
ENCODING 280
SWIDTH 459 0
DWIDTH 4 0
BBX 4 9 0 -2
BITMAP
70
50
40
60
C0
D0
70
20
30
ENDCHAR
STARTCHAR eogonek
ENCODING 281
SWIDTH 384 0
DWIDTH 3 0
BBX 4 7 0 -2
BITMAP
60
E0
C0
90
E0
40
60
ENDCHAR
STARTCHAR Ecaron
ENCODING 282
SWIDTH 459 0
DWIDTH 4 0
BBX 5 10 0 0
BITMAP
18
10
00
30
58
60
40
C0
C8
F0
ENDCHAR
STARTCHAR ecaron
ENCODING 283
SWIDTH 384 0
DWIDTH 3 0
BBX 4 7 0 0
BITMAP
30
20
60
E0
C0
90
E0
ENDCHAR
STARTCHAR Gcircumflex
ENCODING 284
SWIDTH 578 0
DWIDTH 5 0
BBX 5 12 0 -2
BITMAP
08
18
20
38
48
C0
C8
D8
70
70
90
60
ENDCHAR
STARTCHAR gcircumflex
ENCODING 285
SWIDTH 507 0
DWIDTH 5 0
BBX 5 9 0 -2
BITMAP
30
50
70
D0
90
B8
F0
60
60
ENDCHAR
STARTCHAR Gbreve
ENCODING 286
SWIDTH 578 0
DWIDTH 5 0
BBX 6 12 0 -2
BITMAP
24
18
00
38
48
C0
C8
D8
70
70
90
60
ENDCHAR
STARTCHAR gbreve
ENCODING 287
SWIDTH 507 0
DWIDTH 5 0
BBX 5 9 0 -2
BITMAP
78
00
70
D0
90
B8
F0
60
60
ENDCHAR
STARTCHAR Gdotaccent
ENCODING 288
SWIDTH 578 0
DWIDTH 5 0
BBX 5 12 0 -2
BITMAP
10
10
00
38
48
C0
C8
D8
70
70
90
60
ENDCHAR
STARTCHAR gdotaccent
ENCODING 289
SWIDTH 507 0
DWIDTH 5 0
BBX 5 9 0 -2
BITMAP
30
10
70
D0
90
B8
F0
60
60
ENDCHAR
STARTCHAR Gcommaaccent
ENCODING 290
SWIDTH 578 0
DWIDTH 5 0
BBX 5 9 0 -2
BITMAP
38
48
C0
C8
D8
D0
70
20
20
ENDCHAR
STARTCHAR gcommaaccent
ENCODING 291
SWIDTH 507 0
DWIDTH 5 0
BBX 5 10 0 -2
BITMAP
10
20
00
70
D0
90
B8
F0
60
60
ENDCHAR
STARTCHAR Hcircumflex
ENCODING 292
SWIDTH 665 0
DWIDTH 6 0
BBX 6 10 0 0
BITMAP
08
14
00
74
A4
BC
2C
68
48
48
ENDCHAR
STARTCHAR hcircumflex
ENCODING 293
SWIDTH 505 0
DWIDTH 5 0
BBX 5 9 0 0
BITMAP
20
60
40
40
70
D0
B0
A8
B0
ENDCHAR
STARTCHAR Hbar
ENCODING 294
SWIDTH 665 0
DWIDTH 6 0
BBX 7 7 0 0
BITMAP
74
FE
BC
28
68
48
48
ENDCHAR
STARTCHAR hbar
ENCODING 295
SWIDTH 505 0
DWIDTH 5 0
BBX 5 7 0 0
BITMAP
40
E0
70
D0
B0
A8
B0
ENDCHAR
STARTCHAR Itilde
ENCODING 296
SWIDTH 375 0
DWIDTH 3 0
BBX 5 9 0 0
BITMAP
78
00
70
A0
A0
20
60
40
40
ENDCHAR
STARTCHAR itilde
ENCODING 297
SWIDTH 267 0
DWIDTH 2 0
BBX 3 7 0 0
BITMAP
E0
00
40
C0
80
A0
C0
ENDCHAR
STARTCHAR Imacron
ENCODING 298
SWIDTH 375 0
DWIDTH 3 0
BBX 4 9 0 0
BITMAP
70
00
70
A0
A0
20
60
40
40
ENDCHAR
STARTCHAR imacron
ENCODING 299
SWIDTH 267 0
DWIDTH 2 0
BBX 3 7 0 0
BITMAP
E0
00
40
C0
80
A0
C0
ENDCHAR
STARTCHAR Ibreve
ENCODING 300
SWIDTH 375 0
DWIDTH 3 0
BBX 5 10 0 0
BITMAP
48
30
00
70
A0
A0
20
60
40
40
ENDCHAR
STARTCHAR ibreve
ENCODING 301
SWIDTH 267 0
DWIDTH 2 0
BBX 3 7 0 0
BITMAP
E0
00
40
C0
80
A0
C0
ENDCHAR
STARTCHAR Iogonek
ENCODING 302
SWIDTH 375 0
DWIDTH 3 0
BBX 4 12 0 -2
BITMAP
20
20
00
70
A0
A0
20
60
40
40
80
60
ENDCHAR
STARTCHAR iogonek
ENCODING 303
SWIDTH 267 0
DWIDTH 2 0
BBX 3 9 0 -2
BITMAP
40
40
40
C0
80
A0
C0
80
C0
ENDCHAR
STARTCHAR Idotaccent
ENCODING 304
SWIDTH 375 0
DWIDTH 3 0
BBX 4 10 0 0
BITMAP
10
30
00
70
A0
A0
20
60
40
40
ENDCHAR
STARTCHAR dotlessi
ENCODING 305
SWIDTH 267 0
DWIDTH 2 0
BBX 3 5 0 0
BITMAP
40
C0
80
A0
C0
ENDCHAR
STARTCHAR IJ
ENCODING 306
SWIDTH 663 0
DWIDTH 6 0
BBX 6 9 0 -2
BITMAP
74
AC
AC
28
68
48
78
50
70
ENDCHAR
STARTCHAR ij
ENCODING 307
SWIDTH 507 0
DWIDTH 5 0
BBX 5 9 0 -2
BITMAP
58
50
50
D0
90
B8
F0
60
60
ENDCHAR
STARTCHAR Jcircumflex
ENCODING 308
SWIDTH 536 0
DWIDTH 5 0
BBX 6 12 0 -2
BITMAP
08
14
00
18
28
38
10
10
10
50
B0
60
ENDCHAR
STARTCHAR jcircumflex
ENCODING 309
SWIDTH 240 0
DWIDTH 2 0
BBX 5 9 -2 -2
BITMAP
10
28
10
30
20
28
30
E0
C0
ENDCHAR
STARTCHAR Kcommaaccent
ENCODING 310
SWIDTH 601 0
DWIDTH 5 0
BBX 6 9 0 -2
BITMAP
7C
B0
B8
28
68
58
58
20
20
ENDCHAR
STARTCHAR kcommaaccent
ENCODING 311
SWIDTH 518 0
DWIDTH 5 0
BBX 5 9 0 -2
BITMAP
40
40
50
E0
B0
B8
B0
40
40
ENDCHAR
STARTCHAR kgreenlandic
ENCODING 312
SWIDTH 518 0
DWIDTH 5 0
BBX 5 5 0 0
BITMAP
50
E0
B0
B8
B0
ENDCHAR
STARTCHAR Lacute
ENCODING 313
SWIDTH 379 0
DWIDTH 3 0
BBX 6 13 0 -2
BITMAP
08
10
10
00
70
A0
A0
20
60
40
40
30
0C
ENDCHAR
STARTCHAR lacute
ENCODING 314
SWIDTH 267 0
DWIDTH 2 0
BBX 3 9 0 0
BITMAP
20
40
40
40
40
C0
80
A0
C0
ENDCHAR
STARTCHAR Lcommaaccent
ENCODING 315
SWIDTH 379 0
DWIDTH 3 0
BBX 6 9 0 -2
BITMAP
70
A0
A0
20
60
40
40
74
4C
ENDCHAR
STARTCHAR lcommaaccent
ENCODING 316
SWIDTH 267 0
DWIDTH 2 0
BBX 3 9 0 -2
BITMAP
40
40
40
C0
80
A0
C0
80
80
ENDCHAR
STARTCHAR Lcaron
ENCODING 317
SWIDTH 379 0
DWIDTH 3 0
BBX 6 13 0 -2
BITMAP
2C
10
10
00
70
A0
A0
20
60
40
40
30
0C
ENDCHAR
STARTCHAR lcaron
ENCODING 318
SWIDTH 267 0
DWIDTH 2 0
BBX 4 7 0 0
BITMAP
10
50
40
C0
80
A0
C0
ENDCHAR
STARTCHAR Ldot
ENCODING 319
SWIDTH 605 0
DWIDTH 5 0
BBX 6 9 0 -2
BITMAP
70
A0
A0
28
68
40
40
30
0C
ENDCHAR
STARTCHAR ldot
ENCODING 320
SWIDTH 353 0
DWIDTH 3 0
BBX 3 7 0 0
BITMAP
40
40
40
E0
80
80
C0
ENDCHAR
STARTCHAR Lslash
ENCODING 321
SWIDTH 392 0
DWIDTH 4 0
BBX 6 9 0 -2
BITMAP
70
A0
B0
20
60
40
40
30
0C
ENDCHAR
STARTCHAR lslash
ENCODING 322
SWIDTH 286 0
DWIDTH 3 0
BBX 3 7 0 0
BITMAP
40
60
C0
C0
80
A0
C0
ENDCHAR
STARTCHAR Nacute
ENCODING 323
SWIDTH 702 0
DWIDTH 6 0
BBX 6 10 0 0
BITMAP
04
0C
00
74
B4
B4
34
54
58
48
ENDCHAR
STARTCHAR nacute
ENCODING 324
SWIDTH 505 0
DWIDTH 5 0
BBX 5 7 0 0
BITMAP
10
20
70
D0
B0
A8
B0
ENDCHAR
STARTCHAR Ncommaaccent
ENCODING 325
SWIDTH 668 0
DWIDTH 6 0
BBX 6 9 0 -2
BITMAP
74
B4
B4
34
54
58
48
20
20
ENDCHAR
STARTCHAR ncommaaccent
ENCODING 326
SWIDTH 505 0
DWIDTH 5 0
BBX 5 7 0 -2
BITMAP
70
D0
B0
A8
B0
40
40
ENDCHAR
STARTCHAR Ncaron
ENCODING 327
SWIDTH 668 0
DWIDTH 6 0
BBX 7 10 0 0
BITMAP
0E
08
00
74
B4
B4
34
54
58
48
ENDCHAR
STARTCHAR ncaron
ENCODING 328
SWIDTH 505 0
DWIDTH 5 0
BBX 5 7 0 0
BITMAP
30
20
70
D0
B0
A8
B0
ENDCHAR
STARTCHAR napostrophe
ENCODING 329
SWIDTH 505 0
DWIDTH 5 0
BBX 5 7 0 0
BITMAP
80
80
70
D0
B0
A8
B0
ENDCHAR
STARTCHAR Eng
ENCODING 330
SWIDTH 723 0
DWIDTH 7 0
BBX 7 10 0 -3
BITMAP
32
72
B4
7C
2C
4C
4C
28
28
10
ENDCHAR
STARTCHAR eng
ENCODING 331
SWIDTH 505 0
DWIDTH 5 0
BBX 4 7 0 -2
BITMAP
70
D0
B0
A0
A0
E0
60
ENDCHAR
STARTCHAR Omacron
ENCODING 332
SWIDTH 665 0
DWIDTH 6 0
BBX 6 9 0 0
BITMAP
38
00
78
B4
A4
64
4C
48
70
ENDCHAR
STARTCHAR omacron
ENCODING 333
SWIDTH 433 0
DWIDTH 4 0
BBX 5 7 0 0
BITMAP
70
00
60
F8
A0
A0
C0
ENDCHAR
STARTCHAR Obreve
ENCODING 334
SWIDTH 665 0
DWIDTH 6 0
BBX 6 10 0 0
BITMAP
14
18
00
78
B4
A4
64
4C
48
70
ENDCHAR
STARTCHAR obreve
ENCODING 335
SWIDTH 433 0
DWIDTH 4 0
BBX 5 7 0 0
BITMAP
70
00
60
F8
A0
A0
C0
ENDCHAR
STARTCHAR Ohungarumlaut
ENCODING 336
SWIDTH 665 0
DWIDTH 6 0
BBX 7 10 0 0
BITMAP
0E
14
00
78
B4
A4
64
4C
48
70
ENDCHAR
STARTCHAR ohungarumlaut
ENCODING 337
SWIDTH 433 0
DWIDTH 4 0
BBX 5 7 0 0
BITMAP
38
50
60
F8
A0
A0
C0
ENDCHAR
STARTCHAR OE
ENCODING 338
SWIDTH 846 0
DWIDTH 8 0
BBX 8 7 0 0
BITMAP
7F
B4
A4
66
4C
48
7E
ENDCHAR
STARTCHAR oe
ENCODING 339
SWIDTH 663 0
DWIDTH 6 0
BBX 7 5 0 0
BITMAP
6C
B4
98
B2
DC
ENDCHAR
STARTCHAR Racute
ENCODING 340
SWIDTH 601 0
DWIDTH 5 0
BBX 5 10 0 0
BITMAP
08
10
00
78
A8
B8
28
68
58
58
ENDCHAR
STARTCHAR racute
ENCODING 341
SWIDTH 376 0
DWIDTH 3 0
BBX 4 7 0 0
BITMAP
30
20
70
C0
80
80
80
ENDCHAR
STARTCHAR Rcommaaccent
ENCODING 342
SWIDTH 601 0
DWIDTH 5 0
BBX 5 9 0 -2
BITMAP
78
A8
B8
28
68
58
58
20
20
ENDCHAR
STARTCHAR rcommaaccent
ENCODING 343
SWIDTH 376 0
DWIDTH 3 0
BBX 4 7 0 -2
BITMAP
70
C0
80
80
80
80
80
ENDCHAR
STARTCHAR Rcaron
ENCODING 344
SWIDTH 601 0
DWIDTH 5 0
BBX 6 10 0 0
BITMAP
1C
10
00
78
A8
B8
28
68
58
58
ENDCHAR
STARTCHAR rcaron
ENCODING 345
SWIDTH 376 0
DWIDTH 3 0
BBX 4 7 0 0
BITMAP
70
40
70
C0
80
80
80
ENDCHAR
STARTCHAR Sacute
ENCODING 346
SWIDTH 570 0
DWIDTH 5 0
BBX 5 10 0 0
BITMAP
08
10
00
38
68
20
30
58
98
70
ENDCHAR
STARTCHAR sacute
ENCODING 347
SWIDTH 382 0
DWIDTH 3 0
BBX 4 7 0 0
BITMAP
30
20
60
60
E0
B0
C0
ENDCHAR
STARTCHAR Scircumflex
ENCODING 348
SWIDTH 570 0
DWIDTH 5 0
BBX 5 10 0 0
BITMAP
08
38
00
38
68
20
30
58
98
70
ENDCHAR
STARTCHAR scircumflex
ENCODING 349
SWIDTH 382 0
DWIDTH 3 0
BBX 4 7 0 0
BITMAP
20
60
60
60
E0
B0
C0
ENDCHAR
STARTCHAR Scedilla
ENCODING 350
SWIDTH 570 0
DWIDTH 5 0
BBX 5 9 0 -2
BITMAP
38
68
20
30
58
98
70
20
60
ENDCHAR
STARTCHAR scedilla
ENCODING 351
SWIDTH 382 0
DWIDTH 3 0
BBX 4 7 0 -2
BITMAP
60
60
E0
F0
C0
C0
C0
ENDCHAR
STARTCHAR Scaron
ENCODING 352
SWIDTH 570 0
DWIDTH 5 0
BBX 6 10 0 0
BITMAP
1C
10
00
38
68
20
30
58
98
70
ENDCHAR
STARTCHAR scaron
ENCODING 353
SWIDTH 369 0
DWIDTH 3 0
BBX 4 7 0 0
BITMAP
70
40
60
60
E0
B0
C0
ENDCHAR
STARTCHAR uni0162
ENCODING 354
SWIDTH 481 0
DWIDTH 4 0
BBX 6 9 0 -2
BITMAP
7C
90
B0
20
20
20
60
20
60
ENDCHAR
STARTCHAR uni0163
ENCODING 355
SWIDTH 267 0
DWIDTH 2 0
BBX 3 9 0 -2
BITMAP
20
40
C0
C0
80
A0
C0
80
C0
ENDCHAR
STARTCHAR Tcaron
ENCODING 356
SWIDTH 481 0
DWIDTH 4 0
BBX 6 10 0 0
BITMAP
1C
10
00
7C
90
B0
20
20
20
60
ENDCHAR
STARTCHAR tcaron
ENCODING 357
SWIDTH 267 0
DWIDTH 2 0
BBX 4 7 0 0
BITMAP
10
60
C0
C0
80
A0
C0
ENDCHAR
STARTCHAR Tbar
ENCODING 358
SWIDTH 481 0
DWIDTH 4 0
BBX 6 7 0 0
BITMAP
7C
90
B0
20
78
20
60
ENDCHAR
STARTCHAR tbar
ENCODING 359
SWIDTH 267 0
DWIDTH 2 0
BBX 3 7 0 0
BITMAP
20
40
C0
C0
80
A0
C0
ENDCHAR
STARTCHAR Utilde
ENCODING 360
SWIDTH 716 0
DWIDTH 6 0
BBX 7 9 0 0
BITMAP
1E
00
76
A4
A4
24
64
68
38
ENDCHAR
STARTCHAR utilde
ENCODING 361
SWIDTH 505 0
DWIDTH 5 0
BBX 5 7 0 0
BITMAP
70
00
50
D0
B0
A8
F0
ENDCHAR
STARTCHAR Umacron
ENCODING 362
SWIDTH 716 0
DWIDTH 6 0
BBX 7 9 0 0
BITMAP
1C
00
76
A4
A4
24
64
68
38
ENDCHAR
STARTCHAR umacron
ENCODING 363
SWIDTH 505 0
DWIDTH 5 0
BBX 5 7 0 0
BITMAP
70
00
50
D0
B0
A8
F0
ENDCHAR
STARTCHAR Ubreve
ENCODING 364
SWIDTH 716 0
DWIDTH 6 0
BBX 7 10 0 0
BITMAP
12
0C
00
76
A4
A4
24
64
68
38
ENDCHAR
STARTCHAR ubreve
ENCODING 365
SWIDTH 505 0
DWIDTH 5 0
BBX 5 7 0 0
BITMAP
70
00
50
D0
B0
A8
F0
ENDCHAR
STARTCHAR Uring
ENCODING 366
SWIDTH 716 0
DWIDTH 6 0
BBX 7 10 0 0
BITMAP
08
08
00
76
A4
A4
24
64
68
38
ENDCHAR
STARTCHAR uring
ENCODING 367
SWIDTH 505 0
DWIDTH 5 0
BBX 5 7 0 0
BITMAP
20
20
50
D0
B0
A8
F0
ENDCHAR
STARTCHAR Uhungarumlaut
ENCODING 368
SWIDTH 716 0
DWIDTH 6 0
BBX 7 10 0 0
BITMAP
0E
0C
00
76
A4
A4
24
64
68
38
ENDCHAR
STARTCHAR uhungarumlaut
ENCODING 369
SWIDTH 505 0
DWIDTH 5 0
BBX 5 7 0 0
BITMAP
38
50
50
D0
B0
A8
F0
ENDCHAR
STARTCHAR Uogonek
ENCODING 370
SWIDTH 716 0
DWIDTH 6 0
BBX 7 12 0 -2
BITMAP
08
08
00
76
A4
A4
24
64
68
38
20
30
ENDCHAR
STARTCHAR uogonek
ENCODING 371
SWIDTH 505 0
DWIDTH 5 0
BBX 5 7 0 -2
BITMAP
50
D0
B0
A8
F0
20
30
ENDCHAR
STARTCHAR Wcircumflex
ENCODING 372
SWIDTH 962 0
DWIDTH 9 0
BBX 9 10 0 0
BITMAP
0200
0500
0000
7680
B680
B680
3F00
3F00
3600
3600
ENDCHAR
STARTCHAR wcircumflex
ENCODING 373
SWIDTH 661 0
DWIDTH 6 0
BBX 6 7 0 0
BITMAP
10
28
54
D4
B4
A8
F8
ENDCHAR
STARTCHAR Ycircumflex
ENCODING 374
SWIDTH 620 0
DWIDTH 6 0
BBX 6 10 0 0
BITMAP
08
14
00
74
B4
98
18
10
10
30
ENDCHAR
STARTCHAR ycircumflex
ENCODING 375
SWIDTH 505 0
DWIDTH 5 0
BBX 5 9 0 -2
BITMAP
20
50
50
D0
B0
A8
F0
60
E0
ENDCHAR
STARTCHAR Ydieresis
ENCODING 376
SWIDTH 620 0
DWIDTH 6 0
BBX 6 9 0 0
BITMAP
1C
00
74
B4
98
18
10
10
30
ENDCHAR
STARTCHAR Zacute
ENCODING 377
SWIDTH 542 0
DWIDTH 5 0
BBX 5 10 0 0
BITMAP
08
10
00
78
50
30
20
60
48
F0
ENDCHAR
STARTCHAR zacute
ENCODING 378
SWIDTH 428 0
DWIDTH 4 0
BBX 4 7 0 0
BITMAP
10
20
70
A0
60
50
E0
ENDCHAR
STARTCHAR Zdotaccent
ENCODING 379
SWIDTH 530 0
DWIDTH 5 0
BBX 5 9 0 0
BITMAP
10
00
78
50
30
20
60
48
F0
ENDCHAR
STARTCHAR zdotaccent
ENCODING 380
SWIDTH 428 0
DWIDTH 4 0
BBX 4 7 0 0
BITMAP
20
00
70
A0
60
50
E0
ENDCHAR
STARTCHAR Zcaron
ENCODING 381
SWIDTH 542 0
DWIDTH 5 0
BBX 5 10 0 0
BITMAP
18
10
00
78
50
30
20
60
48
F0
ENDCHAR
STARTCHAR zcaron
ENCODING 382
SWIDTH 428 0
DWIDTH 4 0
BBX 4 7 0 0
BITMAP
30
20
70
A0
60
50
E0
ENDCHAR
STARTCHAR longs
ENCODING 383
SWIDTH 267 0
DWIDTH 2 0
BBX 5 9 -2 -2
BITMAP
18
10
30
30
20
20
20
E0
C0
ENDCHAR
STARTCHAR uni018F
ENCODING 399
SWIDTH 544 0
DWIDTH 5 0
BBX 5 7 0 0
BITMAP
70
58
18
38
50
90
E0
ENDCHAR
STARTCHAR florin
ENCODING 402
SWIDTH 267 0
DWIDTH 2 0
BBX 6 9 -2 -2
BITMAP
0C
14
38
30
20
20
20
E0
C0
ENDCHAR
STARTCHAR Ohorn
ENCODING 416
SWIDTH 665 0
DWIDTH 6 0
BBX 7 9 0 0
BITMAP
02
02
7C
B4
A4
64
4C
48
70
ENDCHAR
STARTCHAR ohorn
ENCODING 417
SWIDTH 439 0
DWIDTH 4 0
BBX 4 7 0 0
BITMAP
10
10
70
D0
90
A0
C0
ENDCHAR
STARTCHAR Uhorn
ENCODING 431
SWIDTH 716 0
DWIDTH 6 0
BBX 8 9 0 0
BITMAP
01
01
76
A4
A4
24
64
68
38
ENDCHAR
STARTCHAR uhorn
ENCODING 432
SWIDTH 505 0
DWIDTH 5 0
BBX 5 7 0 0
BITMAP
08
08
50
D0
B0
A8
F0
ENDCHAR
STARTCHAR uni01B7
ENCODING 439
SWIDTH 555 0
DWIDTH 5 0
BBX 5 7 0 0
BITMAP
78
50
20
10
18
90
F0
ENDCHAR
STARTCHAR uni01CD
ENCODING 461
SWIDTH 668 0
DWIDTH 6 0
BBX 8 11 0 -1
BITMAP
07
04
00
0C
14
7C
AC
48
48
48
40
ENDCHAR
STARTCHAR uni01CE
ENCODING 462
SWIDTH 526 0
DWIDTH 5 0
BBX 5 7 0 0
BITMAP
38
20
70
D0
90
B8
D0
ENDCHAR
STARTCHAR uni01CF
ENCODING 463
SWIDTH 375 0
DWIDTH 3 0
BBX 5 10 0 0
BITMAP
28
10
00
70
A0
A0
20
60
40
40
ENDCHAR
STARTCHAR uni01D0
ENCODING 464
SWIDTH 267 0
DWIDTH 2 0
BBX 3 7 0 0
BITMAP
60
40
40
C0
80
A0
C0
ENDCHAR
STARTCHAR uni01D1
ENCODING 465
SWIDTH 665 0
DWIDTH 6 0
BBX 6 10 0 0
BITMAP
0C
08
00
78
B4
A4
64
4C
48
70
ENDCHAR
STARTCHAR uni01D2
ENCODING 466
SWIDTH 433 0
DWIDTH 4 0
BBX 5 7 0 0
BITMAP
30
20
60
F8
A0
A0
C0
ENDCHAR
STARTCHAR uni01D3
ENCODING 467
SWIDTH 716 0
DWIDTH 6 0
BBX 7 10 0 0
BITMAP
0E
08
00
76
A4
A4
24
64
68
38
ENDCHAR
STARTCHAR uni01D4
ENCODING 468
SWIDTH 505 0
DWIDTH 5 0
BBX 5 7 0 0
BITMAP
30
20
50
D0
B0
A8
F0
ENDCHAR
STARTCHAR uni01D5
ENCODING 469
SWIDTH 716 0
DWIDTH 6 0
BBX 7 10 0 0
BITMAP
0E
1C
00
76
A4
A4
24
64
68
38
ENDCHAR
STARTCHAR uni01D6
ENCODING 470
SWIDTH 505 0
DWIDTH 5 0
BBX 5 9 0 0
BITMAP
70
00
50
00
50
D0
B0
A8
F0
ENDCHAR
STARTCHAR uni01D7
ENCODING 471
SWIDTH 716 0
DWIDTH 6 0
BBX 7 10 0 0
BITMAP
04
1A
00
76
A4
A4
24
64
68
38
ENDCHAR
STARTCHAR uni01D8
ENCODING 472
SWIDTH 505 0
DWIDTH 5 0
BBX 5 9 0 0
BITMAP
10
20
50
00
50
D0
B0
A8
F0
ENDCHAR
STARTCHAR uni01D9
ENCODING 473
SWIDTH 716 0
DWIDTH 6 0
BBX 7 10 0 0
BITMAP
0A
1E
00
76
A4
A4
24
64
68
38
ENDCHAR
STARTCHAR uni01DA
ENCODING 474
SWIDTH 505 0
DWIDTH 5 0
BBX 5 9 0 0
BITMAP
38
20
50
00
50
D0
B0
A8
F0
ENDCHAR
STARTCHAR uni01DB
ENCODING 475
SWIDTH 716 0
DWIDTH 6 0
BBX 7 10 0 0
BITMAP
08
1A
00
76
A4
A4
24
64
68
38
ENDCHAR
STARTCHAR uni01DC
ENCODING 476
SWIDTH 505 0
DWIDTH 5 0
BBX 5 9 0 0
BITMAP
20
20
50
00
50
D0
B0
A8
F0
ENDCHAR
STARTCHAR uni01E4
ENCODING 484
SWIDTH 601 0
DWIDTH 5 0
BBX 5 9 0 -2
BITMAP
38
48
C0
D8
D8
70
70
90
60
ENDCHAR
STARTCHAR uni01E5
ENCODING 485
SWIDTH 507 0
DWIDTH 5 0
BBX 5 7 0 -2
BITMAP
70
D0
90
B8
F0
F0
60
ENDCHAR
STARTCHAR Gcaron
ENCODING 486
SWIDTH 578 0
DWIDTH 5 0
BBX 6 12 0 -2
BITMAP
1C
10
00
38
48
C0
C8
D8
70
70
90
60
ENDCHAR
STARTCHAR gcaron
ENCODING 487
SWIDTH 507 0
DWIDTH 5 0
BBX 5 9 0 -2
BITMAP
38
20
70
D0
90
B8
F0
60
60
ENDCHAR
STARTCHAR uni01E8
ENCODING 488
SWIDTH 601 0
DWIDTH 5 0
BBX 6 10 0 0
BITMAP
0C
08
00
7C
B0
B8
28
68
58
58
ENDCHAR
STARTCHAR uni01E9
ENCODING 489
SWIDTH 518 0
DWIDTH 5 0
BBX 5 10 0 0
BITMAP
28
10
00
40
40
50
E0
B0
B8
B0
ENDCHAR
STARTCHAR uni01EA
ENCODING 490
SWIDTH 665 0
DWIDTH 6 0
BBX 6 12 0 -2
BITMAP
10
10
00
78
B4
A4
64
4C
48
70
40
30
ENDCHAR
STARTCHAR uni01EB
ENCODING 491
SWIDTH 433 0
DWIDTH 4 0
BBX 5 7 0 -2
BITMAP
60
F8
A0
A0
C0
80
C0
ENDCHAR
STARTCHAR uni01EE
ENCODING 494
SWIDTH 525 0
DWIDTH 5 0
BBX 5 10 0 0
BITMAP
28
10
00
78
50
20
10
18
90
F0
ENDCHAR
STARTCHAR uni01EF
ENCODING 495
SWIDTH 600 0
DWIDTH 5 0
BBX 4 10 0 -2
BITMAP
30
20
00
F0
20
40
50
60
E0
C0
ENDCHAR
STARTCHAR uni01F4
ENCODING 500
SWIDTH 578 0
DWIDTH 5 0
BBX 5 12 0 -2
BITMAP
08
08
10
38
48
C0
C8
D8
70
70
90
60
ENDCHAR
STARTCHAR uni01F5
ENCODING 501
SWIDTH 507 0
DWIDTH 5 0
BBX 5 9 0 -2
BITMAP
10
20
70
D0
90
B8
F0
60
60
ENDCHAR
STARTCHAR Aringacute
ENCODING 506
SWIDTH 668 0
DWIDTH 6 0
BBX 7 11 0 -1
BITMAP
02
04
04
0C
14
7C
A8
48
48
48
40
ENDCHAR
STARTCHAR aringacute
ENCODING 507
SWIDTH 526 0
DWIDTH 5 0
BBX 5 8 0 0
BITMAP
10
30
20
70
D0
90
B8
D0
ENDCHAR
STARTCHAR AEacute
ENCODING 508
SWIDTH 764 0
DWIDTH 7 0
BBX 8 11 0 -1
BITMAP
02
02
00
0F
14
7C
AE
48
48
4E
40
ENDCHAR
STARTCHAR aeacute
ENCODING 509
SWIDTH 650 0
DWIDTH 6 0
BBX 6 7 0 0
BITMAP
08
10
7C
14
78
B4
D8
ENDCHAR
STARTCHAR Oslashacute
ENCODING 510
SWIDTH 658 0
DWIDTH 6 0
BBX 6 11 0 -1
BITMAP
0C
08
00
78
BC
B4
7C
58
58
70
20
ENDCHAR
STARTCHAR oslashacute
ENCODING 511
SWIDTH 428 0
DWIDTH 4 0
BBX 5 7 -1 0
BITMAP
08
10
38
68
50
70
E0
ENDCHAR
STARTCHAR uni0200
ENCODING 512
SWIDTH 668 0
DWIDTH 6 0
BBX 6 11 0 -1
BITMAP
14
0C
00
0C
14
7C
AC
48
48
48
40
ENDCHAR
STARTCHAR uni0201
ENCODING 513
SWIDTH 526 0
DWIDTH 5 0
BBX 5 7 0 0
BITMAP
60
50
70
D0
90
B8
D0
ENDCHAR
STARTCHAR uni0202
ENCODING 514
SWIDTH 668 0
DWIDTH 6 0
BBX 7 11 0 -1
BITMAP
06
0A
00
0C
14
7C
AC
48
48
48
40
ENDCHAR
STARTCHAR uni0203
ENCODING 515
SWIDTH 526 0
DWIDTH 5 0
BBX 5 7 0 0
BITMAP
70
00
70
D0
90
B8
D0
ENDCHAR
STARTCHAR uni0204
ENCODING 516
SWIDTH 459 0
DWIDTH 4 0
BBX 4 10 0 0
BITMAP
70
30
00
30
50
60
40
C0
D0
E0
ENDCHAR
STARTCHAR uni0205
ENCODING 517
SWIDTH 384 0
DWIDTH 3 0
BBX 4 7 0 0
BITMAP
A0
60
60
E0
C0
90
E0
ENDCHAR
STARTCHAR uni0206
ENCODING 518
SWIDTH 459 0
DWIDTH 4 0
BBX 5 10 0 0
BITMAP
18
28
00
30
58
60
40
C0
C8
F0
ENDCHAR
STARTCHAR uni0207
ENCODING 519
SWIDTH 384 0
DWIDTH 3 0
BBX 4 7 0 0
BITMAP
70
80
60
E0
C0
90
E0
ENDCHAR
STARTCHAR uni0208
ENCODING 520
SWIDTH 375 0
DWIDTH 3 0
BBX 4 10 0 0
BITMAP
60
50
00
70
A0
A0
20
60
40
40
ENDCHAR
STARTCHAR uni0209
ENCODING 521
SWIDTH 267 0
DWIDTH 2 0
BBX 4 7 -1 0
BITMAP
A0
60
20
60
40
50
60
ENDCHAR
STARTCHAR uni020A
ENCODING 522
SWIDTH 375 0
DWIDTH 3 0
BBX 4 10 0 0
BITMAP
30
50
00
70
A0
A0
20
60
40
40
ENDCHAR
STARTCHAR uni020B
ENCODING 523
SWIDTH 267 0
DWIDTH 2 0
BBX 3 7 0 0
BITMAP
E0
00
40
C0
80
A0
C0
ENDCHAR
STARTCHAR uni020C
ENCODING 524
SWIDTH 665 0
DWIDTH 6 0
BBX 6 10 0 0
BITMAP
30
28
00
78
B4
A4
64
4C
48
70
ENDCHAR
STARTCHAR uni020D
ENCODING 525
SWIDTH 433 0
DWIDTH 4 0
BBX 5 7 0 0
BITMAP
E0
60
60
F8
A0
A0
C0
ENDCHAR
STARTCHAR uni020E
ENCODING 526
SWIDTH 665 0
DWIDTH 6 0
BBX 6 10 0 0
BITMAP
18
14
00
78
B4
A4
64
4C
48
70
ENDCHAR
STARTCHAR uni020F
ENCODING 527
SWIDTH 433 0
DWIDTH 4 0
BBX 5 7 0 0
BITMAP
70
00
60
F8
A0
A0
C0
ENDCHAR
STARTCHAR uni0210
ENCODING 528
SWIDTH 601 0
DWIDTH 5 0
BBX 5 10 0 0
BITMAP
70
30
00
78
A8
B8
28
68
58
58
ENDCHAR
STARTCHAR uni0211
ENCODING 529
SWIDTH 376 0
DWIDTH 3 0
BBX 4 7 0 0
BITMAP
C0
A0
70
C0
80
80
80
ENDCHAR
STARTCHAR uni0212
ENCODING 530
SWIDTH 601 0
DWIDTH 5 0
BBX 5 10 0 0
BITMAP
18
28
00
78
A8
B8
28
68
58
58
ENDCHAR
STARTCHAR uni0213
ENCODING 531
SWIDTH 376 0
DWIDTH 3 0
BBX 4 7 0 0
BITMAP
70
80
70
C0
80
80
80
ENDCHAR
STARTCHAR uni0214
ENCODING 532
SWIDTH 716 0
DWIDTH 6 0
BBX 7 10 0 0
BITMAP
38
14
00
76
A4
A4
24
64
68
38
ENDCHAR
STARTCHAR uni0215
ENCODING 533
SWIDTH 505 0
DWIDTH 5 0
BBX 5 7 0 0
BITMAP
A0
60
50
D0
B0
A8
F0
ENDCHAR
STARTCHAR uni0216
ENCODING 534
SWIDTH 716 0
DWIDTH 6 0
BBX 7 10 0 0
BITMAP
0C
14
00
76
A4
A4
24
64
68
38
ENDCHAR
STARTCHAR uni0217
ENCODING 535
SWIDTH 505 0
DWIDTH 5 0
BBX 5 7 0 0
BITMAP
70
00
50
D0
B0
A8
F0
ENDCHAR
STARTCHAR Scommaaccent
ENCODING 536
SWIDTH 570 0
DWIDTH 5 0
BBX 5 9 0 -2
BITMAP
38
68
20
30
58
98
70
40
60
ENDCHAR
STARTCHAR scommaaccent
ENCODING 537
SWIDTH 382 0
DWIDTH 3 0
BBX 4 7 0 -2
BITMAP
60
60
E0
B0
C0
80
C0
ENDCHAR
STARTCHAR uni021A
ENCODING 538
SWIDTH 481 0
DWIDTH 4 0
BBX 6 9 0 -2
BITMAP
7C
90
B0
20
20
20
20
40
60
ENDCHAR
STARTCHAR uni021B
ENCODING 539
SWIDTH 267 0
DWIDTH 2 0
BBX 3 9 0 -2
BITMAP
20
40
C0
C0
80
A0
C0
80
80
ENDCHAR
STARTCHAR uni021E
ENCODING 542
SWIDTH 665 0
DWIDTH 6 0
BBX 6 10 0 0
BITMAP
0C
08
00
74
A4
BC
2C
68
48
48
ENDCHAR
STARTCHAR uni021F
ENCODING 543
SWIDTH 600 0
DWIDTH 5 0
BBX 5 10 0 0
BITMAP
28
10
00
40
40
70
D0
B0
A8
B0
ENDCHAR
STARTCHAR uni0237
ENCODING 567
SWIDTH 240 0
DWIDTH 2 0
BBX 5 7 -2 -2
BITMAP
10
30
20
28
30
E0
C0
ENDCHAR
STARTCHAR uni0259
ENCODING 601
SWIDTH 404 0
DWIDTH 4 0
BBX 3 5 0 0
BITMAP
60
A0
60
A0
C0
ENDCHAR
STARTCHAR uni0292
ENCODING 658
SWIDTH 442 0
DWIDTH 4 0
BBX 4 7 0 -2
BITMAP
F0
20
40
50
60
E0
C0
ENDCHAR
STARTCHAR uni02BB
ENCODING 699
SWIDTH 241 0
DWIDTH 2 0
BBX 1 2 1 5
BITMAP
80
80
ENDCHAR
STARTCHAR uni02BC
ENCODING 700
SWIDTH 228 0
DWIDTH 2 0
BBX 1 2 1 5
BITMAP
80
80
ENDCHAR
STARTCHAR circumflex
ENCODING 710
SWIDTH 293 0
DWIDTH 3 0
BBX 3 2 0 6
BITMAP
40
A0
ENDCHAR
STARTCHAR caron
ENCODING 711
SWIDTH 294 0
DWIDTH 3 0
BBX 3 2 1 6
BITMAP
E0
80
ENDCHAR
STARTCHAR uni02C9
ENCODING 713
SWIDTH 421 0
DWIDTH 4 0
BBX 3 1 1 6
BITMAP
E0
ENDCHAR
STARTCHAR uni02CA
ENCODING 714
SWIDTH 256 0
DWIDTH 2 0
BBX 2 2 1 6
BITMAP
40
80
ENDCHAR
STARTCHAR uni02CB
ENCODING 715
SWIDTH 274 0
DWIDTH 2 0
BBX 2 2 1 6
BITMAP
80
40
ENDCHAR
STARTCHAR breve
ENCODING 728
SWIDTH 431 0
DWIDTH 4 0
BBX 3 2 1 5
BITMAP
A0
C0
ENDCHAR
STARTCHAR dotaccent
ENCODING 729
SWIDTH 250 0
DWIDTH 2 0
BBX 2 2 0 6
BITMAP
40
C0
ENDCHAR
STARTCHAR ring
ENCODING 730
SWIDTH 156 0
DWIDTH 1 0
BBX 1 2 0 5
BITMAP
80
80
ENDCHAR
STARTCHAR ogonek
ENCODING 731
SWIDTH 291 0
DWIDTH 3 0
BBX 2 2 0 -2
BITMAP
C0
40
ENDCHAR
STARTCHAR tilde
ENCODING 732
SWIDTH 403 0
DWIDTH 4 0
BBX 4 1 0 6
BITMAP
F0
ENDCHAR
STARTCHAR hungarumlaut
ENCODING 733
SWIDTH 436 0
DWIDTH 4 0
BBX 3 2 1 6
BITMAP
E0
C0
ENDCHAR
STARTCHAR gravecomb
ENCODING 768
SWIDTH 0 0
DWIDTH 0 0
BBX 2 2 -2 6
BITMAP
80
40
ENDCHAR
STARTCHAR acutecomb
ENCODING 769
SWIDTH 0 0
DWIDTH 0 0
BBX 2 2 -2 6
BITMAP
40
80
ENDCHAR
STARTCHAR uni0302
ENCODING 770
SWIDTH 0 0
DWIDTH 0 0
BBX 3 2 -3 6
BITMAP
20
E0
ENDCHAR
STARTCHAR tildecomb
ENCODING 771
SWIDTH 0 0
DWIDTH 0 0
BBX 3 1 -3 6
BITMAP
E0
ENDCHAR
STARTCHAR uni0304
ENCODING 772
SWIDTH 0 0
DWIDTH 0 0
BBX 3 1 -3 6
BITMAP
E0
ENDCHAR
STARTCHAR uni0306
ENCODING 774
SWIDTH 0 0
DWIDTH 0 0
BBX 3 2 -3 5
BITMAP
A0
60
ENDCHAR
STARTCHAR uni0307
ENCODING 775
SWIDTH 0 0
DWIDTH 0 0
BBX 1 2 -1 6
BITMAP
80
80
ENDCHAR
STARTCHAR uni0308
ENCODING 776
SWIDTH 0 0
DWIDTH 0 0
BBX 2 1 -2 6
BITMAP
C0
ENDCHAR
STARTCHAR hookabovecomb
ENCODING 777
SWIDTH 0 0
DWIDTH 0 0
BBX 2 2 -2 5
BITMAP
C0
80
ENDCHAR
STARTCHAR uni030A
ENCODING 778
SWIDTH 0 0
DWIDTH 0 0
BBX 1 2 -1 5
BITMAP
80
80
ENDCHAR
STARTCHAR uni030B
ENCODING 779
SWIDTH 0 0
DWIDTH 0 0
BBX 4 2 -3 6
BITMAP
70
A0
ENDCHAR
STARTCHAR uni030C
ENCODING 780
SWIDTH 0 0
DWIDTH 0 0
BBX 3 2 -2 6
BITMAP
E0
80
ENDCHAR
STARTCHAR uni030F
ENCODING 783
SWIDTH 0 0
DWIDTH 0 0
BBX 3 2 -3 6
BITMAP
E0
60
ENDCHAR
STARTCHAR uni0311
ENCODING 785
SWIDTH 0 0
DWIDTH 0 0
BBX 3 2 -3 5
BITMAP
60
A0
ENDCHAR
STARTCHAR uni031B
ENCODING 795
SWIDTH 0 0
DWIDTH 0 0
BBX 1 2 -1 5
BITMAP
80
80
ENDCHAR
STARTCHAR dotbelowcomb
ENCODING 803
SWIDTH 0 0
DWIDTH 0 0
BBX 2 2 -2 -2
BITMAP
40
C0
ENDCHAR
STARTCHAR uni0324
ENCODING 804
SWIDTH 0 0
DWIDTH 0 0
BBX 3 1 -4 -2
BITMAP
A0
ENDCHAR
STARTCHAR uni0326
ENCODING 806
SWIDTH 0 0
DWIDTH 0 0
BBX 1 2 -2 -3
BITMAP
80
80
ENDCHAR
STARTCHAR uni0327
ENCODING 807
SWIDTH 0 0
DWIDTH 0 0
BBX 2 3 -3 -2
BITMAP
80
40
80
ENDCHAR
STARTCHAR uni0328
ENCODING 808
SWIDTH 0 0
DWIDTH 0 0
BBX 2 2 -3 -2
BITMAP
80
C0
ENDCHAR
STARTCHAR uni032E
ENCODING 814
SWIDTH 0 0
DWIDTH 0 0
BBX 3 1 -4 -2
BITMAP
E0
ENDCHAR
STARTCHAR uni0331
ENCODING 817
SWIDTH 0 0
DWIDTH 0 0
BBX 3 1 -4 -2
BITMAP
E0
ENDCHAR
STARTCHAR uni0335
ENCODING 821
SWIDTH 0 0
DWIDTH 0 0
BBX 3 1 -3 2
BITMAP
E0
ENDCHAR
STARTCHAR uni0394
ENCODING 916
SWIDTH 619 0
DWIDTH 6 0
BBX 5 7 0 0
BITMAP
18
18
28
48
48
88
F8
ENDCHAR
STARTCHAR uni03A9
ENCODING 937
SWIDTH 745 0
DWIDTH 7 0
BBX 6 7 0 0
BITMAP
1C
24
44
44
44
48
FC
ENDCHAR
STARTCHAR uni03BC
ENCODING 956
SWIDTH 505 0
DWIDTH 5 0
BBX 6 6 -1 -1
BITMAP
28
68
58
54
78
C0
ENDCHAR
STARTCHAR pi
ENCODING 960
SWIDTH 530 0
DWIDTH 5 0
BBX 5 5 0 0
BITMAP
F8
90
90
A0
B0
ENDCHAR
STARTCHAR uni0400
ENCODING 1024
SWIDTH 459 0
DWIDTH 4 0
BBX 4 10 0 0
BITMAP
20
10
00
30
50
60
40
C0
D0
E0
ENDCHAR
STARTCHAR uni0401
ENCODING 1025
SWIDTH 459 0
DWIDTH 4 0
BBX 5 9 0 0
BITMAP
28
00
30
58
60
40
C0
C8
F0
ENDCHAR
STARTCHAR uni0402
ENCODING 1026
SWIDTH 725 0
DWIDTH 7 0
BBX 7 9 0 -2
BITMAP
7E
90
BC
24
24
2C
68
08
30
ENDCHAR
STARTCHAR uni0403
ENCODING 1027
SWIDTH 400 0
DWIDTH 4 0
BBX 6 10 0 0
BITMAP
0C
08
00
7C
A0
A0
20
60
60
40
ENDCHAR
STARTCHAR uni0404
ENCODING 1028
SWIDTH 497 0
DWIDTH 4 0
BBX 5 7 0 0
BITMAP
38
48
70
C0
C0
C8
70
ENDCHAR
STARTCHAR uni0405
ENCODING 1029
SWIDTH 570 0
DWIDTH 5 0
BBX 5 7 0 0
BITMAP
38
68
20
30
58
98
70
ENDCHAR
STARTCHAR uni0406
ENCODING 1030
SWIDTH 374 0
DWIDTH 3 0
BBX 4 7 0 0
BITMAP
70
A0
A0
20
60
60
40
ENDCHAR
STARTCHAR uni0407
ENCODING 1031
SWIDTH 375 0
DWIDTH 3 0
BBX 4 9 0 0
BITMAP
30
00
70
A0
A0
20
60
40
40
ENDCHAR
STARTCHAR uni0408
ENCODING 1032
SWIDTH 536 0
DWIDTH 5 0
BBX 5 9 0 -2
BITMAP
18
28
38
10
10
10
50
B0
60
ENDCHAR
STARTCHAR uni0409
ENCODING 1033
SWIDTH 817 0
DWIDTH 7 0
BBX 7 8 0 -1
BITMAP
18
28
5C
52
92
92
9C
A0
ENDCHAR
STARTCHAR uni040A
ENCODING 1034
SWIDTH 931 0
DWIDTH 8 0
BBX 8 7 0 0
BITMAP
74
A4
BE
29
69
49
4E
ENDCHAR
STARTCHAR uni040B
ENCODING 1035
SWIDTH 745 0
DWIDTH 7 0
BBX 7 7 0 0
BITMAP
7E
90
BC
24
24
2C
6C
ENDCHAR
STARTCHAR uni040C
ENCODING 1036
SWIDTH 635 0
DWIDTH 6 0
BBX 6 10 0 0
BITMAP
0C
08
00
7C
B0
B8
28
68
58
58
ENDCHAR
STARTCHAR uni040D
ENCODING 1037
SWIDTH 705 0
DWIDTH 6 0
BBX 7 10 0 0
BITMAP
08
08
00
76
A4
AC
34
7C
68
48
ENDCHAR
STARTCHAR uni040E
ENCODING 1038
SWIDTH 644 0
DWIDTH 6 0
BBX 6 10 0 0
BITMAP
14
08
00
74
94
94
18
18
10
30
ENDCHAR
STARTCHAR uni040F
ENCODING 1039
SWIDTH 665 0
DWIDTH 6 0
BBX 6 10 0 -3
BITMAP
74
A4
AC
2C
68
48
78
20
20
20
ENDCHAR
STARTCHAR uni0410
ENCODING 1040
SWIDTH 668 0
DWIDTH 6 0
BBX 6 8 0 -1
BITMAP
0C
14
7C
AC
48
48
48
40
ENDCHAR
STARTCHAR uni0411
ENCODING 1041
SWIDTH 638 0
DWIDTH 6 0
BBX 6 7 0 0
BITMAP
7C
A0
B8
68
48
48
70
ENDCHAR
STARTCHAR uni0412
ENCODING 1042
SWIDTH 641 0
DWIDTH 6 0
BBX 5 7 0 0
BITMAP
78
A8
B8
28
68
48
58
ENDCHAR
STARTCHAR uni0413
ENCODING 1043
SWIDTH 400 0
DWIDTH 4 0
BBX 6 7 0 0
BITMAP
7C
A0
A0
20
60
60
40
ENDCHAR
STARTCHAR uni0414
ENCODING 1044
SWIDTH 669 0
DWIDTH 6 0
BBX 6 7 0 0
BITMAP
78
A4
A4
64
EC
C8
F0
ENDCHAR
STARTCHAR uni0415
ENCODING 1045
SWIDTH 459 0
DWIDTH 4 0
BBX 4 7 0 0
BITMAP
30
50
60
40
C0
D0
E0
ENDCHAR
STARTCHAR uni0416
ENCODING 1046
SWIDTH 777 0
DWIDTH 7 0
BBX 7 7 0 0
BITMAP
6A
3C
38
54
54
D4
B4
ENDCHAR
STARTCHAR uni0417
ENCODING 1047
SWIDTH 525 0
DWIDTH 5 0
BBX 4 7 0 0
BITMAP
70
10
60
10
10
90
E0
ENDCHAR
STARTCHAR uni0418
ENCODING 1048
SWIDTH 705 0
DWIDTH 6 0
BBX 7 7 0 0
BITMAP
76
A4
AC
34
7C
68
48
ENDCHAR
STARTCHAR uni0419
ENCODING 1049
SWIDTH 705 0
DWIDTH 6 0
BBX 7 10 0 0
BITMAP
14
18
00
76
A4
AC
34
7C
68
48
ENDCHAR
STARTCHAR uni041A
ENCODING 1050
SWIDTH 635 0
DWIDTH 6 0
BBX 6 7 0 0
BITMAP
7C
B0
B8
28
68
58
58
ENDCHAR
STARTCHAR uni041B
ENCODING 1051
SWIDTH 549 0
DWIDTH 5 0
BBX 5 8 0 -1
BITMAP
18
28
58
58
90
90
90
A0
ENDCHAR
STARTCHAR uni041C
ENCODING 1052
SWIDTH 787 0
DWIDTH 7 0
BBX 6 7 1 0
BITMAP
64
AC
EC
6C
BC
A8
A8
ENDCHAR
STARTCHAR uni041D
ENCODING 1053
SWIDTH 665 0
DWIDTH 6 0
BBX 6 7 0 0
BITMAP
74
A4
BC
2C
68
48
48
ENDCHAR
STARTCHAR uni041E
ENCODING 1054
SWIDTH 665 0
DWIDTH 6 0
BBX 6 7 0 0
BITMAP
78
B4
A4
64
4C
48
70
ENDCHAR
STARTCHAR uni041F
ENCODING 1055
SWIDTH 688 0
DWIDTH 6 0
BBX 7 7 0 0
BITMAP
7E
A4
AC
2C
68
68
48
ENDCHAR
STARTCHAR uni0420
ENCODING 1056
SWIDTH 573 0
DWIDTH 5 0
BBX 5 7 0 0
BITMAP
78
A8
A8
38
60
40
40
ENDCHAR
STARTCHAR uni0421
ENCODING 1057
SWIDTH 497 0
DWIDTH 4 0
BBX 5 7 0 0
BITMAP
38
48
40
C0
C0
C8
70
ENDCHAR
STARTCHAR uni0422
ENCODING 1058
SWIDTH 481 0
DWIDTH 4 0
BBX 6 7 0 0
BITMAP
7C
90
B0
20
20
20
60
ENDCHAR
STARTCHAR uni0423
ENCODING 1059
SWIDTH 644 0
DWIDTH 6 0
BBX 6 7 0 0
BITMAP
74
94
94
18
18
10
30
ENDCHAR
STARTCHAR uni0424
ENCODING 1060
SWIDTH 786 0
DWIDTH 7 0
BBX 7 8 0 0
BITMAP
38
58
3C
D2
92
D4
78
30
ENDCHAR
STARTCHAR uni0425
ENCODING 1061
SWIDTH 620 0
DWIDTH 6 0
BBX 6 7 0 0
BITMAP
74
B8
90
10
10
38
58
ENDCHAR
STARTCHAR uni0426
ENCODING 1062
SWIDTH 692 0
DWIDTH 6 0
BBX 6 8 0 -1
BITMAP
74
A4
AC
2C
68
68
68
1C
ENDCHAR
STARTCHAR uni0427
ENCODING 1063
SWIDTH 695 0
DWIDTH 6 0
BBX 7 7 0 0
BITMAP
76
A4
A4
3C
0C
08
08
ENDCHAR
STARTCHAR uni0428
ENCODING 1064
SWIDTH 906 0
DWIDTH 8 0
BBX 8 7 0 0
BITMAP
75
AD
A9
2B
6A
4A
7E
ENDCHAR
STARTCHAR uni0429
ENCODING 1065
SWIDTH 934 0
DWIDTH 8 0
BBX 9 8 0 -1
BITMAP
7500
AD00
A900
2B00
6A00
4A00
7A00
0F80
ENDCHAR
STARTCHAR uni042A
ENCODING 1066
SWIDTH 714 0
DWIDTH 6 0
BBX 6 7 0 0
BITMAP
70
90
BC
24
24
24
38
ENDCHAR
STARTCHAR uni042B
ENCODING 1067
SWIDTH 909 0
DWIDTH 8 0
BBX 8 7 0 0
BITMAP
71
A1
B9
2B
6B
4A
5A
ENDCHAR
STARTCHAR uni042C
ENCODING 1068
SWIDTH 640 0
DWIDTH 6 0
BBX 5 7 0 0
BITMAP
70
A0
B8
28
68
48
58
ENDCHAR
STARTCHAR uni042D
ENCODING 1069
SWIDTH 544 0
DWIDTH 5 0
BBX 5 7 0 0
BITMAP
70
98
78
18
10
B0
E0
ENDCHAR
STARTCHAR uni042E
ENCODING 1070
SWIDTH 946 0
DWIDTH 9 0
BBX 8 7 0 0
BITMAP
77
AD
B9
29
79
4B
4E
ENDCHAR
STARTCHAR uni042F
ENCODING 1071
SWIDTH 630 0
DWIDTH 6 0
BBX 6 7 0 0
BITMAP
3C
5C
50
70
50
D0
B0
ENDCHAR
STARTCHAR uni0430
ENCODING 1072
SWIDTH 526 0
DWIDTH 5 0
BBX 5 5 0 0
BITMAP
70
D0
90
B8
D0
ENDCHAR
STARTCHAR uni0431
ENCODING 1073
SWIDTH 430 0
DWIDTH 4 0
BBX 5 7 0 0
BITMAP
78
20
60
D0
90
A0
C0
ENDCHAR
STARTCHAR uni0432
ENCODING 1074
SWIDTH 449 0
DWIDTH 4 0
BBX 5 7 0 0
BITMAP
30
50
50
F8
90
A0
E0
ENDCHAR
STARTCHAR uni0433
ENCODING 1075
SWIDTH 375 0
DWIDTH 3 0
BBX 4 5 0 0
BITMAP
60
A0
40
90
E0
ENDCHAR
STARTCHAR uni0434
ENCODING 1076
SWIDTH 507 0
DWIDTH 5 0
BBX 5 7 0 -2
BITMAP
70
D0
90
B8
F0
60
60
ENDCHAR
STARTCHAR uni0435
ENCODING 1077
SWIDTH 384 0
DWIDTH 3 0
BBX 4 5 0 0
BITMAP
60
E0
C0
90
E0
ENDCHAR
STARTCHAR uni0436
ENCODING 1078
SWIDTH 882 0
DWIDTH 8 0
BBX 8 5 0 0
BITMAP
CB
3D
3C
D5
D6
ENDCHAR
STARTCHAR uni0437
ENCODING 1079
SWIDTH 498 0
DWIDTH 4 0
BBX 5 7 0 -2
BITMAP
70
B0
B0
48
30
E0
60
ENDCHAR
STARTCHAR uni0438
ENCODING 1080
SWIDTH 505 0
DWIDTH 5 0
BBX 5 5 0 0
BITMAP
50
D0
B0
A8
F0
ENDCHAR
STARTCHAR uni0439
ENCODING 1081
SWIDTH 505 0
DWIDTH 5 0
BBX 5 7 0 0
BITMAP
50
60
50
D0
B0
A8
F0
ENDCHAR
STARTCHAR uni043A
ENCODING 1082
SWIDTH 501 0
DWIDTH 5 0
BBX 5 5 0 0
BITMAP
50
E0
F0
A8
B0
ENDCHAR
STARTCHAR uni043B
ENCODING 1083
SWIDTH 558 0
DWIDTH 5 0
BBX 5 5 0 0
BITMAP
38
30
50
D8
D8
ENDCHAR
STARTCHAR uni043C
ENCODING 1084
SWIDTH 827 0
DWIDTH 7 0
BBX 8 5 0 0
BITMAP
36
36
5E
DD
D6
ENDCHAR
STARTCHAR uni043D
ENCODING 1085
SWIDTH 507 0
DWIDTH 5 0
BBX 5 5 0 0
BITMAP
50
D0
F0
A8
B0
ENDCHAR
STARTCHAR uni043E
ENCODING 1086
SWIDTH 439 0
DWIDTH 4 0
BBX 5 5 0 0
BITMAP
60
E8
90
A0
C0
ENDCHAR
STARTCHAR uni043F
ENCODING 1087
SWIDTH 505 0
DWIDTH 5 0
BBX 5 5 0 0
BITMAP
70
D0
B0
A8
B0
ENDCHAR
STARTCHAR uni0440
ENCODING 1088
SWIDTH 468 0
DWIDTH 4 0
BBX 5 8 -1 -2
BITMAP
20
78
68
48
58
70
40
C0
ENDCHAR
STARTCHAR uni0441
ENCODING 1089
SWIDTH 384 0
DWIDTH 3 0
BBX 4 5 0 0
BITMAP
60
E0
80
90
E0
ENDCHAR
STARTCHAR uni0442
ENCODING 1090
SWIDTH 752 0
DWIDTH 7 0
BBX 7 5 0 0
BITMAP
7C
D4
B4
AE
A6
ENDCHAR
STARTCHAR uni0443
ENCODING 1091
SWIDTH 486 0
DWIDTH 4 0
BBX 5 7 0 -2
BITMAP
50
D0
B0
A8
F0
60
E0
ENDCHAR
STARTCHAR uni0444
ENCODING 1092
SWIDTH 738 0
DWIDTH 7 0
BBX 6 9 0 -2
BITMAP
18
10
7C
D4
94
B4
F8
20
20
ENDCHAR
STARTCHAR uni0445
ENCODING 1093
SWIDTH 522 0
DWIDTH 5 0
BBX 5 6 0 0
BITMAP
10
68
B0
A0
68
B0
ENDCHAR
STARTCHAR uni0446
ENCODING 1094
SWIDTH 535 0
DWIDTH 5 0
BBX 4 7 0 -2
BITMAP
50
D0
B0
A0
F0
70
80
ENDCHAR
STARTCHAR uni0447
ENCODING 1095
SWIDTH 505 0
DWIDTH 5 0
BBX 5 5 0 0
BITMAP
50
D0
F0
28
30
ENDCHAR
STARTCHAR uni0448
ENCODING 1096
SWIDTH 752 0
DWIDTH 7 0
BBX 7 5 0 0
BITMAP
54
D4
B4
AE
F4
ENDCHAR
STARTCHAR uni0449
ENCODING 1097
SWIDTH 782 0
DWIDTH 7 0
BBX 7 7 0 -2
BITMAP
54
D4
B4
AC
F6
1C
10
ENDCHAR
STARTCHAR uni044A
ENCODING 1098
SWIDTH 448 0
DWIDTH 4 0
BBX 4 5 0 0
BITMAP
E0
60
B0
A0
E0
ENDCHAR
STARTCHAR uni044B
ENCODING 1099
SWIDTH 655 0
DWIDTH 6 0
BBX 6 5 0 0
BITMAP
58
E8
A8
AC
CC
ENDCHAR
STARTCHAR uni044C
ENCODING 1100
SWIDTH 448 0
DWIDTH 4 0
BBX 4 5 0 0
BITMAP
40
E0
B0
B0
E0
ENDCHAR
STARTCHAR uni044D
ENCODING 1101
SWIDTH 413 0
DWIDTH 4 0
BBX 3 5 0 0
BITMAP
60
A0
60
A0
C0
ENDCHAR
STARTCHAR uni044E
ENCODING 1102
SWIDTH 675 0
DWIDTH 6 0
BBX 7 5 0 0
BITMAP
58
F6
E4
A8
B8
ENDCHAR
STARTCHAR uni044F
ENCODING 1103
SWIDTH 527 0
DWIDTH 5 0
BBX 5 5 0 0
BITMAP
70
50
70
F8
D0
ENDCHAR
STARTCHAR uni0450
ENCODING 1104
SWIDTH 384 0
DWIDTH 3 0
BBX 4 8 0 0
BITMAP
40
20
00
60
E0
C0
90
E0
ENDCHAR
STARTCHAR uni0451
ENCODING 1105
SWIDTH 384 0
DWIDTH 3 0
BBX 4 7 0 0
BITMAP
50
00
60
E0
C0
90
E0
ENDCHAR
STARTCHAR uni0452
ENCODING 1106
SWIDTH 491 0
DWIDTH 4 0
BBX 5 9 0 -2
BITMAP
40
E0
F0
F0
B0
A8
B0
E0
60
ENDCHAR
STARTCHAR uni0453
ENCODING 1107
SWIDTH 375 0
DWIDTH 3 0
BBX 4 8 0 0
BITMAP
30
20
00
60
A0
40
90
E0
ENDCHAR
STARTCHAR uni0454
ENCODING 1108
SWIDTH 384 0
DWIDTH 3 0
BBX 4 5 0 0
BITMAP
60
E0
C0
90
E0
ENDCHAR
STARTCHAR uni0455
ENCODING 1109
SWIDTH 382 0
DWIDTH 3 0
BBX 4 5 0 0
BITMAP
60
60
E0
B0
C0
ENDCHAR
STARTCHAR uni0456
ENCODING 1110
SWIDTH 267 0
DWIDTH 2 0
BBX 3 7 0 0
BITMAP
40
40
40
C0
80
A0
C0
ENDCHAR
STARTCHAR uni0457
ENCODING 1111
SWIDTH 267 0
DWIDTH 2 0
BBX 3 7 0 0
BITMAP
A0
00
40
C0
80
A0
C0
ENDCHAR
STARTCHAR uni0458
ENCODING 1112
SWIDTH 240 0
DWIDTH 2 0
BBX 5 9 -2 -2
BITMAP
10
10
10
30
20
28
30
E0
C0
ENDCHAR
STARTCHAR uni0459
ENCODING 1113
SWIDTH 745 0
DWIDTH 7 0
BBX 6 5 0 0
BITMAP
38
3C
54
D4
D8
ENDCHAR
STARTCHAR uni045A
ENCODING 1114
SWIDTH 694 0
DWIDTH 6 0
BBX 6 5 0 0
BITMAP
50
D0
FC
A4
B8
ENDCHAR
STARTCHAR uni045B
ENCODING 1115
SWIDTH 505 0
DWIDTH 5 0
BBX 5 7 0 0
BITMAP
40
E0
C0
F0
F0
A8
B0
ENDCHAR
STARTCHAR uni045C
ENCODING 1116
SWIDTH 501 0
DWIDTH 5 0
BBX 5 8 0 0
BITMAP
10
20
00
50
E0
F0
A8
B0
ENDCHAR
STARTCHAR uni045D
ENCODING 1117
SWIDTH 505 0
DWIDTH 5 0
BBX 5 8 0 0
BITMAP
20
20
00
50
D0
B0
A8
F0
ENDCHAR
STARTCHAR uni045E
ENCODING 1118
SWIDTH 486 0
DWIDTH 4 0
BBX 5 9 0 -2
BITMAP
50
60
50
D0
B0
A8
F0
60
E0
ENDCHAR
STARTCHAR uni045F
ENCODING 1119
SWIDTH 505 0
DWIDTH 5 0
BBX 5 7 0 -2
BITMAP
50
D0
B0
A8
F0
40
60
ENDCHAR
STARTCHAR uni0462
ENCODING 1122
SWIDTH 659 0
DWIDTH 6 0
BBX 6 7 0 0
BITMAP
30
FC
B8
28
68
48
78
ENDCHAR
STARTCHAR uni0463
ENCODING 1123
SWIDTH 692 0
DWIDTH 6 0
BBX 6 5 0 0
BITMAP
70
DC
B4
AC
B8
ENDCHAR
STARTCHAR uni046A
ENCODING 1130
SWIDTH 834 0
DWIDTH 8 0
BBX 7 7 0 0
BITMAP
3E
54
9C
3E
5A
5A
D6
ENDCHAR
STARTCHAR uni046B
ENCODING 1131
SWIDTH 750 0
DWIDTH 7 0
BBX 6 5 0 0
BITMAP
7C
58
7C
54
FC
ENDCHAR
STARTCHAR uni0472
ENCODING 1138
SWIDTH 665 0
DWIDTH 6 0
BBX 6 7 0 0
BITMAP
78
B4
A4
7C
4C
48
70
ENDCHAR
STARTCHAR uni0473
ENCODING 1139
SWIDTH 439 0
DWIDTH 4 0
BBX 5 5 0 0
BITMAP
60
F8
E0
A0
C0
ENDCHAR
STARTCHAR uni0474
ENCODING 1140
SWIDTH 668 0
DWIDTH 6 0
BBX 7 7 0 0
BITMAP
76
B4
B8
38
30
30
30
ENDCHAR
STARTCHAR uni0475
ENCODING 1141
SWIDTH 414 0
DWIDTH 4 0
BBX 4 5 0 0
BITMAP
70
D0
90
A0
C0
ENDCHAR
STARTCHAR uni0490
ENCODING 1168
SWIDTH 431 0
DWIDTH 4 0
BBX 6 8 0 0
BITMAP
04
7C
A0
A0
20
60
40
40
ENDCHAR
STARTCHAR uni0491
ENCODING 1169
SWIDTH 342 0
DWIDTH 3 0
BBX 3 6 0 0
BITMAP
20
60
C0
80
80
80
ENDCHAR
STARTCHAR uni0492
ENCODING 1170
SWIDTH 400 0
DWIDTH 4 0
BBX 6 7 0 0
BITMAP
7C
A0
A0
70
60
40
40
ENDCHAR
STARTCHAR uni0493
ENCODING 1171
SWIDTH 375 0
DWIDTH 3 0
BBX 4 5 0 0
BITMAP
60
A0
E0
90
E0
ENDCHAR
STARTCHAR uni0494
ENCODING 1172
SWIDTH 665 0
DWIDTH 6 0
BBX 6 7 0 0
BITMAP
7C
A0
B8
28
6C
48
58
ENDCHAR
STARTCHAR uni0495
ENCODING 1173
SWIDTH 486 0
DWIDTH 4 0
BBX 5 7 0 -2
BITMAP
70
E0
B0
A8
B0
E0
C0
ENDCHAR
STARTCHAR uni0496
ENCODING 1174
SWIDTH 777 0
DWIDTH 7 0
BBX 7 10 0 -3
BITMAP
6A
3C
38
54
54
D4
B4
08
04
04
ENDCHAR
STARTCHAR uni0497
ENCODING 1175
SWIDTH 882 0
DWIDTH 8 0
BBX 8 7 0 -2
BITMAP
CB
3D
3C
D5
D6
02
02
ENDCHAR
STARTCHAR uni0498
ENCODING 1176
SWIDTH 525 0
DWIDTH 5 0
BBX 4 10 0 -3
BITMAP
70
10
60
10
10
90
E0
40
60
20
ENDCHAR
STARTCHAR uni0499
ENCODING 1177
SWIDTH 498 0
DWIDTH 4 0
BBX 5 9 0 -4
BITMAP
70
B0
B0
48
30
E0
60
40
40
ENDCHAR
STARTCHAR uni049A
ENCODING 1178
SWIDTH 635 0
DWIDTH 6 0
BBX 6 10 0 -3
BITMAP
7C
A8
B0
B8
68
78
58
10
18
08
ENDCHAR
STARTCHAR uni049B
ENCODING 1179
SWIDTH 501 0
DWIDTH 5 0
BBX 5 7 0 -2
BITMAP
50
E0
F0
A8
B0
10
30
ENDCHAR
STARTCHAR uni049C
ENCODING 1180
SWIDTH 721 0
DWIDTH 6 0
BBX 7 7 0 0
BITMAP
76
B8
B0
28
68
48
48
ENDCHAR
STARTCHAR uni049D
ENCODING 1181
SWIDTH 551 0
DWIDTH 5 0
BBX 5 5 0 0
BITMAP
58
E0
B0
D8
98
ENDCHAR
STARTCHAR uni04A0
ENCODING 1184
SWIDTH 691 0
DWIDTH 6 0
BBX 7 7 0 0
BITMAP
76
98
B8
28
28
28
68
ENDCHAR
STARTCHAR uni04A1
ENCODING 1185
SWIDTH 676 0
DWIDTH 6 0
BBX 6 5 0 0
BITMAP
EC
B0
B8
2C
6C
ENDCHAR
STARTCHAR uni04A2
ENCODING 1186
SWIDTH 665 0
DWIDTH 6 0
BBX 6 8 0 -1
BITMAP
74
A4
BC
28
68
48
48
04
ENDCHAR
STARTCHAR uni04A3
ENCODING 1187
SWIDTH 507 0
DWIDTH 5 0
BBX 5 7 0 -2
BITMAP
50
D0
F0
A8
B0
10
10
ENDCHAR
STARTCHAR uni04A4
ENCODING 1188
SWIDTH 689 0
DWIDTH 6 0
BBX 8 7 0 0
BITMAP
77
A4
BC
2C
68
48
48
ENDCHAR
STARTCHAR uni04A5
ENCODING 1189
SWIDTH 681 0
DWIDTH 6 0
BBX 6 5 0 0
BITMAP
5C
D0
F0
A8
B0
ENDCHAR
STARTCHAR uni04AA
ENCODING 1194
SWIDTH 497 0
DWIDTH 4 0
BBX 5 10 0 -3
BITMAP
38
48
40
C0
C0
C8
F0
20
20
20
ENDCHAR
STARTCHAR uni04AB
ENCODING 1195
SWIDTH 384 0
DWIDTH 3 0
BBX 4 7 0 -2
BITMAP
60
E0
80
90
E0
40
40
ENDCHAR
STARTCHAR uni04AE
ENCODING 1198
SWIDTH 620 0
DWIDTH 6 0
BBX 6 7 0 0
BITMAP
74
B4
98
18
10
10
30
ENDCHAR
STARTCHAR uni04AF
ENCODING 1199
SWIDTH 480 0
DWIDTH 4 0
BBX 4 8 0 -3
BITMAP
D0
50
50
60
60
40
40
80
ENDCHAR
STARTCHAR uni04B0
ENCODING 1200
SWIDTH 620 0
DWIDTH 6 0
BBX 6 7 0 0
BITMAP
74
B4
98
18
38
10
30
ENDCHAR
STARTCHAR uni04B1
ENCODING 1201
SWIDTH 480 0
DWIDTH 4 0
BBX 4 8 0 -3
BITMAP
D0
50
50
60
E0
40
40
80
ENDCHAR
STARTCHAR uni04B6
ENCODING 1206
SWIDTH 695 0
DWIDTH 6 0
BBX 7 8 0 -1
BITMAP
76
A4
A4
3C
0C
08
08
06
ENDCHAR
STARTCHAR uni04B7
ENCODING 1207
SWIDTH 505 0
DWIDTH 5 0
BBX 5 7 0 -2
BITMAP
50
D0
F0
28
30
10
30
ENDCHAR
STARTCHAR uni04B8
ENCODING 1208
SWIDTH 715 0
DWIDTH 6 0
BBX 7 7 0 0
BITMAP
76
A4
B4
3C
14
0C
08
ENDCHAR
STARTCHAR uni04B9
ENCODING 1209
SWIDTH 545 0
DWIDTH 5 0
BBX 5 5 0 0
BITMAP
50
F0
F0
58
18
ENDCHAR
STARTCHAR uni04BA
ENCODING 1210
SWIDTH 679 0
DWIDTH 6 0
BBX 6 7 0 0
BITMAP
70
A0
A0
3C
6C
68
48
ENDCHAR
STARTCHAR uni04BB
ENCODING 1211
SWIDTH 505 0
DWIDTH 5 0
BBX 5 7 0 0
BITMAP
40
40
70
D0
B0
A8
B0
ENDCHAR
STARTCHAR uni04C0
ENCODING 1216
SWIDTH 375 0
DWIDTH 3 0
BBX 4 7 0 0
BITMAP
70
A0
A0
20
60
40
40
ENDCHAR
STARTCHAR uni04C1
ENCODING 1217
SWIDTH 777 0
DWIDTH 7 0
BBX 7 10 0 0
BITMAP
14
18
00
6A
3C
38
54
54
D4
B4
ENDCHAR
STARTCHAR uni04C2
ENCODING 1218
SWIDTH 882 0
DWIDTH 8 0
BBX 8 7 0 0
BITMAP
14
18
CB
3D
3C
D5
D6
ENDCHAR
STARTCHAR uni04CB
ENCODING 1227
SWIDTH 695 0
DWIDTH 6 0
BBX 7 8 0 -1
BITMAP
76
A4
A4
6C
1C
08
08
30
ENDCHAR
STARTCHAR uni04CC
ENCODING 1228
SWIDTH 516 0
DWIDTH 5 0
BBX 5 7 0 -2
BITMAP
50
D0
F0
38
10
60
80
ENDCHAR
STARTCHAR uni04CF
ENCODING 1231
SWIDTH 267 0
DWIDTH 2 0
BBX 3 7 0 0
BITMAP
40
40
40
C0
80
A0
C0
ENDCHAR
STARTCHAR uni04D0
ENCODING 1232
SWIDTH 668 0
DWIDTH 6 0
BBX 7 11 0 -1
BITMAP
0A
04
00
0C
14
7C
AC
48
48
48
40
ENDCHAR
STARTCHAR uni04D1
ENCODING 1233
SWIDTH 526 0
DWIDTH 5 0
BBX 5 7 0 0
BITMAP
28
30
70
D0
90
B8
D0
ENDCHAR
STARTCHAR uni04D2
ENCODING 1234
SWIDTH 668 0
DWIDTH 6 0
BBX 7 10 0 -1
BITMAP
0E
00
0C
14
7C
AC
48
48
48
40
ENDCHAR
STARTCHAR uni04D3
ENCODING 1235
SWIDTH 526 0
DWIDTH 5 0
BBX 5 7 0 0
BITMAP
30
00
70
D0
90
B8
D0
ENDCHAR
STARTCHAR uni04D4
ENCODING 1236
SWIDTH 764 0
DWIDTH 7 0
BBX 8 8 0 -1
BITMAP
0F
14
7C
AE
48
48
4E
40
ENDCHAR
STARTCHAR uni04D5
ENCODING 1237
SWIDTH 650 0
DWIDTH 6 0
BBX 6 5 0 0
BITMAP
7C
14
78
B4
D8
ENDCHAR
STARTCHAR uni04D6
ENCODING 1238
SWIDTH 459 0
DWIDTH 4 0
BBX 5 10 0 0
BITMAP
28
30
00
30
58
60
40
C0
C8
F0
ENDCHAR
STARTCHAR uni04D7
ENCODING 1239
SWIDTH 384 0
DWIDTH 3 0
BBX 4 7 0 0
BITMAP
50
60
60
E0
C0
90
E0
ENDCHAR
STARTCHAR uni04D8
ENCODING 1240
SWIDTH 544 0
DWIDTH 5 0
BBX 5 7 0 0
BITMAP
70
58
18
38
50
90
E0
ENDCHAR
STARTCHAR uni04D9
ENCODING 1241
SWIDTH 404 0
DWIDTH 4 0
BBX 3 5 0 0
BITMAP
60
A0
60
A0
C0
ENDCHAR
STARTCHAR uni04DC
ENCODING 1244
SWIDTH 777 0
DWIDTH 7 0
BBX 7 9 0 0
BITMAP
14
00
6A
3C
38
54
54
D4
B4
ENDCHAR
STARTCHAR uni04DD
ENCODING 1245
SWIDTH 882 0
DWIDTH 8 0
BBX 8 7 0 0
BITMAP
14
00
CB
3D
3C
D5
D6
ENDCHAR
STARTCHAR uni04DE
ENCODING 1246
SWIDTH 525 0
DWIDTH 5 0
BBX 5 9 0 0
BITMAP
28
00
70
10
60
10
10
90
E0
ENDCHAR
STARTCHAR uni04DF
ENCODING 1247
SWIDTH 498 0
DWIDTH 4 0
BBX 5 9 0 -2
BITMAP
50
00
70
B0
B0
48
30
E0
60
ENDCHAR
STARTCHAR uni04E2
ENCODING 1250
SWIDTH 705 0
DWIDTH 6 0
BBX 7 9 0 0
BITMAP
1C
00
76
A4
AC
34
7C
68
48
ENDCHAR
STARTCHAR uni04E3
ENCODING 1251
SWIDTH 505 0
DWIDTH 5 0
BBX 5 7 0 0
BITMAP
70
00
50
D0
B0
A8
F0
ENDCHAR
STARTCHAR uni04E4
ENCODING 1252
SWIDTH 705 0
DWIDTH 6 0
BBX 7 9 0 0
BITMAP
14
00
76
A4
AC
34
7C
68
48
ENDCHAR
STARTCHAR uni04E5
ENCODING 1253
SWIDTH 505 0
DWIDTH 5 0
BBX 5 7 0 0
BITMAP
50
00
50
D0
B0
A8
F0
ENDCHAR
STARTCHAR uni04E6
ENCODING 1254
SWIDTH 665 0
DWIDTH 6 0
BBX 6 9 0 0
BITMAP
14
00
78
B4
A4
64
4C
48
70
ENDCHAR
STARTCHAR uni04E7
ENCODING 1255
SWIDTH 439 0
DWIDTH 4 0
BBX 5 7 0 0
BITMAP
50
00
60
E8
90
A0
C0
ENDCHAR
STARTCHAR uni04E8
ENCODING 1256
SWIDTH 665 0
DWIDTH 6 0
BBX 6 7 0 0
BITMAP
78
B4
A4
7C
4C
48
70
ENDCHAR
STARTCHAR uni04E9
ENCODING 1257
SWIDTH 439 0
DWIDTH 4 0
BBX 5 5 0 0
BITMAP
60
E8
F0
A0
C0
ENDCHAR
STARTCHAR uni04EE
ENCODING 1262
SWIDTH 644 0
DWIDTH 6 0
BBX 6 9 0 0
BITMAP
1C
00
74
94
94
18
18
10
30
ENDCHAR
STARTCHAR uni04EF
ENCODING 1263
SWIDTH 486 0
DWIDTH 4 0
BBX 5 9 0 -2
BITMAP
70
00
50
D0
B0
A8
F0
60
E0
ENDCHAR
STARTCHAR uni04F0
ENCODING 1264
SWIDTH 644 0
DWIDTH 6 0
BBX 6 9 0 0
BITMAP
1C
00
74
94
94
18
18
10
30
ENDCHAR
STARTCHAR uni04F1
ENCODING 1265
SWIDTH 486 0
DWIDTH 4 0
BBX 5 9 0 -2
BITMAP
50
00
50
D0
B0
A8
F0
60
E0
ENDCHAR
STARTCHAR uni04F2
ENCODING 1266
SWIDTH 644 0
DWIDTH 6 0
BBX 7 10 0 0
BITMAP
0A
1C
00
74
94
94
18
18
10
30
ENDCHAR
STARTCHAR uni04F3
ENCODING 1267
SWIDTH 486 0
DWIDTH 4 0
BBX 5 10 0 -2
BITMAP
38
50
00
50
D0
B0
A8
F0
60
E0
ENDCHAR
STARTCHAR uni04F4
ENCODING 1268
SWIDTH 695 0
DWIDTH 6 0
BBX 7 9 0 0
BITMAP
14
00
76
A4
A4
3C
0C
08
08
ENDCHAR
STARTCHAR uni04F5
ENCODING 1269
SWIDTH 505 0
DWIDTH 5 0
BBX 5 7 0 0
BITMAP
50
00
50
D0
F0
28
30
ENDCHAR
STARTCHAR uni04F6
ENCODING 1270
SWIDTH 442 0
DWIDTH 4 0
BBX 6 8 0 -1
BITMAP
7C
A0
A0
20
60
60
40
30
ENDCHAR
STARTCHAR uni04F7
ENCODING 1271
SWIDTH 375 0
DWIDTH 3 0
BBX 4 7 0 -2
BITMAP
60
A0
40
90
E0
40
40
ENDCHAR
STARTCHAR uni04F8
ENCODING 1272
SWIDTH 909 0
DWIDTH 8 0
BBX 8 9 0 0
BITMAP
0A
00
71
A1
B9
2B
6B
4A
5A
ENDCHAR
STARTCHAR uni04F9
ENCODING 1273
SWIDTH 642 0
DWIDTH 6 0
BBX 6 7 0 0
BITMAP
28
00
48
F8
A8
BC
C8
ENDCHAR
STARTCHAR uni051A
ENCODING 1306
SWIDTH 665 0
DWIDTH 6 0
BBX 6 8 0 -1
BITMAP
78
B4
A4
64
4C
68
70
0C
ENDCHAR
STARTCHAR uni051B
ENCODING 1307
SWIDTH 486 0
DWIDTH 4 0
BBX 4 7 0 -2
BITMAP
70
D0
90
B0
E0
20
20
ENDCHAR
STARTCHAR uni051C
ENCODING 1308
SWIDTH 962 0
DWIDTH 9 0
BBX 9 7 0 0
BITMAP
7680
B680
B680
3F00
3F00
3600
3600
ENDCHAR
STARTCHAR uni051D
ENCODING 1309
SWIDTH 661 0
DWIDTH 6 0
BBX 6 5 0 0
BITMAP
54
D4
B4
A8
F8
ENDCHAR
STARTCHAR uni0524
ENCODING 1316
SWIDTH 742 0
DWIDTH 7 0
BBX 7 8 0 -1
BITMAP
7E
A4
AC
2C
68
68
58
04
ENDCHAR
STARTCHAR uni0525
ENCODING 1317
SWIDTH 505 0
DWIDTH 5 0
BBX 5 7 0 -2
BITMAP
70
D0
B0
A8
B0
10
10
ENDCHAR
STARTCHAR uni1E0C
ENCODING 7692
SWIDTH 663 0
DWIDTH 6 0
BBX 6 9 0 -2
BITMAP
78
A4
A4
2C
6C
48
70
20
20
ENDCHAR
STARTCHAR uni1E0D
ENCODING 7693
SWIDTH 525 0
DWIDTH 5 0
BBX 5 9 0 -2
BITMAP
18
10
70
D0
90
B8
D0
40
40
ENDCHAR
STARTCHAR uni1E20
ENCODING 7712
SWIDTH 578 0
DWIDTH 5 0
BBX 5 11 0 -2
BITMAP
38
00
38
48
C0
C8
D8
70
70
90
60
ENDCHAR
STARTCHAR uni1E21
ENCODING 7713
SWIDTH 507 0
DWIDTH 5 0
BBX 5 9 0 -2
BITMAP
70
00
70
D0
90
B8
F0
60
60
ENDCHAR
STARTCHAR uni1E24
ENCODING 7716
SWIDTH 665 0
DWIDTH 6 0
BBX 6 9 0 -2
BITMAP
74
A4
BC
2C
68
48
48
20
20
ENDCHAR
STARTCHAR uni1E25
ENCODING 7717
SWIDTH 505 0
DWIDTH 5 0
BBX 5 9 0 -2
BITMAP
40
40
70
D0
B0
A8
B0
40
40
ENDCHAR
STARTCHAR uni1E2A
ENCODING 7722
SWIDTH 665 0
DWIDTH 6 0
BBX 6 9 0 -2
BITMAP
74
A4
BC
2C
68
48
48
50
20
ENDCHAR
STARTCHAR uni1E2B
ENCODING 7723
SWIDTH 505 0
DWIDTH 5 0
BBX 5 9 0 -2
BITMAP
40
40
70
D0
B0
A8
B0
A0
C0
ENDCHAR
STARTCHAR uni1E36
ENCODING 7734
SWIDTH 379 0
DWIDTH 3 0
BBX 6 9 0 -2
BITMAP
70
A0
A0
20
60
40
40
70
4C
ENDCHAR
STARTCHAR uni1E37
ENCODING 7735
SWIDTH 293 0
DWIDTH 3 0
BBX 3 9 0 -2
BITMAP
60
40
40
40
C0
A0
C0
80
80
ENDCHAR
STARTCHAR uni1E42
ENCODING 7746
SWIDTH 787 0
DWIDTH 7 0
BBX 6 9 1 -2
BITMAP
64
AC
EC
6C
BC
A8
A8
40
60
ENDCHAR
STARTCHAR uni1E43
ENCODING 7747
SWIDTH 752 0
DWIDTH 7 0
BBX 7 7 0 -2
BITMAP
7C
D4
B4
AE
A6
20
20
ENDCHAR
STARTCHAR uni1E44
ENCODING 7748
SWIDTH 668 0
DWIDTH 6 0
BBX 6 10 0 0
BITMAP
08
0C
00
74
B4
B4
34
54
58
48
ENDCHAR
STARTCHAR uni1E45
ENCODING 7749
SWIDTH 505 0
DWIDTH 5 0
BBX 5 7 0 0
BITMAP
20
20
70
D0
B0
A8
B0
ENDCHAR
STARTCHAR uni1E46
ENCODING 7750
SWIDTH 668 0
DWIDTH 6 0
BBX 6 9 0 -2
BITMAP
74
B4
B4
34
54
58
48
20
20
ENDCHAR
STARTCHAR uni1E47
ENCODING 7751
SWIDTH 505 0
DWIDTH 5 0
BBX 5 7 0 -2
BITMAP
70
D0
B0
A8
B0
40
40
ENDCHAR
STARTCHAR uni1E5A
ENCODING 7770
SWIDTH 601 0
DWIDTH 5 0
BBX 5 9 0 -2
BITMAP
78
A8
B8
28
68
58
58
20
20
ENDCHAR
STARTCHAR uni1E5B
ENCODING 7771
SWIDTH 376 0
DWIDTH 3 0
BBX 4 7 0 -2
BITMAP
70
C0
80
80
80
80
80
ENDCHAR
STARTCHAR uni1E60
ENCODING 7776
SWIDTH 570 0
DWIDTH 5 0
BBX 5 10 0 0
BITMAP
10
10
00
38
68
20
30
58
98
70
ENDCHAR
STARTCHAR uni1E61
ENCODING 7777
SWIDTH 382 0
DWIDTH 3 0
BBX 4 7 0 0
BITMAP
20
20
60
60
E0
B0
C0
ENDCHAR
STARTCHAR uni1E62
ENCODING 7778
SWIDTH 570 0
DWIDTH 5 0
BBX 5 9 0 -2
BITMAP
38
68
20
30
58
98
70
40
60
ENDCHAR
STARTCHAR uni1E63
ENCODING 7779
SWIDTH 382 0
DWIDTH 3 0
BBX 4 7 0 -2
BITMAP
60
60
E0
B0
C0
80
80
ENDCHAR
STARTCHAR uni1E6C
ENCODING 7788
SWIDTH 481 0
DWIDTH 4 0
BBX 6 9 0 -2
BITMAP
7C
90
B0
20
20
20
20
40
60
ENDCHAR
STARTCHAR uni1E6D
ENCODING 7789
SWIDTH 267 0
DWIDTH 2 0
BBX 3 9 0 -2
BITMAP
20
40
C0
C0
80
A0
C0
80
80
ENDCHAR
STARTCHAR Wgrave
ENCODING 7808
SWIDTH 962 0
DWIDTH 9 0
BBX 9 10 0 0
BITMAP
0400
0400
0000
7680
B680
B680
3F00
3F00
3600
3600
ENDCHAR
STARTCHAR wgrave
ENCODING 7809
SWIDTH 661 0
DWIDTH 6 0
BBX 6 7 0 0
BITMAP
20
10
54
D4
B4
A8
F8
ENDCHAR
STARTCHAR Wacute
ENCODING 7810
SWIDTH 962 0
DWIDTH 9 0
BBX 9 10 0 0
BITMAP
0300
0200
0000
7680
B680
B680
3F00
3F00
3600
3600
ENDCHAR
STARTCHAR wacute
ENCODING 7811
SWIDTH 661 0
DWIDTH 6 0
BBX 6 7 0 0
BITMAP
08
10
54
D4
B4
A8
F8
ENDCHAR
STARTCHAR Wdieresis
ENCODING 7812
SWIDTH 962 0
DWIDTH 9 0
BBX 9 9 0 0
BITMAP
0700
0000
7680
B680
B680
3F00
3F00
3600
3600
ENDCHAR
STARTCHAR wdieresis
ENCODING 7813
SWIDTH 661 0
DWIDTH 6 0
BBX 6 7 0 0
BITMAP
28
00
54
D4
B4
A8
F8
ENDCHAR
STARTCHAR uni1E8E
ENCODING 7822
SWIDTH 620 0
DWIDTH 6 0
BBX 6 10 0 0
BITMAP
08
08
00
74
B4
98
18
10
10
30
ENDCHAR
STARTCHAR uni1E8F
ENCODING 7823
SWIDTH 505 0
DWIDTH 5 0
BBX 5 9 0 -2
BITMAP
20
20
50
D0
B0
A8
F0
60
E0
ENDCHAR
STARTCHAR uni1E92
ENCODING 7826
SWIDTH 542 0
DWIDTH 5 0
BBX 5 12 0 -2
BITMAP
08
10
00
78
50
30
20
60
48
F0
40
60
ENDCHAR
STARTCHAR uni1E93
ENCODING 7827
SWIDTH 428 0
DWIDTH 4 0
BBX 4 7 0 -2
BITMAP
70
A0
60
50
E0
40
C0
ENDCHAR
STARTCHAR uni1E97
ENCODING 7831
SWIDTH 267 0
DWIDTH 2 0
BBX 3 8 0 0
BITMAP
E0
20
40
C0
C0
80
A0
C0
ENDCHAR
STARTCHAR uni1E9E
ENCODING 7838
SWIDTH 559 0
DWIDTH 5 0
BBX 6 9 -1 -2
BITMAP
1C
2C
28
38
6C
68
58
40
C0
ENDCHAR
STARTCHAR uni1EA0
ENCODING 7840
SWIDTH 668 0
DWIDTH 6 0
BBX 6 9 0 -2
BITMAP
0C
14
7C
AC
48
48
48
50
10
ENDCHAR
STARTCHAR uni1EA1
ENCODING 7841
SWIDTH 526 0
DWIDTH 5 0
BBX 5 7 0 -2
BITMAP
70
D0
90
B8
D0
40
40
ENDCHAR
STARTCHAR uni1EA2
ENCODING 7842
SWIDTH 668 0
DWIDTH 6 0
BBX 7 11 0 -1
BITMAP
06
04
00
0C
14
7C
AC
48
48
48
40
ENDCHAR
STARTCHAR uni1EA3
ENCODING 7843
SWIDTH 526 0
DWIDTH 5 0
BBX 5 7 0 0
BITMAP
30
10
70
D0
90
B8
D0
ENDCHAR
STARTCHAR uni1EA4
ENCODING 7844
SWIDTH 668 0
DWIDTH 6 0
BBX 8 11 0 -1
BITMAP
03
0E
00
0C
14
7C
AC
48
48
48
40
ENDCHAR
STARTCHAR uni1EA5
ENCODING 7845
SWIDTH 526 0
DWIDTH 5 0
BBX 5 9 0 0
BITMAP
08
08
30
00
70
D0
90
B8
D0
ENDCHAR
STARTCHAR uni1EA6
ENCODING 7846
SWIDTH 668 0
DWIDTH 6 0
BBX 7 11 0 -1
BITMAP
02
0E
00
0C
14
7C
AC
48
48
48
40
ENDCHAR
STARTCHAR uni1EA7
ENCODING 7847
SWIDTH 526 0
DWIDTH 5 0
BBX 5 9 0 0
BITMAP
08
08
30
00
70
D0
90
B8
D0
ENDCHAR
STARTCHAR uni1EA8
ENCODING 7848
SWIDTH 668 0
DWIDTH 6 0
BBX 8 11 0 -1
BITMAP
03
05
0A
0C
14
7C
AC
48
48
48
40
ENDCHAR
STARTCHAR uni1EA9
ENCODING 7849
SWIDTH 526 0
DWIDTH 5 0
BBX 5 8 0 0
BITMAP
08
30
00
70
D0
90
B8
D0
ENDCHAR
STARTCHAR uni1EAA
ENCODING 7850
SWIDTH 668 0
DWIDTH 6 0
BBX 7 11 0 -1
BITMAP
06
0E
00
0C
14
7C
AC
48
48
48
40
ENDCHAR
STARTCHAR uni1EAB
ENCODING 7851
SWIDTH 526 0
DWIDTH 5 0
BBX 5 9 0 0
BITMAP
38
00
30
00
70
D0
90
B8
D0
ENDCHAR
STARTCHAR uni1EAC
ENCODING 7852
SWIDTH 668 0
DWIDTH 6 0
BBX 7 12 0 -2
BITMAP
02
0E
00
0C
14
7C
AC
48
48
48
50
10
ENDCHAR
STARTCHAR uni1EAD
ENCODING 7853
SWIDTH 526 0
DWIDTH 5 0
BBX 5 9 0 -2
BITMAP
30
50
70
D0
90
B8
D0
40
40
ENDCHAR
STARTCHAR uni1EAE
ENCODING 7854
SWIDTH 668 0
DWIDTH 6 0
BBX 7 11 0 -1
BITMAP
02
0E
04
0C
14
7C
AC
48
48
48
40
ENDCHAR
STARTCHAR uni1EAF
ENCODING 7855
SWIDTH 526 0
DWIDTH 5 0
BBX 5 9 0 0
BITMAP
10
10
30
00
70
D0
90
B8
D0
ENDCHAR
STARTCHAR uni1EB0
ENCODING 7856
SWIDTH 668 0
DWIDTH 6 0
BBX 7 11 0 -1
BITMAP
04
0A
04
0C
14
7C
AC
48
48
48
40
ENDCHAR
STARTCHAR uni1EB1
ENCODING 7857
SWIDTH 526 0
DWIDTH 5 0
BBX 5 9 0 0
BITMAP
20
20
30
00
70
D0
90
B8
D0
ENDCHAR
STARTCHAR uni1EB2
ENCODING 7858
SWIDTH 668 0
DWIDTH 6 0
BBX 7 11 0 -1
BITMAP
04
0E
04
0C
14
7C
AC
48
48
48
40
ENDCHAR
STARTCHAR uni1EB3
ENCODING 7859
SWIDTH 526 0
DWIDTH 5 0
BBX 5 9 0 0
BITMAP
20
10
30
00
70
D0
90
B8
D0
ENDCHAR
STARTCHAR uni1EB4
ENCODING 7860
SWIDTH 668 0
DWIDTH 6 0
BBX 7 11 0 -1
BITMAP
06
08
06
0C
14
7C
AC
48
48
48
40
ENDCHAR
STARTCHAR uni1EB5
ENCODING 7861
SWIDTH 526 0
DWIDTH 5 0
BBX 5 9 0 0
BITMAP
38
00
30
00
70
D0
90
B8
D0
ENDCHAR
STARTCHAR uni1EB6
ENCODING 7862
SWIDTH 668 0
DWIDTH 6 0
BBX 7 12 0 -2
BITMAP
0A
06
00
0C
14
7C
AC
48
48
48
50
10
ENDCHAR
STARTCHAR uni1EB7
ENCODING 7863
SWIDTH 526 0
DWIDTH 5 0
BBX 5 9 0 -2
BITMAP
78
00
70
D0
90
B8
D0
40
40
ENDCHAR
STARTCHAR uni1EB8
ENCODING 7864
SWIDTH 459 0
DWIDTH 4 0
BBX 4 9 0 -2
BITMAP
30
50
60
40
C0
D0
E0
40
40
ENDCHAR
STARTCHAR uni1EB9
ENCODING 7865
SWIDTH 384 0
DWIDTH 3 0
BBX 4 7 0 -2
BITMAP
60
E0
C0
90
E0
80
C0
ENDCHAR
STARTCHAR uni1EBA
ENCODING 7866
SWIDTH 459 0
DWIDTH 4 0
BBX 4 10 0 0
BITMAP
10
10
00
30
50
60
40
C0
D0
E0
ENDCHAR
STARTCHAR uni1EBB
ENCODING 7867
SWIDTH 384 0
DWIDTH 3 0
BBX 4 7 0 0
BITMAP
20
20
60
E0
C0
90
E0
ENDCHAR
STARTCHAR uni1EBC
ENCODING 7868
SWIDTH 459 0
DWIDTH 4 0
BBX 5 10 0 0
BITMAP
10
38
00
30
58
60
40
C0
C8
F0
ENDCHAR
STARTCHAR uni1EBD
ENCODING 7869
SWIDTH 384 0
DWIDTH 3 0
BBX 4 7 0 0
BITMAP
70
80
60
E0
C0
90
E0
ENDCHAR
STARTCHAR uni1EBE
ENCODING 7870
SWIDTH 459 0
DWIDTH 4 0
BBX 6 10 0 0
BITMAP
1C
38
00
30
58
60
40
C0
C8
F0
ENDCHAR
STARTCHAR uni1EBF
ENCODING 7871
SWIDTH 384 0
DWIDTH 3 0
BBX 5 9 0 0
BITMAP
08
08
20
40
60
E0
C0
90
E0
ENDCHAR
STARTCHAR uni1EC0
ENCODING 7872
SWIDTH 459 0
DWIDTH 4 0
BBX 5 10 0 0
BITMAP
18
28
00
30
58
60
40
C0
C8
F0
ENDCHAR
STARTCHAR uni1EC1
ENCODING 7873
SWIDTH 384 0
DWIDTH 3 0
BBX 4 9 0 0
BITMAP
10
10
60
00
60
E0
C0
90
E0
ENDCHAR
STARTCHAR uni1EC2
ENCODING 7874
SWIDTH 459 0
DWIDTH 4 0
BBX 6 10 0 0
BITMAP
0C
18
20
30
58
60
40
C0
C8
F0
ENDCHAR
STARTCHAR uni1EC3
ENCODING 7875
SWIDTH 384 0
DWIDTH 3 0
BBX 5 8 0 0
BITMAP
18
30
40
60
E0
C0
90
E0
ENDCHAR
STARTCHAR uni1EC4
ENCODING 7876
SWIDTH 459 0
DWIDTH 4 0
BBX 5 10 0 0
BITMAP
18
30
00
30
58
60
40
C0
C8
F0
ENDCHAR
STARTCHAR uni1EC5
ENCODING 7877
SWIDTH 384 0
DWIDTH 3 0
BBX 4 9 0 0
BITMAP
30
00
20
40
60
E0
C0
90
E0
ENDCHAR
STARTCHAR uni1EC6
ENCODING 7878
SWIDTH 459 0
DWIDTH 4 0
BBX 4 12 0 -2
BITMAP
10
30
00
30
50
60
40
C0
D0
E0
40
40
ENDCHAR
STARTCHAR uni1EC7
ENCODING 7879
SWIDTH 384 0
DWIDTH 3 0
BBX 4 9 0 -2
BITMAP
20
50
60
E0
C0
90
E0
80
C0
ENDCHAR
STARTCHAR uni1EC8
ENCODING 7880
SWIDTH 375 0
DWIDTH 3 0
BBX 4 10 0 0
BITMAP
30
10
00
70
A0
A0
20
60
40
40
ENDCHAR
STARTCHAR uni1EC9
ENCODING 7881
SWIDTH 267 0
DWIDTH 2 0
BBX 3 7 0 0
BITMAP
60
40
40
C0
80
A0
C0
ENDCHAR
STARTCHAR uni1ECA
ENCODING 7882
SWIDTH 375 0
DWIDTH 3 0
BBX 4 9 0 -2
BITMAP
70
A0
A0
20
60
40
40
40
40
ENDCHAR
STARTCHAR uni1ECB
ENCODING 7883
SWIDTH 267 0
DWIDTH 2 0
BBX 3 9 0 -2
BITMAP
40
40
40
C0
80
A0
C0
80
80
ENDCHAR
STARTCHAR uni1ECC
ENCODING 7884
SWIDTH 665 0
DWIDTH 6 0
BBX 6 9 0 -2
BITMAP
78
B4
A4
64
4C
48
70
20
20
ENDCHAR
STARTCHAR uni1ECD
ENCODING 7885
SWIDTH 433 0
DWIDTH 4 0
BBX 5 7 0 -2
BITMAP
60
F8
A0
A0
C0
80
C0
ENDCHAR
STARTCHAR uni1ECE
ENCODING 7886
SWIDTH 665 0
DWIDTH 6 0
BBX 6 10 0 0
BITMAP
18
08
00
78
B4
A4
64
4C
48
70
ENDCHAR
STARTCHAR uni1ECF
ENCODING 7887
SWIDTH 433 0
DWIDTH 4 0
BBX 5 7 0 0
BITMAP
30
20
60
F8
A0
A0
C0
ENDCHAR
STARTCHAR uni1ED0
ENCODING 7888
SWIDTH 665 0
DWIDTH 6 0
BBX 6 10 0 0
BITMAP
04
18
00
78
B4
A4
64
4C
48
70
ENDCHAR
STARTCHAR uni1ED1
ENCODING 7889
SWIDTH 433 0
DWIDTH 4 0
BBX 5 9 0 0
BITMAP
08
08
20
40
60
F8
A0
A0
C0
ENDCHAR
STARTCHAR uni1ED2
ENCODING 7890
SWIDTH 665 0
DWIDTH 6 0
BBX 6 10 0 0
BITMAP
0C
18
00
78
B4
A4
64
4C
48
70
ENDCHAR
STARTCHAR uni1ED3
ENCODING 7891
SWIDTH 433 0
DWIDTH 4 0
BBX 5 8 0 0
BITMAP
10
28
50
60
F8
A0
A0
C0
ENDCHAR
STARTCHAR uni1ED4
ENCODING 7892
SWIDTH 665 0
DWIDTH 6 0
BBX 6 10 0 0
BITMAP
04
0C
10
78
B4
A4
64
4C
48
70
ENDCHAR
STARTCHAR uni1ED5
ENCODING 7893
SWIDTH 433 0
DWIDTH 4 0
BBX 5 8 0 0
BITMAP
18
30
40
60
F8
A0
A0
C0
ENDCHAR
STARTCHAR uni1ED6
ENCODING 7894
SWIDTH 665 0
DWIDTH 6 0
BBX 6 10 0 0
BITMAP
1C
18
00
78
B4
A4
64
4C
48
70
ENDCHAR
STARTCHAR uni1ED7
ENCODING 7895
SWIDTH 433 0
DWIDTH 4 0
BBX 5 9 0 0
BITMAP
30
10
20
40
60
F8
A0
A0
C0
ENDCHAR
STARTCHAR uni1ED8
ENCODING 7896
SWIDTH 665 0
DWIDTH 6 0
BBX 6 12 0 -2
BITMAP
08
38
00
78
B4
A4
64
4C
48
70
20
20
ENDCHAR
STARTCHAR uni1ED9
ENCODING 7897
SWIDTH 433 0
DWIDTH 4 0
BBX 5 9 0 -2
BITMAP
20
50
60
F8
A0
A0
C0
80
C0
ENDCHAR
STARTCHAR uni1EDA
ENCODING 7898
SWIDTH 665 0
DWIDTH 6 0
BBX 7 10 0 0
BITMAP
08
0A
02
7C
B4
A4
64
4C
48
70
ENDCHAR
STARTCHAR uni1EDB
ENCODING 7899
SWIDTH 439 0
DWIDTH 4 0
BBX 4 7 0 0
BITMAP
30
30
70
D0
90
A0
C0
ENDCHAR
STARTCHAR uni1EDC
ENCODING 7900
SWIDTH 665 0
DWIDTH 6 0
BBX 7 10 0 0
BITMAP
10
12
02
7C
B4
A4
64
4C
48
70
ENDCHAR
STARTCHAR uni1EDD
ENCODING 7901
SWIDTH 439 0
DWIDTH 4 0
BBX 4 7 0 0
BITMAP
20
30
70
D0
90
A0
C0
ENDCHAR
STARTCHAR uni1EDE
ENCODING 7902
SWIDTH 665 0
DWIDTH 6 0
BBX 7 10 0 0
BITMAP
18
0A
02
7C
B4
A4
64
4C
48
70
ENDCHAR
STARTCHAR uni1EDF
ENCODING 7903
SWIDTH 439 0
DWIDTH 4 0
BBX 4 7 0 0
BITMAP
30
30
70
D0
90
A0
C0
ENDCHAR
STARTCHAR uni1EE0
ENCODING 7904
SWIDTH 665 0
DWIDTH 6 0
BBX 7 9 0 0
BITMAP
3C
02
7C
B4
A4
64
4C
48
70
ENDCHAR
STARTCHAR uni1EE1
ENCODING 7905
SWIDTH 439 0
DWIDTH 4 0
BBX 4 7 0 0
BITMAP
70
10
70
D0
90
A0
C0
ENDCHAR
STARTCHAR uni1EE2
ENCODING 7906
SWIDTH 665 0
DWIDTH 6 0
BBX 7 11 0 -2
BITMAP
02
02
7C
B4
A4
64
4C
48
70
20
20
ENDCHAR
STARTCHAR uni1EE3
ENCODING 7907
SWIDTH 439 0
DWIDTH 4 0
BBX 4 9 0 -2
BITMAP
10
10
70
D0
90
A0
C0
80
C0
ENDCHAR
STARTCHAR uni1EE4
ENCODING 7908
SWIDTH 716 0
DWIDTH 6 0
BBX 7 9 0 -2
BITMAP
76
A4
A4
24
64
68
38
20
30
ENDCHAR
STARTCHAR uni1EE5
ENCODING 7909
SWIDTH 505 0
DWIDTH 5 0
BBX 5 7 0 -2
BITMAP
50
D0
B0
A8
F0
40
40
ENDCHAR
STARTCHAR uni1EE6
ENCODING 7910
SWIDTH 716 0
DWIDTH 6 0
BBX 7 10 0 0
BITMAP
0C
08
00
76
A4
A4
24
64
68
38
ENDCHAR
STARTCHAR uni1EE7
ENCODING 7911
SWIDTH 505 0
DWIDTH 5 0
BBX 5 7 0 0
BITMAP
30
20
50
D0
B0
A8
F0
ENDCHAR
STARTCHAR uni1EE8
ENCODING 7912
SWIDTH 716 0
DWIDTH 6 0
BBX 8 10 0 0
BITMAP
04
0D
01
76
A4
A4
24
64
68
38
ENDCHAR
STARTCHAR uni1EE9
ENCODING 7913
SWIDTH 505 0
DWIDTH 5 0
BBX 5 7 0 0
BITMAP
10
28
50
D0
B0
A8
F0
ENDCHAR
STARTCHAR uni1EEA
ENCODING 7914
SWIDTH 716 0
DWIDTH 6 0
BBX 8 10 0 0
BITMAP
08
09
01
76
A4
A4
24
64
68
38
ENDCHAR
STARTCHAR uni1EEB
ENCODING 7915
SWIDTH 505 0
DWIDTH 5 0
BBX 5 7 0 0
BITMAP
20
28
50
D0
B0
A8
F0
ENDCHAR
STARTCHAR uni1EEC
ENCODING 7916
SWIDTH 716 0
DWIDTH 6 0
BBX 8 10 0 0
BITMAP
0C
09
01
76
A4
A4
24
64
68
38
ENDCHAR
STARTCHAR uni1EED
ENCODING 7917
SWIDTH 505 0
DWIDTH 5 0
BBX 5 7 0 0
BITMAP
30
28
50
D0
B0
A8
F0
ENDCHAR
STARTCHAR uni1EEE
ENCODING 7918
SWIDTH 716 0
DWIDTH 6 0
BBX 8 9 0 0
BITMAP
1F
01
76
A4
A4
24
64
68
38
ENDCHAR
STARTCHAR uni1EEF
ENCODING 7919
SWIDTH 505 0
DWIDTH 5 0
BBX 5 7 0 0
BITMAP
78
08
50
D0
B0
A8
F0
ENDCHAR
STARTCHAR uni1EF0
ENCODING 7920
SWIDTH 716 0
DWIDTH 6 0
BBX 8 12 0 -2
BITMAP
01
01
01
76
A4
A4
24
64
68
38
20
30
ENDCHAR
STARTCHAR uni1EF1
ENCODING 7921
SWIDTH 505 0
DWIDTH 5 0
BBX 5 9 0 -2
BITMAP
08
08
50
D0
B0
A8
F0
40
40
ENDCHAR
STARTCHAR Ygrave
ENCODING 7922
SWIDTH 620 0
DWIDTH 6 0
BBX 6 10 0 0
BITMAP
08
08
00
74
B4
98
18
10
10
30
ENDCHAR
STARTCHAR ygrave
ENCODING 7923
SWIDTH 505 0
DWIDTH 5 0
BBX 5 9 0 -2
BITMAP
20
20
50
D0
B0
A8
F0
60
E0
ENDCHAR
STARTCHAR uni1EF4
ENCODING 7924
SWIDTH 620 0
DWIDTH 6 0
BBX 6 9 0 -2
BITMAP
74
B4
98
18
10
10
10
20
30
ENDCHAR
STARTCHAR uni1EF5
ENCODING 7925
SWIDTH 505 0
DWIDTH 5 0
BBX 5 7 0 -2
BITMAP
50
D0
B0
A8
F0
A0
F0
ENDCHAR
STARTCHAR uni1EF6
ENCODING 7926
SWIDTH 620 0
DWIDTH 6 0
BBX 6 10 0 0
BITMAP
0C
08
00
74
B4
98
18
10
10
30
ENDCHAR
STARTCHAR uni1EF7
ENCODING 7927
SWIDTH 505 0
DWIDTH 5 0
BBX 5 9 0 -2
BITMAP
30
00
50
D0
B0
A8
F0
60
E0
ENDCHAR
STARTCHAR uni1EF8
ENCODING 7928
SWIDTH 620 0
DWIDTH 6 0
BBX 6 9 0 0
BITMAP
1C
00
74
B4
98
18
10
10
30
ENDCHAR
STARTCHAR uni1EF9
ENCODING 7929
SWIDTH 505 0
DWIDTH 5 0
BBX 5 9 0 -2
BITMAP
70
00
50
D0
B0
A8
F0
60
E0
ENDCHAR
STARTCHAR uni2010
ENCODING 8208
SWIDTH 290 0
DWIDTH 3 0
BBX 2 1 0 2
BITMAP
C0
ENDCHAR
STARTCHAR endash
ENCODING 8211
SWIDTH 352 0
DWIDTH 3 0
BBX 3 1 0 2
BITMAP
E0
ENDCHAR
STARTCHAR emdash
ENCODING 8212
SWIDTH 444 0
DWIDTH 4 0
BBX 3 1 0 2
BITMAP
E0
ENDCHAR
STARTCHAR quoteleft
ENCODING 8216
SWIDTH 209 0
DWIDTH 2 0
BBX 1 2 1 5
BITMAP
80
80
ENDCHAR
STARTCHAR quoteright
ENCODING 8217
SWIDTH 238 0
DWIDTH 2 0
BBX 1 2 1 5
BITMAP
80
80
ENDCHAR
STARTCHAR quotesinglbase
ENCODING 8218
SWIDTH 220 0
DWIDTH 2 0
BBX 1 2 0 -1
BITMAP
80
80
ENDCHAR
STARTCHAR quotedblleft
ENCODING 8220
SWIDTH 429 0
DWIDTH 4 0
BBX 3 2 1 5
BITMAP
A0
A0
ENDCHAR
STARTCHAR quotedblright
ENCODING 8221
SWIDTH 426 0
DWIDTH 4 0
BBX 3 2 1 5
BITMAP
A0
A0
ENDCHAR
STARTCHAR quotedblbase
ENCODING 8222
SWIDTH 440 0
DWIDTH 4 0
BBX 3 2 0 -1
BITMAP
A0
A0
ENDCHAR
STARTCHAR dagger
ENCODING 8224
SWIDTH 495 0
DWIDTH 4 0
BBX 3 9 1 -2
BITMAP
40
40
E0
40
80
80
80
80
80
ENDCHAR
STARTCHAR daggerdbl
ENCODING 8225
SWIDTH 495 0
DWIDTH 4 0
BBX 4 9 0 -2
BITMAP
20
20
70
20
F0
40
40
40
40
ENDCHAR
STARTCHAR bullet
ENCODING 8226
SWIDTH 434 0
DWIDTH 4 0
BBX 2 2 1 2
BITMAP
C0
C0
ENDCHAR
STARTCHAR ellipsis
ENCODING 8230
SWIDTH 702 0
DWIDTH 6 0
BBX 6 2 0 0
BITMAP
94
F4
ENDCHAR
STARTCHAR perthousand
ENCODING 8240
SWIDTH 1175 0
DWIDTH 11 0
BBX 10 7 0 0
BITMAP
6400
6800
A800
56C0
1AC0
2AC0
2CC0
ENDCHAR
STARTCHAR minute
ENCODING 8242
SWIDTH 196 0
DWIDTH 2 0
BBX 1 2 1 5
BITMAP
80
80
ENDCHAR
STARTCHAR second
ENCODING 8243
SWIDTH 341 0
DWIDTH 3 0
BBX 3 2 1 5
BITMAP
E0
C0
ENDCHAR
STARTCHAR guilsinglleft
ENCODING 8249
SWIDTH 359 0
DWIDTH 3 0
BBX 3 3 0 1
BITMAP
20
C0
60
ENDCHAR
STARTCHAR guilsinglright
ENCODING 8250
SWIDTH 344 0
DWIDTH 3 0
BBX 3 3 0 1
BITMAP
40
20
C0
ENDCHAR
STARTCHAR fraction
ENCODING 8260
SWIDTH 248 0
DWIDTH 2 0
BBX 4 7 -1 0
BITMAP
10
10
20
20
40
40
80
ENDCHAR
STARTCHAR uni2052
ENCODING 8274
SWIDTH 796 0
DWIDTH 7 0
BBX 5 7 1 0
BITMAP
C8
50
10
20
20
48
58
ENDCHAR
STARTCHAR uni2070
ENCODING 8304
SWIDTH 379 0
DWIDTH 3 0
BBX 3 4 0 3
BITMAP
60
60
A0
40
ENDCHAR
STARTCHAR uni2074
ENCODING 8308
SWIDTH 352 0
DWIDTH 3 0
BBX 3 4 0 3
BITMAP
60
60
E0
40
ENDCHAR
STARTCHAR uni2075
ENCODING 8309
SWIDTH 335 0
DWIDTH 3 0
BBX 3 4 0 3
BITMAP
60
60
A0
40
ENDCHAR
STARTCHAR uni2076
ENCODING 8310
SWIDTH 351 0
DWIDTH 3 0
BBX 3 4 0 3
BITMAP
60
E0
A0
40
ENDCHAR
STARTCHAR uni2077
ENCODING 8311
SWIDTH 329 0
DWIDTH 3 0
BBX 3 4 0 3
BITMAP
E0
40
40
80
ENDCHAR
STARTCHAR uni2078
ENCODING 8312
SWIDTH 354 0
DWIDTH 3 0
BBX 3 4 0 3
BITMAP
60
40
A0
40
ENDCHAR
STARTCHAR uni2079
ENCODING 8313
SWIDTH 345 0
DWIDTH 3 0
BBX 3 4 0 3
BITMAP
60
A0
60
C0
ENDCHAR
STARTCHAR uni2080
ENCODING 8320
SWIDTH 379 0
DWIDTH 3 0
BBX 3 4 0 0
BITMAP
60
60
A0
E0
ENDCHAR
STARTCHAR uni2081
ENCODING 8321
SWIDTH 229 0
DWIDTH 2 0
BBX 2 4 0 0
BITMAP
C0
40
40
80
ENDCHAR
STARTCHAR uni2082
ENCODING 8322
SWIDTH 328 0
DWIDTH 3 0
BBX 3 4 0 0
BITMAP
60
20
40
E0
ENDCHAR
STARTCHAR uni2083
ENCODING 8323
SWIDTH 336 0
DWIDTH 3 0
BBX 3 4 0 0
BITMAP
60
60
A0
E0
ENDCHAR
STARTCHAR uni2084
ENCODING 8324
SWIDTH 352 0
DWIDTH 3 0
BBX 3 4 0 0
BITMAP
60
60
E0
40
ENDCHAR
STARTCHAR uni2085
ENCODING 8325
SWIDTH 335 0
DWIDTH 3 0
BBX 3 4 0 0
BITMAP
60
60
60
E0
ENDCHAR
STARTCHAR uni2086
ENCODING 8326
SWIDTH 351 0
DWIDTH 3 0
BBX 3 4 0 0
BITMAP
60
60
A0
E0
ENDCHAR
STARTCHAR uni2087
ENCODING 8327
SWIDTH 329 0
DWIDTH 3 0
BBX 3 4 0 0
BITMAP
E0
40
40
80
ENDCHAR
STARTCHAR uni2088
ENCODING 8328
SWIDTH 354 0
DWIDTH 3 0
BBX 3 4 0 0
BITMAP
60
60
A0
E0
ENDCHAR
STARTCHAR uni2089
ENCODING 8329
SWIDTH 345 0
DWIDTH 3 0
BBX 3 4 0 0
BITMAP
60
A0
60
C0
ENDCHAR
STARTCHAR colonmonetary
ENCODING 8353
SWIDTH 384 0
DWIDTH 3 0
BBX 4 7 0 0
BITMAP
20
70
D0
80
80
60
C0
ENDCHAR
STARTCHAR franc
ENCODING 8355
SWIDTH 529 0
DWIDTH 5 0
BBX 5 7 0 0
BITMAP
38
20
20
30
60
F0
40
ENDCHAR
STARTCHAR lira
ENCODING 8356
SWIDTH 455 0
DWIDTH 4 0
BBX 5 7 0 0
BITMAP
38
20
F0
F0
40
48
F0
ENDCHAR
STARTCHAR uni20A6
ENCODING 8358
SWIDTH 723 0
DWIDTH 7 0
BBX 7 7 0 0
BITMAP
34
34
34
FE
FE
58
48
ENDCHAR
STARTCHAR uni20A9
ENCODING 8361
SWIDTH 841 0
DWIDTH 8 0
BBX 8 7 0 0
BITMAP
6D
6D
6D
FF
FF
6C
64
ENDCHAR
STARTCHAR Euro
ENCODING 8364
SWIDTH 507 0
DWIDTH 5 0
BBX 5 7 0 0
BITMAP
38
68
F0
F0
40
68
30
ENDCHAR
STARTCHAR uni20AE
ENCODING 8366
SWIDTH 481 0
DWIDTH 4 0
BBX 6 7 0 0
BITMAP
7C
90
B0
38
F8
A0
60
ENDCHAR
STARTCHAR uni20B3
ENCODING 8371
SWIDTH 573 0
DWIDTH 5 0
BBX 5 7 0 0
BITMAP
78
A8
A8
70
60
F0
40
ENDCHAR
STARTCHAR uni20B4
ENCODING 8372
SWIDTH 570 0
DWIDTH 5 0
BBX 5 7 0 0
BITMAP
78
58
A0
F8
50
C8
70
ENDCHAR
STARTCHAR uni20B8
ENCODING 8376
SWIDTH 522 0
DWIDTH 5 0
BBX 7 7 0 0
BITMAP
7E
7E
90
90
30
20
20
ENDCHAR
STARTCHAR uni20B9
ENCODING 8377
SWIDTH 544 0
DWIDTH 5 0
BBX 5 7 0 0
BITMAP
78
78
10
E0
30
20
20
ENDCHAR
STARTCHAR uni20BA
ENCODING 8378
SWIDTH 455 0
DWIDTH 4 0
BBX 5 7 0 0
BITMAP
20
30
60
F0
C8
48
70
ENDCHAR
STARTCHAR uni20BD
ENCODING 8381
SWIDTH 573 0
DWIDTH 5 0
BBX 5 7 0 0
BITMAP
78
A8
A8
F0
60
E0
40
ENDCHAR
STARTCHAR uni2116
ENCODING 8470
SWIDTH 996 0
DWIDTH 9 0
BBX 9 7 0 0
BITMAP
7580
B580
B680
3500
5780
5800
4800
ENDCHAR
STARTCHAR uni2120
ENCODING 8480
SWIDTH 585 0
DWIDTH 5 0
BBX 4 3 1 3
BITMAP
B0
F0
80
ENDCHAR
STARTCHAR trademark
ENCODING 8482
SWIDTH 379 0
DWIDTH 3 0
BBX 3 2 0 4
BITMAP
E0
E0
ENDCHAR
STARTCHAR uni2126
ENCODING 8486
SWIDTH 745 0
DWIDTH 7 0
BBX 6 7 0 0
BITMAP
1C
24
44
44
44
48
FC
ENDCHAR
STARTCHAR uni212A
ENCODING 8490
SWIDTH 601 0
DWIDTH 5 0
BBX 6 7 0 0
BITMAP
7C
B0
B8
28
68
58
58
ENDCHAR
STARTCHAR uni212B
ENCODING 8491
SWIDTH 668 0
DWIDTH 6 0
BBX 6 9 0 -1
BITMAP
04
04
0C
14
7C
A8
48
48
40
ENDCHAR
STARTCHAR estimated
ENCODING 8494
SWIDTH 786 0
DWIDTH 7 0
BBX 7 7 0 0
BITMAP
38
44
C6
FE
C0
44
38
ENDCHAR
STARTCHAR uni2153
ENCODING 8531
SWIDTH 733 0
DWIDTH 7 0
BBX 7 7 0 0
BITMAP
C8
48
90
1E
24
2C
4C
ENDCHAR
STARTCHAR uni2154
ENCODING 8532
SWIDTH 852 0
DWIDTH 8 0
BBX 8 7 0 0
BITMAP
64
24
48
EF
12
15
26
ENDCHAR
STARTCHAR oneeighth
ENCODING 8539
SWIDTH 741 0
DWIDTH 7 0
BBX 7 7 0 0
BITMAP
C8
48
90
1E
24
2C
4C
ENDCHAR
STARTCHAR threeeighths
ENCODING 8540
SWIDTH 828 0
DWIDTH 7 0
BBX 7 7 0 0
BITMAP
64
44
A8
56
16
26
26
ENDCHAR
STARTCHAR fiveeighths
ENCODING 8541
SWIDTH 827 0
DWIDTH 7 0
BBX 7 7 0 0
BITMAP
64
64
A8
56
16
26
26
ENDCHAR
STARTCHAR seveneighths
ENCODING 8542
SWIDTH 761 0
DWIDTH 7 0
BBX 7 7 0 0
BITMAP
EC
48
50
96
24
2A
4C
ENDCHAR
STARTCHAR partialdiff
ENCODING 8706
SWIDTH 597 0
DWIDTH 5 0
BBX 5 7 0 0
BITMAP
38
08
08
78
88
90
60
ENDCHAR
STARTCHAR uni2206
ENCODING 8710
SWIDTH 619 0
DWIDTH 6 0
BBX 5 7 0 0
BITMAP
18
18
28
48
48
88
F8
ENDCHAR
STARTCHAR product
ENCODING 8719
SWIDTH 661 0
DWIDTH 6 0
BBX 6 7 0 0
BITMAP
FC
48
50
50
90
90
A0
ENDCHAR
STARTCHAR summation
ENCODING 8721
SWIDTH 605 0
DWIDTH 5 0
BBX 6 7 0 0
BITMAP
7C
20
20
10
20
40
F0
ENDCHAR
STARTCHAR minus
ENCODING 8722
SWIDTH 471 0
DWIDTH 4 0
BBX 4 1 0 3
BITMAP
F0
ENDCHAR
STARTCHAR uni2215
ENCODING 8725
SWIDTH 488 0
DWIDTH 4 0
BBX 4 7 0 0
BITMAP
10
10
20
20
40
40
80
ENDCHAR
STARTCHAR uni2219
ENCODING 8729
SWIDTH 434 0
DWIDTH 4 0
BBX 2 2 1 2
BITMAP
C0
C0
ENDCHAR
STARTCHAR radical
ENCODING 8730
SWIDTH 660 0
DWIDTH 6 0
BBX 6 7 0 0
BITMAP
0C
10
10
20
A0
40
40
ENDCHAR
STARTCHAR infinity
ENCODING 8734
SWIDTH 833 0
DWIDTH 8 0
BBX 7 3 0 1
BITMAP
6C
92
6C
ENDCHAR
STARTCHAR integral
ENCODING 8747
SWIDTH 305 0
DWIDTH 3 0
BBX 4 9 -1 -2
BITMAP
10
20
20
20
20
20
40
40
80
ENDCHAR
STARTCHAR approxequal
ENCODING 8776
SWIDTH 441 0
DWIDTH 4 0
BBX 4 3 0 1
BITMAP
70
00
F0
ENDCHAR
STARTCHAR notequal
ENCODING 8800
SWIDTH 500 0
DWIDTH 5 0
BBX 4 5 0 0
BITMAP
20
70
20
F0
40
ENDCHAR
STARTCHAR lessequal
ENCODING 8804
SWIDTH 405 0
DWIDTH 4 0
BBX 4 5 0 1
BITMAP
10
60
C0
20
E0
ENDCHAR
STARTCHAR greaterequal
ENCODING 8805
SWIDTH 405 0
DWIDTH 4 0
BBX 4 5 0 1
BITMAP
40
30
60
80
E0
ENDCHAR
STARTCHAR lozenge
ENCODING 9674
SWIDTH 619 0
DWIDTH 6 0
BBX 5 7 0 0
BITMAP
10
28
48
88
48
50
60
ENDCHAR
STARTCHAR uni27E8
ENCODING 10216
SWIDTH 456 0
DWIDTH 4 0
BBX 4 9 0 -1
BITMAP
10
10
20
40
80
40
40
20
10
ENDCHAR
STARTCHAR uni27E9
ENCODING 10217
SWIDTH 456 0
DWIDTH 4 0
BBX 4 9 0 -1
BITMAP
C0
40
20
20
10
20
40
40
80
ENDCHAR
STARTCHAR ff
ENCODING 64256
SWIDTH 508 0
DWIDTH 5 0
BBX 8 9 -2 -2
BITMAP
1F
14
1E
34
2C
28
78
A8
F8
ENDCHAR
STARTCHAR fi
ENCODING 64257
SWIDTH 534 0
DWIDTH 5 0
BBX 7 9 -2 -2
BITMAP
1C
14
1C
34
24
2E
6C
A0
C0
ENDCHAR
STARTCHAR fl
ENCODING 64258
SWIDTH 548 0
DWIDTH 5 0
BBX 7 9 -2 -2
BITMAP
1C
16
1C
34
24
2E
66
A0
C0
ENDCHAR
STARTCHAR ffi
ENCODING 64259
SWIDTH 764 0
DWIDTH 7 0
BBX 9 9 -2 -2
BITMAP
1B00
1500
1F00
3D00
2900
2B80
7980
A800
F000
ENDCHAR
STARTCHAR ffl
ENCODING 64260
SWIDTH 780 0
DWIDTH 7 0
BBX 9 9 -2 -2
BITMAP
1F00
1580
1F00
3D00
2900
2980
7980
A800
F000
ENDCHAR
STARTCHAR .notdef
ENCODING -1
SWIDTH 810 0
DWIDTH 7 0
BBX 7 12 0 -3
BITMAP
3E
22
22
5A
5A
52
54
54
84
84
88
F8
ENDCHAR
STARTCHAR A.salt
ENCODING -1
SWIDTH 590 0
DWIDTH 5 0
BBX 6 8 0 -1
BITMAP
1C
28
28
78
58
D0
90
80
ENDCHAR
STARTCHAR B.salt
ENCODING -1
SWIDTH 633 0
DWIDTH 6 0
BBX 5 7 0 0
BITMAP
78
A8
B8
28
68
48
70
ENDCHAR
STARTCHAR E.salt
ENCODING -1
SWIDTH 554 0
DWIDTH 5 0
BBX 5 7 0 0
BITMAP
78
A0
A0
30
60
40
70
ENDCHAR
STARTCHAR N.salt
ENCODING -1
SWIDTH 669 0
DWIDTH 6 0
BBX 6 7 0 0
BITMAP
7C
A4
AC
68
68
4C
4C
ENDCHAR
STARTCHAR i.loclTRK
ENCODING -1
SWIDTH 267 0
DWIDTH 2 0
BBX 3 7 0 0
BITMAP
40
40
40
C0
80
A0
C0
ENDCHAR
STARTCHAR a.end
ENCODING -1
SWIDTH 467 0
DWIDTH 4 0
BBX 4 5 0 0
BITMAP
70
D0
90
B0
D0
ENDCHAR
STARTCHAR aacute.end
ENCODING -1
SWIDTH 461 0
DWIDTH 4 0
BBX 4 7 0 0
BITMAP
10
20
70
D0
90
B0
F0
ENDCHAR
STARTCHAR c.end
ENCODING -1
SWIDTH 341 0
DWIDTH 3 0
BBX 3 5 0 0
BITMAP
60
E0
80
80
E0
ENDCHAR
STARTCHAR d.end
ENCODING -1
SWIDTH 476 0
DWIDTH 4 0
BBX 5 7 0 0
BITMAP
18
10
70
D0
90
B0
F0
ENDCHAR
STARTCHAR e.end
ENCODING -1
SWIDTH 366 0
DWIDTH 3 0
BBX 3 5 0 0
BITMAP
60
E0
C0
A0
C0
ENDCHAR
STARTCHAR eacute.end
ENCODING -1
SWIDTH 367 0
DWIDTH 3 0
BBX 4 7 0 0
BITMAP
30
20
60
E0
C0
A0
C0
ENDCHAR
STARTCHAR uni0292.end
ENCODING -1
SWIDTH 391 0
DWIDTH 4 0
BBX 4 7 0 -2
BITMAP
F0
60
40
60
60
E0
C0
ENDCHAR
STARTCHAR g.end
ENCODING -1
SWIDTH 480 0
DWIDTH 4 0
BBX 4 7 0 -2
BITMAP
70
D0
90
B0
E0
A0
60
ENDCHAR
STARTCHAR uni01E5.end
ENCODING -1
SWIDTH 507 0
DWIDTH 5 0
BBX 4 7 0 -2
BITMAP
70
D0
90
B0
E0
F0
60
ENDCHAR
STARTCHAR h.end
ENCODING -1
SWIDTH 453 0
DWIDTH 4 0
BBX 4 7 0 0
BITMAP
40
40
70
D0
B0
A0
B0
ENDCHAR
STARTCHAR i.end
ENCODING -1
SWIDTH 209 0
DWIDTH 2 0
BBX 2 7 0 0
BITMAP
40
40
40
C0
80
80
C0
ENDCHAR
STARTCHAR iacute.end
ENCODING -1
SWIDTH 209 0
DWIDTH 2 0
BBX 3 7 0 0
BITMAP
60
40
40
C0
80
80
C0
ENDCHAR
STARTCHAR ij.end
ENCODING -1
SWIDTH 480 0
DWIDTH 4 0
BBX 5 10 0 -2
BITMAP
50
58
00
50
D0
90
B0
E0
A0
60
ENDCHAR
STARTCHAR j.end
ENCODING -1
SWIDTH 213 0
DWIDTH 2 0
BBX 4 10 -2 -2
BITMAP
10
10
00
10
30
20
20
20
E0
C0
ENDCHAR
STARTCHAR k.end
ENCODING -1
SWIDTH 472 0
DWIDTH 4 0
BBX 4 7 0 0
BITMAP
40
40
50
E0
B0
B0
B0
ENDCHAR
STARTCHAR l.end
ENCODING -1
SWIDTH 207 0
DWIDTH 2 0
BBX 2 7 0 0
BITMAP
40
40
40
C0
80
80
C0
ENDCHAR
STARTCHAR m.end
ENCODING -1
SWIDTH 701 0
DWIDTH 6 0
BBX 6 5 0 0
BITMAP
7C
D4
B4
AC
A4
ENDCHAR
STARTCHAR n.end
ENCODING -1
SWIDTH 454 0
DWIDTH 4 0
BBX 4 5 0 0
BITMAP
70
D0
B0
A0
B0
ENDCHAR
STARTCHAR o.end
ENCODING -1
SWIDTH 487 0
DWIDTH 4 0
BBX 4 5 0 0
BITMAP
60
F0
90
A0
C0
ENDCHAR
STARTCHAR oacute.end
ENCODING -1
SWIDTH 487 0
DWIDTH 4 0
BBX 4 7 0 0
BITMAP
30
20
60
F0
90
A0
E0
ENDCHAR
STARTCHAR s.end
ENCODING -1
SWIDTH 316 0
DWIDTH 3 0
BBX 3 5 0 0
BITMAP
60
60
E0
A0
C0
ENDCHAR
STARTCHAR t.end
ENCODING -1
SWIDTH 276 0
DWIDTH 2 0
BBX 2 7 0 0
BITMAP
40
40
C0
C0
80
80
C0
ENDCHAR
STARTCHAR u.end
ENCODING -1
SWIDTH 459 0
DWIDTH 4 0
BBX 4 5 0 0
BITMAP
50
D0
B0
A0
F0
ENDCHAR
STARTCHAR uacute.end
ENCODING -1
SWIDTH 459 0
DWIDTH 4 0
BBX 4 7 0 0
BITMAP
30
20
50
D0
B0
A0
F0
ENDCHAR
STARTCHAR x.end
ENCODING -1
SWIDTH 500 0
DWIDTH 5 0
BBX 5 6 0 0
BITMAP
10
68
B0
A0
60
B0
ENDCHAR
STARTCHAR y.end
ENCODING -1
SWIDTH 460 0
DWIDTH 4 0
BBX 4 7 0 -2
BITMAP
50
D0
B0
A0
E0
A0
E0
ENDCHAR
STARTCHAR k.salt
ENCODING -1
SWIDTH 518 0
DWIDTH 5 0
BBX 5 7 0 0
BITMAP
40
40
50
E0
B0
B8
B0
ENDCHAR
STARTCHAR p.salt
ENCODING -1
SWIDTH 482 0
DWIDTH 4 0
BBX 6 8 -1 -2
BITMAP
20
78
68
4C
58
70
40
C0
ENDCHAR
STARTCHAR E_x
ENCODING -1
SWIDTH 797 0
DWIDTH 7 0
BBX 8 7 0 0
BITMAP
30
48
52
6A
CC
CD
F6
ENDCHAR
STARTCHAR F_i
ENCODING -1
SWIDTH 726 0
DWIDTH 7 0
BBX 7 7 0 0
BITMAP
7E
A0
B4
2C
6C
6A
4C
ENDCHAR
STARTCHAR T_h
ENCODING -1
SWIDTH 971 0
DWIDTH 9 0
BBX 9 7 0 0
BITMAP
7E00
9400
B700
2500
2D00
2B80
6900
ENDCHAR
STARTCHAR T_i
ENCODING -1
SWIDTH 744 0
DWIDTH 7 0
BBX 7 7 0 0
BITMAP
7E
90
B4
24
2C
2E
6C
ENDCHAR
STARTCHAR a_x
ENCODING -1
SWIDTH 899 0
DWIDTH 8 0
BBX 8 6 0 0
BITMAP
01
75
D5
96
B7
DB
ENDCHAR
STARTCHAR a_z
ENCODING -1
SWIDTH 906 0
DWIDTH 8 0
BBX 8 5 0 0
BITMAP
77
D6
92
B5
DF
ENDCHAR
STARTCHAR b_s
ENCODING -1
SWIDTH 799 0
DWIDTH 7 0
BBX 8 7 0 0
BITMAP
40
40
64
DC
96
AF
EC
ENDCHAR
STARTCHAR b_s_x
ENCODING -1
SWIDTH 1144 0
DWIDTH 10 0
BBX 11 6 0 0
BITMAP
4000
6540
DDC0
9680
AFA0
ECC0
ENDCHAR
STARTCHAR b_s_z
ENCODING -1
SWIDTH 1158 0
DWIDTH 10 0
BBX 10 7 0 0
BITMAP
4000
4000
65C0
DDC0
9680
AF80
EDC0
ENDCHAR
STARTCHAR c_x
ENCODING -1
SWIDTH 755 0
DWIDTH 7 0
BBX 7 5 0 0
BITMAP
6A
EA
8C
8E
F4
ENDCHAR
STARTCHAR c_z
ENCODING -1
SWIDTH 769 0
DWIDTH 7 0
BBX 7 5 0 0
BITMAP
6E
EC
8C
8A
FC
ENDCHAR
STARTCHAR e_x
ENCODING -1
SWIDTH 762 0
DWIDTH 7 0
BBX 7 5 0 0
BITMAP
6A
EC
C8
8E
F6
ENDCHAR
STARTCHAR e_z
ENCODING -1
SWIDTH 788 0
DWIDTH 7 0
BBX 7 5 0 0
BITMAP
6E
A4
C4
AA
DE
ENDCHAR
STARTCHAR eacute_x
ENCODING -1
SWIDTH 760 0
DWIDTH 7 0
BBX 7 7 0 0
BITMAP
30
00
6A
EC
C8
9E
E4
ENDCHAR
STARTCHAR f_f_t
ENCODING -1
SWIDTH 780 0
DWIDTH 7 0
BBX 9 9 -2 -2
BITMAP
1F00
1580
1F00
3D00
2900
2980
7980
A800
F000
ENDCHAR
STARTCHAR f_i_x
ENCODING -1
SWIDTH 898 0
DWIDTH 8 0
BBX 10 9 -2 -2
BITMAP
1C00
1040
1D40
3540
2580
2DC0
6EC0
A000
C000
ENDCHAR
STARTCHAR f_i_z
ENCODING -1
SWIDTH 904 0
DWIDTH 8 0
BBX 10 9 -2 -2
BITMAP
1C00
1400
1DC0
3480
2480
2D40
6FC0
A000
C000
ENDCHAR
STARTCHAR f_l_x
ENCODING -1
SWIDTH 912 0
DWIDTH 8 0
BBX 11 9 -2 -2
BITMAP
1C00
1640
1D40
35C0
2580
2DA0
66C0
A000
C000
ENDCHAR
STARTCHAR f_l_z
ENCODING -1
SWIDTH 938 0
DWIDTH 8 0
BBX 10 9 -2 -2
BITMAP
1C00
1600
1DC0
34C0
2480
2DC0
65C0
A000
C000
ENDCHAR
STARTCHAR f_t
ENCODING -1
SWIDTH 548 0
DWIDTH 5 0
BBX 7 9 -2 -2
BITMAP
1C
16
1C
34
24
2E
66
A0
C0
ENDCHAR
STARTCHAR f_u
ENCODING -1
SWIDTH 772 0
DWIDTH 7 0
BBX 9 9 -2 -2
BITMAP
1800
1000
1D80
3500
2500
2F80
6D80
A000
C000
ENDCHAR
STARTCHAR f_x
ENCODING -1
SWIDTH 663 0
DWIDTH 6 0
BBX 8 9 -2 -2
BITMAP
18
11
1D
35
26
2F
2B
E0
C0
ENDCHAR
STARTCHAR g_p
ENCODING -1
SWIDTH 975 0
DWIDTH 9 0
BBX 9 8 0 -2
BITMAP
0600
7700
D580
9500
B500
FF00
6800
6800
ENDCHAR
STARTCHAR g_x
ENCODING -1
SWIDTH 892 0
DWIDTH 8 0
BBX 8 8 0 -2
BITMAP
01
75
D5
96
B7
FB
60
60
ENDCHAR
STARTCHAR g_z
ENCODING -1
SWIDTH 907 0
DWIDTH 8 0
BBX 8 7 0 -2
BITMAP
77
D6
92
B5
EF
A0
60
ENDCHAR
STARTCHAR i_x
ENCODING -1
SWIDTH 631 0
DWIDTH 6 0
BBX 6 7 0 0
BITMAP
40
40
5C
D4
98
94
F8
ENDCHAR
STARTCHAR i_z
ENCODING -1
SWIDTH 637 0
DWIDTH 6 0
BBX 6 7 0 0
BITMAP
40
40
7C
C8
90
98
F8
ENDCHAR
STARTCHAR iacute_x
ENCODING -1
SWIDTH 631 0
DWIDTH 6 0
BBX 6 7 0 0
BITMAP
20
40
5C
D4
98
94
F8
ENDCHAR
STARTCHAR iacute_z
ENCODING -1
SWIDTH 637 0
DWIDTH 6 0
BBX 6 7 0 0
BITMAP
60
40
5C
E8
90
90
F8
ENDCHAR
STARTCHAR j_x
ENCODING -1
SWIDTH 624 0
DWIDTH 6 0
BBX 8 10 -2 -2
BITMAP
10
10
02
1D
36
24
2D
36
E0
C0
ENDCHAR
STARTCHAR j_z
ENCODING -1
SWIDTH 618 0
DWIDTH 6 0
BBX 8 10 -2 -2
BITMAP
10
10
00
1F
32
24
2E
6E
A0
C0
ENDCHAR
STARTCHAR l_x
ENCODING -1
SWIDTH 631 0
DWIDTH 6 0
BBX 6 6 0 0
BITMAP
40
5C
D4
98
94
F8
ENDCHAR
STARTCHAR l_z
ENCODING -1
SWIDTH 635 0
DWIDTH 6 0
BBX 6 7 0 0
BITMAP
40
40
FC
C8
90
98
F8
ENDCHAR
STARTCHAR m_x
ENCODING -1
SWIDTH 1124 0
DWIDTH 10 0
BBX 11 5 0 0
BITMAP
7D40
D540
B580
ADA0
A6C0
ENDCHAR
STARTCHAR m_z
ENCODING -1
SWIDTH 1125 0
DWIDTH 10 0
BBX 10 5 0 0
BITMAP
7DC0
D480
B480
AD40
A7C0
ENDCHAR
STARTCHAR n_z
ENCODING -1
SWIDTH 882 0
DWIDTH 8 0
BBX 8 5 0 0
BITMAP
77
D2
B6
A5
BE
ENDCHAR
STARTCHAR o_ae
ENCODING -1
SWIDTH 1089 0
DWIDTH 10 0
BBX 10 5 0 0
BITMAP
67C0
F940
9780
AB40
EF80
ENDCHAR
STARTCHAR o_s
ENCODING -1
SWIDTH 786 0
DWIDTH 7 0
BBX 7 5 0 0
BITMAP
64
EC
94
AE
EC
ENDCHAR
STARTCHAR o_s_x
ENCODING -1
SWIDTH 1132 0
DWIDTH 10 0
BBX 11 5 0 0
BITMAP
6540
EDC0
9580
ADA0
EEC0
ENDCHAR
STARTCHAR o_s_z
ENCODING -1
SWIDTH 1139 0
DWIDTH 10 0
BBX 10 5 0 0
BITMAP
65C0
ED80
9480
AD00
EFC0
ENDCHAR
STARTCHAR o_x
ENCODING -1
SWIDTH 851 0
DWIDTH 8 0
BBX 8 5 0 0
BITMAP
67
FE
94
AD
CE
ENDCHAR
STARTCHAR oacute_s
ENCODING -1
SWIDTH 787 0
DWIDTH 7 0
BBX 7 7 0 0
BITMAP
30
20
64
EC
94
AE
EC
ENDCHAR
STARTCHAR oacute_s_x
ENCODING -1
SWIDTH 1141 0
DWIDTH 10 0
BBX 10 7 0 0
BITMAP
3000
2000
65C0
FD80
9480
AD00
EFC0
ENDCHAR
STARTCHAR oacute_s_z
ENCODING -1
SWIDTH 1140 0
DWIDTH 10 0
BBX 10 7 0 0
BITMAP
3000
2000
65C0
ED80
9480
AD00
EFC0
ENDCHAR
STARTCHAR oacute_x
ENCODING -1
SWIDTH 852 0
DWIDTH 8 0
BBX 8 7 0 0
BITMAP
30
00
67
FE
94
AD
CE
ENDCHAR
STARTCHAR r_x
ENCODING -1
SWIDTH 784 0
DWIDTH 7 0
BBX 7 6 0 0
BITMAP
02
7A
CA
8C
96
96
ENDCHAR
STARTCHAR r_z
ENCODING -1
SWIDTH 654 0
DWIDTH 6 0
BBX 6 5 0 0
BITMAP
7C
C8
98
94
B8
ENDCHAR
STARTCHAR s_x
ENCODING -1
SWIDTH 727 0
DWIDTH 7 0
BBX 7 5 0 0
BITMAP
7C
6C
E8
BA
CC
ENDCHAR
STARTCHAR s_z
ENCODING -1
SWIDTH 744 0
DWIDTH 7 0
BBX 7 5 0 0
BITMAP
7E
64
E8
AC
DC
ENDCHAR
STARTCHAR t_x
ENCODING -1
SWIDTH 631 0
DWIDTH 6 0
BBX 6 7 0 0
BITMAP
20
48
F4
D8
90
94
F8
ENDCHAR
STARTCHAR t_z
ENCODING -1
SWIDTH 704 0
DWIDTH 6 0
BBX 6 7 0 0
BITMAP
20
40
DC
CC
88
9C
FC
ENDCHAR
STARTCHAR u_v
ENCODING -1
SWIDTH 923 0
DWIDTH 8 0
BBX 8 5 0 0
BITMAP
55
D5
B5
AD
E6
ENDCHAR
STARTCHAR u_x
ENCODING -1
SWIDTH 878 0
DWIDTH 8 0
BBX 8 5 0 0
BITMAP
55
D5
B6
A7
FB
ENDCHAR
STARTCHAR y_p
ENCODING -1
SWIDTH 954 0
DWIDTH 9 0
BBX 8 8 0 -2
BITMAP
04
57
D5
B5
AD
FE
68
E8
ENDCHAR
STARTCHAR y_x
ENCODING -1
SWIDTH 871 0
DWIDTH 8 0
BBX 8 8 0 -2
BITMAP
01
55
D6
B4
A7
FB
60
E0
ENDCHAR
STARTCHAR y_z
ENCODING -1
SWIDTH 888 0
DWIDTH 8 0
BBX 8 7 0 -2
BITMAP
57
D2
B6
A5
EE
A0
E0
ENDCHAR
STARTCHAR a_x.end
ENCODING -1
SWIDTH 884 0
DWIDTH 8 0
BBX 8 6 0 0
BITMAP
01
75
D5
96
B6
DB
ENDCHAR
STARTCHAR b_s.end
ENCODING -1
SWIDTH 731 0
DWIDTH 7 0
BBX 7 7 0 0
BITMAP
40
40
64
DC
96
AE
EC
ENDCHAR
STARTCHAR e_x.end
ENCODING -1
SWIDTH 747 0
DWIDTH 7 0
BBX 7 5 0 0
BITMAP
6A
EC
C8
9C
E4
ENDCHAR
STARTCHAR f_u.end
ENCODING -1
SWIDTH 724 0
DWIDTH 7 0
BBX 9 9 -2 -2
BITMAP
1800
1000
1D80
3500
2500
2F00
6D80
A000
C000
ENDCHAR
STARTCHAR fi.end
ENCODING -1
SWIDTH 479 0
DWIDTH 4 0
BBX 6 9 -2 -2
BITMAP
1C
14
1C
34
24
2C
6C
A0
C0
ENDCHAR
STARTCHAR fl.end
ENCODING -1
SWIDTH 490 0
DWIDTH 4 0
BBX 7 9 -2 -2
BITMAP
1C
16
1C
34
24
2C
64
A0
C0
ENDCHAR
STARTCHAR i_x.end
ENCODING -1
SWIDTH 616 0
DWIDTH 6 0
BBX 6 7 0 0
BITMAP
40
40
5C
D4
98
90
F8
ENDCHAR
STARTCHAR o_s.end
ENCODING -1
SWIDTH 718 0
DWIDTH 6 0
BBX 6 5 0 0
BITMAP
64
EC
94
AC
EC
ENDCHAR
STARTCHAR oacute_s.end
ENCODING -1
SWIDTH 719 0
DWIDTH 6 0
BBX 6 7 0 0
BITMAP
30
20
64
EC
94
AC
EC
ENDCHAR
STARTCHAR u_x.end
ENCODING -1
SWIDTH 863 0
DWIDTH 8 0
BBX 8 5 0 0
BITMAP
55
D5
B6
A6
FA
ENDCHAR
STARTCHAR uni0424.loclBGR
ENCODING -1
SWIDTH 840 0
DWIDTH 8 0
BBX 7 9 0 -1
BITMAP
38
48
3C
5A
9A
92
D2
7C
30
ENDCHAR
STARTCHAR uni0492.loclBSH
ENCODING -1
SWIDTH 459 0
DWIDTH 4 0
BBX 5 7 0 0
BITMAP
78
A0
B0
20
60
40
40
ENDCHAR
STARTCHAR uni04AA.loclCHU
ENCODING -1
SWIDTH 497 0
DWIDTH 4 0
BBX 5 9 0 -2
BITMAP
38
48
40
C0
C0
C8
70
20
60
ENDCHAR
STARTCHAR uni0418.loclSRB
ENCODING -1
SWIDTH 705 0
DWIDTH 6 0
BBX 7 7 0 0
BITMAP
76
A4
AC
34
6C
68
48
ENDCHAR
STARTCHAR uni0419.loclSRB
ENCODING -1
SWIDTH 705 0
DWIDTH 6 0
BBX 7 10 0 0
BITMAP
14
18
00
76
A4
AC
34
6C
68
48
ENDCHAR
STARTCHAR uni0430.end
ENCODING -1
SWIDTH 467 0
DWIDTH 4 0
BBX 4 5 0 0
BITMAP
70
D0
90
B0
D0
ENDCHAR
STARTCHAR uni0432.end
ENCODING -1
SWIDTH 406 0
DWIDTH 4 0
BBX 4 7 0 0
BITMAP
30
50
50
E0
90
A0
E0
ENDCHAR
STARTCHAR uni0434.end
ENCODING -1
SWIDTH 480 0
DWIDTH 4 0
BBX 4 7 0 -2
BITMAP
70
D0
90
B0
E0
A0
60
ENDCHAR
STARTCHAR uni0435.end
ENCODING -1
SWIDTH 366 0
DWIDTH 3 0
BBX 3 5 0 0
BITMAP
60
E0
C0
A0
C0
ENDCHAR
STARTCHAR uni0451.end
ENCODING -1
SWIDTH 366 0
DWIDTH 3 0
BBX 4 7 0 0
BITMAP
50
00
60
E0
C0
A0
C0
ENDCHAR
STARTCHAR uni0436.end
ENCODING -1
SWIDTH 848 0
DWIDTH 8 0
BBX 8 5 0 0
BITMAP
CB
3D
3C
D4
D7
ENDCHAR
STARTCHAR uni0437.end
ENCODING -1
SWIDTH 426 0
DWIDTH 4 0
BBX 4 7 0 -2
BITMAP
70
B0
B0
40
60
A0
60
ENDCHAR
STARTCHAR uni0438.end
ENCODING -1
SWIDTH 459 0
DWIDTH 4 0
BBX 4 5 0 0
BITMAP
50
D0
B0
A0
F0
ENDCHAR
STARTCHAR uni0439.end
ENCODING -1
SWIDTH 459 0
DWIDTH 4 0
BBX 4 7 0 0
BITMAP
50
60
50
D0
B0
A0
F0
ENDCHAR
STARTCHAR uni043A.end
ENCODING -1
SWIDTH 501 0
DWIDTH 5 0
BBX 4 5 0 0
BITMAP
50
E0
F0
A0
B0
ENDCHAR
STARTCHAR uni043B.end
ENCODING -1
SWIDTH 511 0
DWIDTH 5 0
BBX 5 5 0 0
BITMAP
38
30
50
D0
D8
ENDCHAR
STARTCHAR uni043C.end
ENCODING -1
SWIDTH 780 0
DWIDTH 7 0
BBX 7 5 0 0
BITMAP
36
36
5E
DC
D6
ENDCHAR
STARTCHAR uni043D.end
ENCODING -1
SWIDTH 460 0
DWIDTH 4 0
BBX 4 5 0 0
BITMAP
50
D0
F0
A0
B0
ENDCHAR
STARTCHAR uni043E.end
ENCODING -1
SWIDTH 439 0
DWIDTH 4 0
BBX 3 5 0 0
BITMAP
60
E0
A0
A0
C0
ENDCHAR
STARTCHAR uni043F.end
ENCODING -1
SWIDTH 454 0
DWIDTH 4 0
BBX 4 5 0 0
BITMAP
70
D0
B0
A0
B0
ENDCHAR
STARTCHAR uni0441.end
ENCODING -1
SWIDTH 341 0
DWIDTH 3 0
BBX 3 5 0 0
BITMAP
60
E0
80
80
E0
ENDCHAR
STARTCHAR uni0442.end
ENCODING -1
SWIDTH 701 0
DWIDTH 6 0
BBX 6 5 0 0
BITMAP
7C
D4
B4
AC
A4
ENDCHAR
STARTCHAR uni0443.end
ENCODING -1
SWIDTH 460 0
DWIDTH 4 0
BBX 4 7 0 -2
BITMAP
50
D0
B0
A0
E0
A0
E0
ENDCHAR
STARTCHAR uni0445.end
ENCODING -1
SWIDTH 500 0
DWIDTH 5 0
BBX 5 6 0 0
BITMAP
10
68
B0
A0
60
B0
ENDCHAR
STARTCHAR uni0447.end
ENCODING -1
SWIDTH 459 0
DWIDTH 4 0
BBX 4 5 0 0
BITMAP
50
D0
F0
20
30
ENDCHAR
STARTCHAR uni0448.end
ENCODING -1
SWIDTH 706 0
DWIDTH 6 0
BBX 6 5 0 0
BITMAP
54
D4
B4
AC
F4
ENDCHAR
STARTCHAR uni044B.end
ENCODING -1
SWIDTH 608 0
DWIDTH 5 0
BBX 5 5 0 0
BITMAP
58
E8
A8
A8
C8
ENDCHAR
STARTCHAR uni0455.end
ENCODING -1
SWIDTH 316 0
DWIDTH 3 0
BBX 3 5 0 0
BITMAP
60
60
E0
A0
C0
ENDCHAR
STARTCHAR uni0456.end
ENCODING -1
SWIDTH 209 0
DWIDTH 2 0
BBX 2 7 0 0
BITMAP
40
40
40
C0
80
80
C0
ENDCHAR
STARTCHAR uni0458.end
ENCODING -1
SWIDTH 213 0
DWIDTH 2 0
BBX 4 10 -2 -2
BITMAP
10
10
00
10
30
20
20
20
E0
C0
ENDCHAR
STARTCHAR uni044E.end
ENCODING -1
SWIDTH 675 0
DWIDTH 6 0
BBX 6 5 0 0
BITMAP
58
F4
E4
A8
B8
ENDCHAR
STARTCHAR uni044F.end
ENCODING -1
SWIDTH 480 0
DWIDTH 4 0
BBX 4 5 0 0
BITMAP
70
50
70
F0
D0
ENDCHAR
STARTCHAR uni0437.init
ENCODING -1
SWIDTH 455 0
DWIDTH 4 0
BBX 4 7 0 -2
BITMAP
60
A0
20
50
20
E0
C0
ENDCHAR
STARTCHAR uni0445.init
ENCODING -1
SWIDTH 390 0
DWIDTH 4 0
BBX 5 6 -1 0
BITMAP
10
68
30
20
68
F0
ENDCHAR
STARTCHAR uni0436.loclBGR
ENCODING -1
SWIDTH 882 0
DWIDTH 8 0
BBX 8 7 0 0
BITMAP
08
08
CB
3D
3C
D5
D6
ENDCHAR
STARTCHAR uni043A.loclBGR
ENCODING -1
SWIDTH 518 0
DWIDTH 5 0
BBX 5 7 0 0
BITMAP
40
40
50
E0
B0
B8
B0
ENDCHAR
STARTCHAR uni044E.loclBGR
ENCODING -1
SWIDTH 675 0
DWIDTH 6 0
BBX 7 7 0 0
BITMAP
40
40
58
F6
E4
A8
B8
ENDCHAR
STARTCHAR uni0493.loclBSH
ENCODING -1
SWIDTH 398 0
DWIDTH 4 0
BBX 4 5 0 0
BITMAP
F0
80
E0
A0
C0
ENDCHAR
STARTCHAR uni04AB.loclCHU
ENCODING -1
SWIDTH 384 0
DWIDTH 3 0
BBX 4 7 0 -2
BITMAP
60
E0
80
90
E0
60
40
ENDCHAR
STARTCHAR uni0453.loclMKD
ENCODING -1
SWIDTH 267 0
DWIDTH 2 0
BBX 3 9 0 0
BITMAP
20
40
E0
00
40
C0
80
A0
C0
ENDCHAR
STARTCHAR uni0433.loclSRB
ENCODING -1
SWIDTH 267 0
DWIDTH 2 0
BBX 3 7 0 0
BITMAP
E0
00
40
C0
80
A0
C0
ENDCHAR
STARTCHAR uni043F.loclSRB
ENCODING -1
SWIDTH 505 0
DWIDTH 5 0
BBX 5 7 0 0
BITMAP
70
00
50
D0
B0
A8
F0
ENDCHAR
STARTCHAR uni0442.loclSRB
ENCODING -1
SWIDTH 752 0
DWIDTH 7 0
BBX 7 7 0 0
BITMAP
7C
00
54
D4
B4
AE
F4
ENDCHAR
STARTCHAR uni04150437
ENCODING -1
SWIDTH 940 0
DWIDTH 8 0
BBX 9 9 0 -2
BITMAP
3000
5000
6700
4B00
CB00
D480
E300
0600
0E00
ENDCHAR
STARTCHAR uni04150445
ENCODING -1
SWIDTH 797 0
DWIDTH 7 0
BBX 8 7 0 0
BITMAP
30
48
52
6A
CC
CD
F6
ENDCHAR
STARTCHAR uni04010437
ENCODING -1
SWIDTH 940 0
DWIDTH 8 0
BBX 9 12 0 -2
BITMAP
2800
0000
0000
3000
5000
6700
4B00
CB00
D480
E300
0600
0E00
ENDCHAR
STARTCHAR uni04010445
ENCODING -1
SWIDTH 797 0
DWIDTH 7 0
BBX 8 9 0 0
BITMAP
28
00
30
48
52
6A
CC
CD
F6
ENDCHAR
STARTCHAR uni04210437
ENCODING -1
SWIDTH 973 0
DWIDTH 9 0
BBX 9 9 0 -2
BITMAP
3800
4800
4700
C500
C900
CE80
7380
0600
0600
ENDCHAR
STARTCHAR uni04210445
ENCODING -1
SWIDTH 814 0
DWIDTH 7 0
BBX 8 7 0 0
BITMAP
38
48
42
CE
C4
CD
76
ENDCHAR
STARTCHAR uni04040437
ENCODING -1
SWIDTH 973 0
DWIDTH 9 0
BBX 9 9 0 -2
BITMAP
3800
4800
7700
C500
C900
CE80
7300
0600
0600
ENDCHAR
STARTCHAR uni04040445
ENCODING -1
SWIDTH 814 0
DWIDTH 7 0
BBX 8 7 0 0
BITMAP
38
48
7E
CE
C4
CD
76
ENDCHAR
STARTCHAR uni04300445
ENCODING -1
SWIDTH 899 0
DWIDTH 8 0
BBX 8 6 0 0
BITMAP
01
75
D5
96
B7
DB
ENDCHAR
STARTCHAR uni04300447
ENCODING -1
SWIDTH 993 0
DWIDTH 9 0
BBX 9 5 0 0
BITMAP
7580
D500
9700
B580
D180
ENDCHAR
STARTCHAR uni04310433
ENCODING -1
SWIDTH 816 0
DWIDTH 7 0
BBX 8 7 0 0
BITMAP
78
20
2E
D2
94
A9
CE
ENDCHAR
STARTCHAR uni04310453
ENCODING -1
SWIDTH 816 0
DWIDTH 7 0
BBX 8 7 0 0
BITMAP
7A
24
2E
D2
94
A9
CE
ENDCHAR
STARTCHAR uni04310451
ENCODING -1
SWIDTH 814 0
DWIDTH 7 0
BBX 8 7 0 0
BITMAP
7D
20
66
DA
9C
A9
CE
ENDCHAR
STARTCHAR uni04310436
ENCODING -1
SWIDTH 1261 0
DWIDTH 11 0
BBX 12 7 0 0
BITMAP
7800
2000
6DA0
D550
97C0
B550
DF60
ENDCHAR
STARTCHAR uni04310439
ENCODING -1
SWIDTH 935 0
DWIDTH 8 0
BBX 9 7 0 0
BITMAP
7D00
2600
6D00
DB00
9B00
AA80
CF00
ENDCHAR
STARTCHAR uni0431045E
ENCODING -1
SWIDTH 916 0
DWIDTH 8 0
BBX 9 9 0 -2
BITMAP
7F00
2000
6D00
DB00
AB00
AA80
CF00
0A00
0C00
ENDCHAR
STARTCHAR uni0431044D
ENCODING -1
SWIDTH 860 0
DWIDTH 8 0
BBX 7 7 0 0
BITMAP
78
20
6E
D2
96
AA
CC
ENDCHAR
STARTCHAR uni04310456
ENCODING -1
SWIDTH 697 0
DWIDTH 6 0
BBX 7 7 0 0
BITMAP
7C
24
6C
D8
98
AA
CC
ENDCHAR
STARTCHAR uni04310457
ENCODING -1
SWIDTH 697 0
DWIDTH 6 0
BBX 7 7 0 0
BITMAP
7A
20
6C
D8
98
AA
CC
ENDCHAR
STARTCHAR uni04310458
ENCODING -1
SWIDTH 669 0
DWIDTH 6 0
BBX 6 10 0 -2
BITMAP
34
7C
20
6C
D8
A8
AC
CC
38
30
ENDCHAR
STARTCHAR uni04320433
ENCODING -1
SWIDTH 837 0
DWIDTH 8 0
BBX 8 7 0 0
BITMAP
30
50
5E
F2
94
A9
EE
ENDCHAR
STARTCHAR uni04320453
ENCODING -1
SWIDTH 837 0
DWIDTH 8 0
BBX 8 7 0 0
BITMAP
32
54
5E
F2
94
A9
EE
ENDCHAR
STARTCHAR uni04320436
ENCODING -1
SWIDTH 1279 0
DWIDTH 12 0
BBX 12 7 0 0
BITMAP
3000
5000
5DB0
F350
97C0
AD50
ED60
ENDCHAR
STARTCHAR uni04320437
ENCODING -1
SWIDTH 824 0
DWIDTH 7 0
BBX 8 9 0 -2
BITMAP
30
50
5E
F6
94
A9
E6
0C
1C
ENDCHAR
STARTCHAR uni04320445
ENCODING -1
SWIDTH 851 0
DWIDTH 8 0
BBX 8 7 0 0
BITMAP
30
52
5D
B6
94
AD
F6
ENDCHAR
STARTCHAR uni04330437
ENCODING -1
SWIDTH 840 0
DWIDTH 8 0
BBX 8 7 0 -2
BITMAP
6E
B2
56
AD
C6
0C
0C
ENDCHAR
STARTCHAR uni04330445
ENCODING -1
SWIDTH 740 0
DWIDTH 7 0
BBX 7 5 0 0
BITMAP
7E
AC
48
9A
EC
ENDCHAR
STARTCHAR uni04330447
ENCODING -1
SWIDTH 880 0
DWIDTH 8 0
BBX 8 5 0 0
BITMAP
6B
AA
5E
9B
E3
ENDCHAR
STARTCHAR uni04530437
ENCODING -1
SWIDTH 840 0
DWIDTH 8 0
BBX 8 9 0 -2
BITMAP
30
20
6E
B2
56
AD
C6
0C
0C
ENDCHAR
STARTCHAR uni04530445
ENCODING -1
SWIDTH 740 0
DWIDTH 7 0
BBX 7 7 0 0
BITMAP
30
20
7E
AC
48
9A
EC
ENDCHAR
STARTCHAR uni04530447
ENCODING -1
SWIDTH 880 0
DWIDTH 8 0
BBX 8 7 0 0
BITMAP
30
20
6B
AA
5E
9B
E3
ENDCHAR
STARTCHAR uni04340447
ENCODING -1
SWIDTH 1010 0
DWIDTH 9 0
BBX 9 7 0 -2
BITMAP
7580
D500
9700
BD80
F180
6000
6000
ENDCHAR
STARTCHAR uni04340458
ENCODING -1
SWIDTH 746 0
DWIDTH 7 0
BBX 7 10 0 -2
BITMAP
04
06
00
74
D4
94
BE
FC
68
78
ENDCHAR
STARTCHAR uni04350437
ENCODING -1
SWIDTH 876 0
DWIDTH 8 0
BBX 8 7 0 -2
BITMAP
66
EA
D2
9D
E7
0E
0C
ENDCHAR
STARTCHAR uni04350445
ENCODING -1
SWIDTH 762 0
DWIDTH 7 0
BBX 7 5 0 0
BITMAP
6A
EC
C8
8E
F6
ENDCHAR
STARTCHAR uni04350447
ENCODING -1
SWIDTH 889 0
DWIDTH 8 0
BBX 8 5 0 0
BITMAP
6B
EA
CE
9B
E3
ENDCHAR
STARTCHAR uni04510437
ENCODING -1
SWIDTH 876 0
DWIDTH 8 0
BBX 8 9 0 -2
BITMAP
50
00
66
EA
D2
9D
E7
0E
0C
ENDCHAR
STARTCHAR uni04510445
ENCODING -1
SWIDTH 762 0
DWIDTH 7 0
BBX 7 7 0 0
BITMAP
50
00
6A
EC
C8
8E
F6
ENDCHAR
STARTCHAR uni04510447
ENCODING -1
SWIDTH 889 0
DWIDTH 8 0
BBX 8 7 0 0
BITMAP
50
00
6B
EA
DE
9B
E3
ENDCHAR
STARTCHAR uni04360447
ENCODING -1
SWIDTH 1392 0
DWIDTH 13 0
BBX 13 5 0 0
BITMAP
CBD0
3DD0
3CB0
D568
D630
ENDCHAR
STARTCHAR uni04370437
ENCODING -1
SWIDTH 921 0
DWIDTH 8 0
BBX 9 7 0 -2
BITMAP
7600
BB00
B200
5480
3300
EE00
6C00
ENDCHAR
STARTCHAR uni04380447
ENCODING -1
SWIDTH 1010 0
DWIDTH 9 0
BBX 9 5 0 0
BITMAP
5580
D500
B700
A980
F180
ENDCHAR
STARTCHAR uni04390447
ENCODING -1
SWIDTH 1010 0
DWIDTH 9 0
BBX 9 7 0 0
BITMAP
5000
6000
5580
D500
B700
A980
F180
ENDCHAR
STARTCHAR uni043A0447
ENCODING -1
SWIDTH 1016 0
DWIDTH 9 0
BBX 10 5 0 0
BITMAP
5780
E580
F700
A940
B180
ENDCHAR
STARTCHAR uni045C0447
ENCODING -1
SWIDTH 1016 0
DWIDTH 9 0
BBX 10 7 0 0
BITMAP
1000
2000
5780
E580
F700
A940
B180
ENDCHAR
STARTCHAR uni043B0447
ENCODING -1
SWIDTH 1061 0
DWIDTH 10 0
BBX 10 5 0 0
BITMAP
3A80
3680
5780
D540
D980
ENDCHAR
STARTCHAR uni043C0447
ENCODING -1
SWIDTH 1276 0
DWIDTH 11 0
BBX 12 5 0 0
BITMAP
27A0
25E0
2DE0
F650
F660
ENDCHAR
STARTCHAR uni043D0447
ENCODING -1
SWIDTH 1011 0
DWIDTH 9 0
BBX 9 5 0 0
BITMAP
5580
D500
F500
AB80
B180
ENDCHAR
STARTCHAR uni043E0433
ENCODING -1
SWIDTH 804 0
DWIDTH 7 0
BBX 8 5 0 0
BITMAP
6E
F2
94
A9
CE
ENDCHAR
STARTCHAR uni043E0453
ENCODING -1
SWIDTH 804 0
DWIDTH 7 0
BBX 8 7 0 0
BITMAP
02
02
6E
F2
94
A9
CE
ENDCHAR
STARTCHAR uni043E0436
ENCODING -1
SWIDTH 1271 0
DWIDTH 11 0
BBX 12 5 0 0
BITMAP
6DB0
F750
97C0
B550
DD60
ENDCHAR
STARTCHAR uni043E0437
ENCODING -1
SWIDTH 837 0
DWIDTH 8 0
BBX 8 7 0 -2
BITMAP
6E
F2
96
AD
C6
0C
0C
ENDCHAR
STARTCHAR uni043E043B
ENCODING -1
SWIDTH 992 0
DWIDTH 9 0
BBX 9 5 0 0
BITMAP
6380
D500
9500
AD80
F980
ENDCHAR
STARTCHAR uni043E043C
ENCODING -1
SWIDTH 1207 0
DWIDTH 11 0
BBX 11 5 0 0
BITMAP
6240
D2C0
92C0
AFE0
FB60
ENDCHAR
STARTCHAR uni043E0445
ENCODING -1
SWIDTH 850 0
DWIDTH 8 0
BBX 8 5 0 0
BITMAP
67
FE
94
AD
CE
ENDCHAR
STARTCHAR uni043E0459
ENCODING -1
SWIDTH 1179 0
DWIDTH 11 0
BBX 10 5 0 0
BITMAP
6380
D5C0
9540
AD40
F980
ENDCHAR
STARTCHAR uni043E044D
ENCODING -1
SWIDTH 867 0
DWIDTH 8 0
BBX 7 5 0 0
BITMAP
6E
F2
96
AA
CC
ENDCHAR
STARTCHAR uni043F0447
ENCODING -1
SWIDTH 1010 0
DWIDTH 9 0
BBX 9 5 0 0
BITMAP
7580
D500
B700
A980
B180
ENDCHAR
STARTCHAR uni04400437
ENCODING -1
SWIDTH 890 0
DWIDTH 8 0
BBX 9 8 -1 -2
BITMAP
2000
7B00
6D00
4900
5A80
7380
C700
C600
ENDCHAR
STARTCHAR uni04410437
ENCODING -1
SWIDTH 876 0
DWIDTH 8 0
BBX 8 7 0 -2
BITMAP
66
EA
92
9D
E7
0E
0C
ENDCHAR
STARTCHAR uni04410445
ENCODING -1
SWIDTH 755 0
DWIDTH 7 0
BBX 7 5 0 0
BITMAP
6A
EA
8C
8E
F4
ENDCHAR
STARTCHAR uni04410447
ENCODING -1
SWIDTH 889 0
DWIDTH 8 0
BBX 8 5 0 0
BITMAP
6B
EA
8E
9B
E3
ENDCHAR
STARTCHAR uni0441044A
ENCODING -1
SWIDTH 841 0
DWIDTH 8 0
BBX 7 5 0 0
BITMAP
6C
EE
8A
9A
EE
ENDCHAR
STARTCHAR uni04420447
ENCODING -1
SWIDTH 1257 0
DWIDTH 11 0
BBX 12 5 0 0
BITMAP
7DA0
D560
B5C0
AE50
A460
ENDCHAR
STARTCHAR uni04430447
ENCODING -1
SWIDTH 989 0
DWIDTH 9 0
BBX 9 7 0 -2
BITMAP
5500
D500
BF00
AB80
F180
6000
E000
ENDCHAR
STARTCHAR uni04430458
ENCODING -1
SWIDTH 725 0
DWIDTH 7 0
BBX 7 10 0 -2
BITMAP
04
06
00
54
D4
B4
AE
EC
78
F8
ENDCHAR
STARTCHAR uni045E0447
ENCODING -1
SWIDTH 989 0
DWIDTH 9 0
BBX 9 10 0 -2
BITMAP
5000
6000
0000
5500
D500
BF00
AB80
F180
6000
E000
ENDCHAR
STARTCHAR uni045E0458
ENCODING -1
SWIDTH 725 0
DWIDTH 7 0
BBX 7 10 0 -2
BITMAP
56
64
00
54
D4
B4
AE
FC
A8
F8
ENDCHAR
STARTCHAR uni04440437
ENCODING -1
SWIDTH 1148 0
DWIDTH 10 0
BBX 11 9 0 -2
BITMAP
1800
1000
7D80
D6C0
9480
B520
F8C0
2180
2380
ENDCHAR
STARTCHAR uni04450447
ENCODING -1
SWIDTH 1027 0
DWIDTH 9 0
BBX 10 6 0 0
BITMAP
1000
6F80
B580
A700
6D40
9180
ENDCHAR
STARTCHAR uni0445044A
ENCODING -1
SWIDTH 1006 0
DWIDTH 9 0
BBX 9 6 0 0
BITMAP
1000
7F00
B300
A480
6580
9F00
ENDCHAR
STARTCHAR uni04470447
ENCODING -1
SWIDTH 1010 0
DWIDTH 9 0
BBX 9 5 0 0
BITMAP
5580
D500
F700
2980
3180
ENDCHAR
STARTCHAR uni04480447
ENCODING -1
SWIDTH 1257 0
DWIDTH 11 0
BBX 12 5 0 0
BITMAP
55A0
D560
B5C0
AE50
F460
ENDCHAR
STARTCHAR uni045F0447
ENCODING -1
SWIDTH 1010 0
DWIDTH 9 0
BBX 9 7 0 -2
BITMAP
5580
D500
B700
A980
F180
6000
2000
ENDCHAR
STARTCHAR uni044B0447
ENCODING -1
SWIDTH 1157 0
DWIDTH 10 0
BBX 11 5 0 0
BITMAP
5B40
EAC0
ABC0
ACA0
CCC0
ENDCHAR
STARTCHAR uni04550437
ENCODING -1
SWIDTH 840 0
DWIDTH 8 0
BBX 8 7 0 -2
BITMAP
6E
72
F6
AD
E6
0C
0C
ENDCHAR
STARTCHAR uni04550445
ENCODING -1
SWIDTH 727 0
DWIDTH 7 0
BBX 7 5 0 0
BITMAP
7C
6C
E8
BA
CC
ENDCHAR
STARTCHAR uni04550447
ENCODING -1
SWIDTH 909 0
DWIDTH 8 0
BBX 9 5 0 0
BITMAP
6F00
6A00
EE00
B280
C300
ENDCHAR
STARTCHAR uni04540437
ENCODING -1
SWIDTH 876 0
DWIDTH 8 0
BBX 8 7 0 -2
BITMAP
66
CA
92
9D
E6
0E
0C
ENDCHAR
STARTCHAR uni04540445
ENCODING -1
SWIDTH 755 0
DWIDTH 7 0
BBX 7 5 0 0
BITMAP
6A
EA
CC
8A
F6
ENDCHAR
STARTCHAR uni04540447
ENCODING -1
SWIDTH 889 0
DWIDTH 8 0
BBX 8 5 0 0
BITMAP
6B
EA
DE
9B
E3
ENDCHAR
STARTCHAR uni044D0437
ENCODING -1
SWIDTH 837 0
DWIDTH 8 0
BBX 8 7 0 -2
BITMAP
EE
72
26
AD
C6
0C
0C
ENDCHAR
STARTCHAR uni04560447
ENCODING -1
SWIDTH 763 0
DWIDTH 7 0
BBX 7 7 0 0
BITMAP
40
40
54
D4
BC
AE
C6
ENDCHAR
STARTCHAR uni04570447
ENCODING -1
SWIDTH 763 0
DWIDTH 7 0
BBX 7 7 0 0
BITMAP
A0
00
54
D4
BC
AE
C6
ENDCHAR
STARTCHAR uni04570457
ENCODING -1
SWIDTH 543 0
DWIDTH 5 0
BBX 5 7 0 0
BITMAP
F8
00
50
D0
90
B8
F0
ENDCHAR
STARTCHAR uni04580447
ENCODING -1
SWIDTH 743 0
DWIDTH 7 0
BBX 9 10 -2 -2
BITMAP
1000
1000
0000
1500
3D00
2F00
2B80
3300
E000
C000
ENDCHAR
STARTCHAR uni04580458
ENCODING -1
SWIDTH 480 0
DWIDTH 4 0
BBX 7 10 -2 -2
BITMAP
14
14
00
14
3C
2C
2A
3C
E8
F8
ENDCHAR
STARTCHAR uni045B0447
ENCODING -1
SWIDTH 990 0
DWIDTH 9 0
BBX 9 9 0 -2
BITMAP
4000
E000
F500
F500
BF00
AB80
B180
E000
6000
ENDCHAR
STARTCHAR uni045B0458
ENCODING -1
SWIDTH 722 0
DWIDTH 7 0
BBX 7 10 0 -2
BITMAP
04
44
E0
F4
F4
BC
AE
BC
E8
78
ENDCHAR
STARTCHAR uni044E0433
ENCODING -1
SWIDTH 1050 0
DWIDTH 9 0
BBX 10 5 0 0
BITMAP
5980
F680
E500
AA40
BB80
ENDCHAR
STARTCHAR uni044E0453
ENCODING -1
SWIDTH 1050 0
DWIDTH 9 0
BBX 10 7 0 0
BITMAP
00C0
0080
5980
F680
E500
AA40
BB80
ENDCHAR
STARTCHAR uni044E0436
ENCODING -1
SWIDTH 1507 0
DWIDTH 14 0
BBX 14 5 0 0
BITMAP
5F2C
F4F4
E4F0
AB54
BB58
ENDCHAR
STARTCHAR uni044E0437
ENCODING -1
SWIDTH 1073 0
DWIDTH 10 0
BBX 10 7 0 -2
BITMAP
5F80
F480
A580
AB40
B9C0
0300
0300
ENDCHAR
STARTCHAR uni044E043B
ENCODING -1
SWIDTH 1228 0
DWIDTH 11 0
BBX 11 5 0 0
BITMAP
58E0
F4C0
E540
AB60
BF60
ENDCHAR
STARTCHAR uni044E043C
ENCODING -1
SWIDTH 1443 0
DWIDTH 13 0
BBX 13 5 0 0
BITMAP
5898
F490
E4B0
ABD8
BFD8
ENDCHAR
STARTCHAR uni044E0445
ENCODING -1
SWIDTH 1088 0
DWIDTH 10 0
BBX 10 6 0 0
BITMAP
0040
5D40
F740
E580
AB40
BA80
ENDCHAR
STARTCHAR uni044E0459
ENCODING -1
SWIDTH 1415 0
DWIDTH 13 0
BBX 12 5 0 0
BITMAP
58E0
F4C0
E570
AB50
BF70
ENDCHAR
STARTCHAR uni044E044D
ENCODING -1
SWIDTH 1103 0
DWIDTH 10 0
BBX 10 5 0 0
BITMAP
5980
F6C0
E580
AA80
BB00
ENDCHAR
STARTCHAR uni044F0447
ENCODING -1
SWIDTH 1030 0
DWIDTH 9 0
BBX 10 5 0 0
BITMAP
7780
5580
7700
F940
D180
ENDCHAR
STARTCHAR uni04300445.liga
ENCODING -1
SWIDTH 884 0
DWIDTH 8 0
BBX 8 6 0 0
BITMAP
01
75
D5
96
B6
DB
ENDCHAR
STARTCHAR uni04300447.liga
ENCODING -1
SWIDTH 947 0
DWIDTH 9 0
BBX 9 5 0 0
BITMAP
7580
D500
9700
B500
D180
ENDCHAR
STARTCHAR uni04310451.liga
ENCODING -1
SWIDTH 746 0
DWIDTH 7 0
BBX 8 7 0 0
BITMAP
7D
20
66
DA
9C
AA
CC
ENDCHAR
STARTCHAR uni04310436.liga
ENCODING -1
SWIDTH 1258 0
DWIDTH 11 0
BBX 12 7 0 0
BITMAP
7800
2000
6DA0
D550
97C0
B540
DF60
ENDCHAR
STARTCHAR uni04310439.liga
ENCODING -1
SWIDTH 901 0
DWIDTH 8 0
BBX 8 7 0 0
BITMAP
7D
26
6D
DB
9B
AA
CF
ENDCHAR
STARTCHAR uni0431045E.liga
ENCODING -1
SWIDTH 890 0
DWIDTH 8 0
BBX 8 9 0 -2
BITMAP
7F
20
6D
DB
AB
AA
CE
0A
0C
ENDCHAR
STARTCHAR uni04310456.liga
ENCODING -1
SWIDTH 639 0
DWIDTH 6 0
BBX 6 7 0 0
BITMAP
7C
24
6C
D8
98
A8
CC
ENDCHAR
STARTCHAR uni04310457.liga
ENCODING -1
SWIDTH 638 0
DWIDTH 6 0
BBX 7 7 0 0
BITMAP
7A
20
6C
D8
98
A8
CC
ENDCHAR
STARTCHAR uni04310458.liga
ENCODING -1
SWIDTH 638 0
DWIDTH 6 0
BBX 6 10 0 -2
BITMAP
34
7C
20
6C
D8
A8
A8
C8
38
30
ENDCHAR
STARTCHAR uni04320436.liga
ENCODING -1
SWIDTH 1275 0
DWIDTH 11 0
BBX 12 7 0 0
BITMAP
3000
5000
5DB0
F350
97C0
AD40
ED60
ENDCHAR
STARTCHAR uni04320437.liga
ENCODING -1
SWIDTH 752 0
DWIDTH 7 0
BBX 7 9 0 -2
BITMAP
30
50
5E
F6
94
A8
E4
1C
1C
ENDCHAR
STARTCHAR uni04320445.liga
ENCODING -1
SWIDTH 842 0
DWIDTH 8 0
BBX 8 7 0 0
BITMAP
30
52
5D
B6
94
AC
F6
ENDCHAR
STARTCHAR uni04330437.liga
ENCODING -1
SWIDTH 768 0
DWIDTH 7 0
BBX 7 7 0 -2
BITMAP
6E
B2
56
AC
C4
1C
0C
ENDCHAR
STARTCHAR uni04330445.liga
ENCODING -1
SWIDTH 725 0
DWIDTH 7 0
BBX 7 5 0 0
BITMAP
7E
AC
48
98
EC
ENDCHAR
STARTCHAR uni04330447.liga
ENCODING -1
SWIDTH 834 0
DWIDTH 8 0
BBX 8 5 0 0
BITMAP
6B
AA
5E
9A
E2
ENDCHAR
STARTCHAR uni04530437.liga
ENCODING -1
SWIDTH 768 0
DWIDTH 7 0
BBX 7 9 0 -2
BITMAP
30
20
6E
B2
56
AC
C4
1C
0C
ENDCHAR
STARTCHAR uni04530445.liga
ENCODING -1
SWIDTH 725 0
DWIDTH 7 0
BBX 7 7 0 0
BITMAP
30
20
7E
AC
48
98
EC
ENDCHAR
STARTCHAR uni04530447.liga
ENCODING -1
SWIDTH 834 0
DWIDTH 8 0
BBX 8 7 0 0
BITMAP
30
20
6B
AA
5E
9A
E2
ENDCHAR
STARTCHAR uni04340447.liga
ENCODING -1
SWIDTH 965 0
DWIDTH 9 0
BBX 9 7 0 -2
BITMAP
7580
D500
9700
BD00
F180
6000
6000
ENDCHAR
STARTCHAR uni04340458.liga
ENCODING -1
SWIDTH 715 0
DWIDTH 6 0
BBX 7 10 0 -2
BITMAP
04
06
00
74
D4
94
BC
FC
68
78
ENDCHAR
STARTCHAR uni04350437.liga
ENCODING -1
SWIDTH 804 0
DWIDTH 7 0
BBX 7 7 0 -2
BITMAP
66
EA
D2
9C
E6
0E
0C
ENDCHAR
STARTCHAR uni04350445.liga
ENCODING -1
SWIDTH 747 0
DWIDTH 7 0
BBX 7 5 0 0
BITMAP
6A
EC
C8
9C
E4
ENDCHAR
STARTCHAR uni04350447.liga
ENCODING -1
SWIDTH 844 0
DWIDTH 8 0
BBX 8 5 0 0
BITMAP
6B
EA
CE
9A
E3
ENDCHAR
STARTCHAR uni04510437.liga
ENCODING -1
SWIDTH 804 0
DWIDTH 7 0
BBX 7 9 0 -2
BITMAP
50
00
66
EA
D2
9C
E6
0E
0C
ENDCHAR
STARTCHAR uni04510445.liga
ENCODING -1
SWIDTH 747 0
DWIDTH 7 0
BBX 7 7 0 0
BITMAP
50
00
6A
EC
C8
9C
E4
ENDCHAR
STARTCHAR uni04510447.liga
ENCODING -1
SWIDTH 844 0
DWIDTH 8 0
BBX 8 7 0 0
BITMAP
50
00
6B
EA
CE
9A
E3
ENDCHAR
STARTCHAR uni04360447.liga
ENCODING -1
SWIDTH 1341 0
DWIDTH 12 0
BBX 12 5 0 0
BITMAP
CBD0
3DD0
3CB0
D560
D630
ENDCHAR
STARTCHAR uni04370437.liga
ENCODING -1
SWIDTH 849 0
DWIDTH 8 0
BBX 8 7 0 -2
BITMAP
76
BB
B2
54
36
EA
6C
ENDCHAR
STARTCHAR uni04380447.liga
ENCODING -1
SWIDTH 964 0
DWIDTH 9 0
BBX 9 5 0 0
BITMAP
5580
D500
B700
A900
F180
ENDCHAR
STARTCHAR uni04390447.liga
ENCODING -1
SWIDTH 964 0
DWIDTH 9 0
BBX 9 7 0 0
BITMAP
5000
6000
5580
D500
B700
A900
F180
ENDCHAR
STARTCHAR uni043A0447.liga
ENCODING -1
SWIDTH 978 0
DWIDTH 9 0
BBX 9 5 0 0
BITMAP
5780
E580
F700
A900
B180
ENDCHAR
STARTCHAR uni045C0447.liga
ENCODING -1
SWIDTH 978 0
DWIDTH 9 0
BBX 9 7 0 0
BITMAP
1000
2000
5780
E580
F700
A900
B180
ENDCHAR
STARTCHAR uni043B0447.liga
ENCODING -1
SWIDTH 1015 0
DWIDTH 9 0
BBX 9 5 0 0
BITMAP
3A80
3680
5780
D500
D980
ENDCHAR
STARTCHAR uni043C0447.liga
ENCODING -1
SWIDTH 1231 0
DWIDTH 11 0
BBX 11 5 0 0
BITMAP
27A0
25E0
2DE0
F640
F660
ENDCHAR
STARTCHAR uni043D0447.liga
ENCODING -1
SWIDTH 965 0
DWIDTH 9 0
BBX 9 5 0 0
BITMAP
5580
D500
F500
AB00
B180
ENDCHAR
STARTCHAR uni043E0436.liga
ENCODING -1
SWIDTH 1268 0
DWIDTH 11 0
BBX 12 5 0 0
BITMAP
6DB0
F750
97C0
B540
DD60
ENDCHAR
STARTCHAR uni043E0437.liga
ENCODING -1
SWIDTH 765 0
DWIDTH 7 0
BBX 7 7 0 -2
BITMAP
6E
F2
96
AC
C4
1C
0C
ENDCHAR
STARTCHAR uni043E043B.liga
ENCODING -1
SWIDTH 945 0
DWIDTH 9 0
BBX 9 5 0 0
BITMAP
6380
D500
9500
AD00
F900
ENDCHAR
STARTCHAR uni043E043C.liga
ENCODING -1
SWIDTH 1161 0
DWIDTH 10 0
BBX 10 5 0 0
BITMAP
6240
D2C0
92C0
AF40
FB40
ENDCHAR
STARTCHAR uni043E0445.liga
ENCODING -1
SWIDTH 835 0
DWIDTH 8 0
BBX 8 5 0 0
BITMAP
67
FE
94
AC
CE
ENDCHAR
STARTCHAR uni043F0447.liga
ENCODING -1
SWIDTH 965 0
DWIDTH 9 0
BBX 9 5 0 0
BITMAP
7580
D500
B700
A900
B180
ENDCHAR
STARTCHAR uni04400437.liga
ENCODING -1
SWIDTH 818 0
DWIDTH 7 0
BBX 8 8 -1 -2
BITMAP
20
7B
6D
49
5A
73
C7
C6
ENDCHAR
STARTCHAR uni04410437.liga
ENCODING -1
SWIDTH 804 0
DWIDTH 7 0
BBX 7 7 0 -2
BITMAP
66
EA
92
9C
E6
0E
0C
ENDCHAR
STARTCHAR uni04410445.liga
ENCODING -1
SWIDTH 740 0
DWIDTH 7 0
BBX 7 5 0 0
BITMAP
6A
EA
8C
8C
F4
ENDCHAR
STARTCHAR uni04410447.liga
ENCODING -1
SWIDTH 843 0
DWIDTH 8 0
BBX 8 5 0 0
BITMAP
6B
EA
8E
9A
E3
ENDCHAR
STARTCHAR uni04420447.liga
ENCODING -1
SWIDTH 1211 0
DWIDTH 11 0
BBX 11 5 0 0
BITMAP
7DA0
D560
B5C0
AE40
A460
ENDCHAR
STARTCHAR uni04430447.liga
ENCODING -1
SWIDTH 943 0
DWIDTH 8 0
BBX 8 7 0 -2
BITMAP
55
D5
BF
AB
F1
60
E0
ENDCHAR
STARTCHAR uni04430458.liga
ENCODING -1
SWIDTH 694 0
DWIDTH 6 0
BBX 7 10 0 -2
BITMAP
04
06
00
54
D4
B4
AC
E8
78
F8
ENDCHAR
STARTCHAR uni045E0447.liga
ENCODING -1
SWIDTH 943 0
DWIDTH 8 0
BBX 8 10 0 -2
BITMAP
50
60
00
55
D5
BF
AB
F1
60
E0
ENDCHAR
STARTCHAR uni045E0458.liga
ENCODING -1
SWIDTH 694 0
DWIDTH 6 0
BBX 7 10 0 -2
BITMAP
56
64
00
54
D4
B4
AC
F8
A8
F8
ENDCHAR
STARTCHAR uni04440437.liga
ENCODING -1
SWIDTH 1076 0
DWIDTH 10 0
BBX 10 9 0 -2
BITMAP
1800
1000
7D80
D6C0
9480
B500
F880
2380
2380
ENDCHAR
STARTCHAR uni04450447.liga
ENCODING -1
SWIDTH 981 0
DWIDTH 9 0
BBX 9 6 0 0
BITMAP
1000
6F80
B580
A700
6D00
9180
ENDCHAR
STARTCHAR uni04470447.liga
ENCODING -1
SWIDTH 964 0
DWIDTH 9 0
BBX 9 5 0 0
BITMAP
5580
D500
F700
2900
3180
ENDCHAR
STARTCHAR uni04480447.liga
ENCODING -1
SWIDTH 1211 0
DWIDTH 11 0
BBX 11 5 0 0
BITMAP
55A0
D560
B5C0
AE40
F460
ENDCHAR
STARTCHAR uni045F0447.liga
ENCODING -1
SWIDTH 964 0
DWIDTH 9 0
BBX 9 7 0 -2
BITMAP
5580
D500
B700
A900
F180
6000
2000
ENDCHAR
STARTCHAR uni044B0447.liga
ENCODING -1
SWIDTH 1112 0
DWIDTH 10 0
BBX 10 5 0 0
BITMAP
5B40
EAC0
ABC0
AC80
CCC0
ENDCHAR
STARTCHAR uni04550437.liga
ENCODING -1
SWIDTH 768 0
DWIDTH 7 0
BBX 7 7 0 -2
BITMAP
6E
72
F6
AC
E4
1C
0C
ENDCHAR
STARTCHAR uni04550445.liga
ENCODING -1
SWIDTH 712 0
DWIDTH 6 0
BBX 6 5 0 0
BITMAP
7C
6C
EC
B8
CC
ENDCHAR
STARTCHAR uni04550447.liga
ENCODING -1
SWIDTH 864 0
DWIDTH 8 0
BBX 8 5 0 0
BITMAP
6F
6A
EE
B2
C3
ENDCHAR
STARTCHAR uni04540437.liga
ENCODING -1
SWIDTH 804 0
DWIDTH 7 0
BBX 7 7 0 -2
BITMAP
66
CA
92
9C
E6
0E
0C
ENDCHAR
STARTCHAR uni04540445.liga
ENCODING -1
SWIDTH 740 0
DWIDTH 7 0
BBX 7 5 0 0
BITMAP
6A
EA
CC
88
F4
ENDCHAR
STARTCHAR uni04540447.liga
ENCODING -1
SWIDTH 844 0
DWIDTH 8 0
BBX 8 5 0 0
BITMAP
6B
EA
DE
9A
E3
ENDCHAR
STARTCHAR uni044D0437.liga
ENCODING -1
SWIDTH 765 0
DWIDTH 7 0
BBX 7 7 0 -2
BITMAP
EE
72
26
AC
C4
1C
0C
ENDCHAR
STARTCHAR uni04560447.liga
ENCODING -1
SWIDTH 717 0
DWIDTH 6 0
BBX 6 7 0 0
BITMAP
40
40
54
D4
BC
AC
C4
ENDCHAR
STARTCHAR uni04570447.liga
ENCODING -1
SWIDTH 718 0
DWIDTH 6 0
BBX 6 7 0 0
BITMAP
A0
00
54
D4
BC
AC
C4
ENDCHAR
STARTCHAR uni04570457.liga
ENCODING -1
SWIDTH 476 0
DWIDTH 4 0
BBX 5 7 0 0
BITMAP
F8
00
50
D0
90
B0
F0
ENDCHAR
STARTCHAR uni04580447.liga
ENCODING -1
SWIDTH 697 0
DWIDTH 6 0
BBX 8 10 -2 -2
BITMAP
10
10
00
15
3D
2F
2B
33
E0
C0
ENDCHAR
STARTCHAR uni04580458.liga
ENCODING -1
SWIDTH 449 0
DWIDTH 4 0
BBX 6 10 -2 -2
BITMAP
14
14
00
14
3C
2C
28
38
E8
F8
ENDCHAR
STARTCHAR uni045B0447.liga
ENCODING -1
SWIDTH 937 0
DWIDTH 8 0
BBX 8 9 0 -2
BITMAP
40
E0
F5
F5
BF
AB
B1
E0
60
ENDCHAR
STARTCHAR uni045B0458.liga
ENCODING -1
SWIDTH 691 0
DWIDTH 6 0
BBX 6 10 0 -2
BITMAP
04
44
E0
F4
F4
BC
AC
A8
F8
78
ENDCHAR
STARTCHAR uni044E0436.liga
ENCODING -1
SWIDTH 1503 0
DWIDTH 14 0
BBX 14 5 0 0
BITMAP
5F2C
F4F4
E4F0
AB54
BB58
ENDCHAR
STARTCHAR uni044E0437.liga
ENCODING -1
SWIDTH 1001 0
DWIDTH 9 0
BBX 9 7 0 -2
BITMAP
5F80
F480
A580
AB00
B900
0300
0300
ENDCHAR
STARTCHAR uni044E043B.liga
ENCODING -1
SWIDTH 1181 0
DWIDTH 11 0
BBX 11 5 0 0
BITMAP
58E0
F4C0
E540
AB40
BF60
ENDCHAR
STARTCHAR uni044E043C.liga
ENCODING -1
SWIDTH 1396 0
DWIDTH 13 0
BBX 13 5 0 0
BITMAP
5898
F490
E4B0
ABD0
BFD8
ENDCHAR
STARTCHAR uni044E0445.liga
ENCODING -1
SWIDTH 1072 0
DWIDTH 10 0
BBX 10 6 0 0
BITMAP
0040
5D40
F740
E580
AB00
BA80
ENDCHAR
STARTCHAR uni044F0447.liga
ENCODING -1
SWIDTH 984 0
DWIDTH 9 0
BBX 9 5 0 0
BITMAP
7780
5580
7700
F900
D180
ENDCHAR
STARTCHAR brevecombcy
ENCODING -1
SWIDTH 0 0
DWIDTH 0 0
BBX 3 2 -3 5
BITMAP
E0
60
ENDCHAR
STARTCHAR brevecombcy.case
ENCODING -1
SWIDTH 0 0
DWIDTH 0 0
BBX 3 2 -2 8
BITMAP
A0
C0
ENDCHAR
ENDFONT
